<svg width="2789.000000" height="2535.000000" viewBox="0 0 2789 2535" fill="none" xmlns="http://www.w3.org/2000/svg" xmlns:xlink="http://www.w3.org/1999/xlink">
		<defs/>
	<ellipse id="Ellipse 15" cx="984.000000" cy="1239.500000" rx="933.000000" ry="778.500000" fill="#FFFFFF" fill-opacity="1.000000"/>
	<path id="Vector" d="M931.51 1561.73C808.32 1479.47 722.71 1379.4 629.4 1281.53C536.48 1184.06 433.68 1089.48 381.46 984.76C326.05 873.64 291.17 758.32 319.12 659.32C347.39 559.2 426.33 475.03 540.04 423.05C649.62 372.97 813.25 393.14 948.38 371.69C1089.13 349.36 1196.86 265.18 1356.7 293.47C1516.08 321.67 1631.52 454.18 1782.95 519.37C1957.8 594.64 2194.9 588.15 2316.6 706.69C2436.6 823.59 2316.11 949.35 2355.64 1077.27C2394.58 1203.18 2554.25 1331.39 2546.51 1450.46C2538.67 1571.25 2433.98 1662.74 2313.31 1729.29C2195.27 1794.4 2033 1816.4 1867.31 1825.08C1709.6 1833.33 1541.59 1825.71 1373.72 1778.47C1212.81 1733.19 1065.23 1651 931.51 1561.73Z" fill="#FFFFFF" fill-opacity="1.000000" fill-rule="nonzero"/>
	<path id="Vector" d="M959.44 1106.09C813.85 1133.37 695.82 1191.79 571.57 1245.17C447.84 1298.32 316.16 1344.95 227.03 1420.75C132.44 1501.19 55.08 1593.55 41.91 1695.58C28.59 1798.76 68.15 1907.16 152.32 1999.61C233.43 2088.7 391.84 2134.39 507.71 2207.18C628.37 2282.97 694.4 2402.69 852.51 2439.44C1010.17 2476.08 1168.37 2399.54 1333.23 2399.04C1523.6 2398.47 1739.12 2497.54 1897.58 2436.29C2053.84 2375.89 1992.4 2212.93 2078.99 2110.81C2164.24 2010.28 2361.42 1955.07 2401.06 1842.53C2441.27 1728.36 2380.9 1603.12 2296.06 1494.52C2213.06 1388.3 2072.46 1304.35 1923.48 1231.31C1781.68 1161.8 1624.17 1102.84 1451.24 1080.38C1285.47 1058.84 1117.47 1076.49 959.44 1106.09Z" fill="#FFFFFF" fill-opacity="1.000000" fill-rule="nonzero"/>
</svg>
