<svg width="50.000000" height="50.000000" viewBox="0 0 50 50" fill="none" xmlns="http://www.w3.org/2000/svg" xmlns:xlink="http://www.w3.org/1999/xlink">
	<desc>
			Created with Pixso.
	</desc>
	<defs>
		<clipPath id="clip15_299">
			<rect id="svg-gobbler (11) 1" width="50.000000" height="50.000000" fill="white" fill-opacity="0"/>
		</clipPath>
	</defs>
	<rect id="svg-gobbler (11) 1" width="50.000000" height="50.000000" fill="#FFFFFF" fill-opacity="0"/>
	<g clip-path="url(#clip15_299)">
		<path id="Vector" d="M25.0958 3.90674C24.5558 3.90283 24.1154 4.3374 24.1115 4.87646C24.1075 5.41553 24.5411 5.85596 25.0812 5.85986C25.6202 5.86377 26.0607 5.43018 26.0646 4.89111C26.0685 4.35205 25.6349 3.91162 25.0958 3.90674ZM25.0514 9.76611C21.2808 9.73926 18.1927 12.7812 18.1643 16.5508C18.1359 20.3198 21.1794 23.4092 24.9489 23.4375L25.0012 23.438C28.7466 23.438 31.8076 20.4053 31.8359 16.6533C31.8644 12.8843 28.8209 9.79443 25.0514 9.76611ZM25.001 21.4849L24.9635 21.4849C22.271 21.4644 20.0969 19.2573 20.1173 16.5654C20.1375 13.8853 22.3239 11.7188 24.9993 11.7188L25.0367 11.7192C27.7292 11.7393 29.9032 13.9463 29.8829 16.6387C29.8625 19.3188 27.6764 21.4849 25.001 21.4849ZM29.261 4.64746C28.7529 4.46729 28.1945 4.7334 28.0142 5.2417C27.834 5.75 28.1001 6.30811 28.6084 6.48828C32.9099 8.0127 35.7766 12.1099 35.7422 16.6826C35.7382 17.2217 36.1721 17.6626 36.7114 17.6665L36.719 17.6665C37.2546 17.6665 37.6912 17.2339 37.6953 16.6973C37.736 11.2925 34.3464 6.44971 29.261 4.64746Z" fill="#307632" fill-opacity="1.000000" fill-rule="nonzero"/>
		<path id="Vector" d="M30.9919 36.7617C37.4873 28.4009 41.5466 24.041 41.6013 16.7266C41.6702 7.52295 34.2012 0 24.9984 0C15.9031 0 8.46777 7.36621 8.39868 16.4775C8.34277 23.9907 12.4774 28.3442 19.0177 36.7607C12.5114 37.7329 8.39868 40.1758 8.39868 43.1641C8.39868 45.1655 10.2488 46.9619 13.6085 48.2217C16.6664 49.3682 20.712 50 25 50C29.288 50 33.3336 49.3682 36.3915 48.2217C39.7512 46.9619 41.6013 45.1655 41.6013 43.1641C41.6013 40.1772 37.4924 37.7349 30.9919 36.7617ZM10.3517 16.4922C10.4126 8.45215 16.9727 1.95312 24.9987 1.95312C33.1196 1.95312 39.7089 8.59277 39.6483 16.7119C39.5964 23.6587 35.2915 27.9395 28.4187 36.8989C27.1929 38.4961 26.0671 40.0063 25.0015 41.4834C23.939 40.0054 22.8357 38.522 21.5914 36.8979C14.4346 27.564 10.2987 23.6064 10.3517 16.4922ZM25 48.0469C16.6161 48.0469 10.3517 45.4692 10.3517 43.1641C10.3517 41.4546 14.0966 39.2954 20.3933 38.5474C21.7852 40.374 23.0055 42.0332 24.2024 43.7275C24.2925 43.855 24.4119 43.959 24.5504 44.0312C24.6891 44.103 24.8429 44.1406 24.9991 44.1406L25 44.1406C25.156 44.1406 25.3098 44.103 25.4484 44.0317C25.587 43.96 25.7064 43.856 25.7966 43.729C26.9822 42.0562 28.236 40.3564 29.616 38.5488C35.9067 39.2974 39.6483 41.4561 39.6483 43.1641C39.6482 45.4692 33.3839 48.0469 25 48.0469Z" fill="#307632" fill-opacity="1.000000" fill-rule="nonzero"/>
	</g>
</svg>
