<svg width="24.000000" height="24.000000" viewBox="0 0 24 24" fill="none" xmlns="http://www.w3.org/2000/svg" xmlns:xlink="http://www.w3.org/1999/xlink">
	<desc>
			Created with Pixso.
	</desc>
	<defs>
		<clipPath id="clip16_782">
			<rect id="svg-gobbler (15) 1" width="24.000000" height="24.000000" fill="white" fill-opacity="0"/>
		</clipPath>
	</defs>
	<rect id="svg-gobbler (15) 1" width="24.000000" height="24.000000" fill="#FFFFFF" fill-opacity="0"/>
	<g clip-path="url(#clip16_782)">
		<path id="Vector" d="M14.1987 12.0198L23.5439 2.67432C24.1521 2.06641 24.1521 1.0835 23.5439 0.475708C22.9362 -0.132202 21.9532 -0.132202 21.3453 0.475708L11.9999 9.82104L2.65479 0.475708C2.04663 -0.132202 1.06409 -0.132202 0.456177 0.475708C-0.1521 1.08362 -0.1521 2.06641 0.456177 2.67432L9.80115 12.0198L0.456177 21.3651C-0.151978 21.973 -0.151978 22.9559 0.456177 23.5637C0.600464 23.7084 0.771729 23.823 0.960449 23.9011C1.14905 23.9794 1.35132 24.0195 1.55554 24.0193C1.95349 24.0193 2.35156 23.8669 2.65479 23.5637L11.9999 14.2184L21.3453 23.5637C21.4896 23.7083 21.661 23.823 21.8496 23.9011C22.0382 23.9794 22.2405 24.0194 22.4447 24.0193C22.8427 24.0193 23.2408 23.8669 23.5439 23.5637C24.1521 22.9558 24.1521 21.973 23.5439 21.3651L14.1987 12.0198Z" fill="#333333" fill-opacity="1.000000" fill-rule="nonzero"/>
	</g>
</svg>
