<svg width="22.400024" height="19.200012" viewBox="0 0 22.4 19.2" fill="none" xmlns="http://www.w3.org/2000/svg" xmlns:xlink="http://www.w3.org/1999/xlink">
	<desc>
			Created with Pixso.
	</desc>
	<defs/>
	<path id="Vector" d="M0 1.60001C0 1.17566 0.168579 0.768677 0.468628 0.468628C0.768677 0.168579 1.17566 0 1.59998 0L20.8 0C21.2244 0 21.6313 0.168579 21.9314 0.468628C22.2314 0.768677 22.4 1.17566 22.4 1.60001C22.4 2.02435 22.2314 2.4313 21.9314 2.73138C21.6313 3.03143 21.2244 3.20001 20.8 3.20001L1.59998 3.20001C1.17566 3.20001 0.768677 3.03143 0.468628 2.73138C0.168579 2.4313 0 2.02435 0 1.60001ZM0 9.60001C0 9.17566 0.168579 8.76868 0.468628 8.46863C0.768677 8.16858 1.17566 8 1.59998 8L11.2 8C11.6244 8 12.0314 8.16858 12.3314 8.46863C12.6315 8.76868 12.8 9.17566 12.8 9.60001C12.8 10.0244 12.6315 10.4313 12.3314 10.7314C12.0314 11.0314 11.6244 11.2 11.2 11.2L1.59998 11.2C1.17566 11.2 0.768677 11.0314 0.468628 10.7314C0.168579 10.4313 0 10.0244 0 9.60001ZM0 17.6C0 17.1757 0.168579 16.7687 0.468628 16.4686C0.768677 16.1686 1.17566 16 1.59998 16L20.8 16C21.2244 16 21.6313 16.1686 21.9314 16.4686C22.2314 16.7687 22.4 17.1757 22.4 17.6C22.4 18.0244 22.2314 18.4313 21.9314 18.7314C21.6313 19.0314 21.2244 19.2 20.8 19.2L1.59998 19.2C1.17566 19.2 0.768677 19.0314 0.468628 18.7314C0.168579 18.4313 0 18.0244 0 17.6Z" fill="#333333" fill-opacity="1.000000" fill-rule="evenodd"/>
</svg>
