<svg width="60.000000" height="60.000000" viewBox="0 0 60 60" fill="none" xmlns="http://www.w3.org/2000/svg" xmlns:xlink="http://www.w3.org/1999/xlink">
	<desc>
			Created with Pixso.
	</desc>
	<defs/>
	<rect id="v-pagination__item" rx="30.000000" width="60.000000" height="60.000000" fill="#333333" fill-opacity="1.000000"/>
	<rect id="arrow-right" width="24.000000" height="24.000000" transform="translate(42.000000 42.000000) rotate(-179.999985)" fill="#FFFFFF" fill-opacity="0"/>
	<path id="Vector" d="M27.57 23.17C27.76 23.17 27.95 23.25 28.1 23.39C28.39 23.68 28.39 24.16 28.1 24.46L22.56 30L28.1 35.53C28.39 35.82 28.39 36.3 28.1 36.59C27.81 36.88 27.33 36.88 27.04 36.59L20.97 30.52C20.68 30.24 20.68 29.75 20.97 29.47L27.04 23.39C27.19 23.25 27.38 23.17 27.57 23.17Z" fill="#FFFFFF" fill-opacity="1.000000" fill-rule="nonzero"/>
	<path id="Vector" d="M21.67 29.25L38.5 29.25C38.91 29.25 39.25 29.59 39.25 30C39.25 30.4 38.91 30.75 38.5 30.75L21.67 30.75C21.26 30.75 20.92 30.4 20.92 30C20.92 29.59 21.26 29.25 21.67 29.25Z" fill="#FFFFFF" fill-opacity="1.000000" fill-rule="nonzero"/>
	<g opacity="0.000000"/>
</svg>
