<svg width="235.000000" height="110.000000" viewBox="0 0 235 110" fill="none" xmlns="http://www.w3.org/2000/svg" xmlns:xlink="http://www.w3.org/1999/xlink">
	<desc>
			Created with Pixso.
	</desc>
	<defs>
		<clipPath id="clip16_528">
			<rect id="OLGINKA_logo_green_y 1" width="235.000000" height="110.000000" fill="white" fill-opacity="0"/>
		</clipPath>
	</defs>
	<rect id="OLGINKA_logo_green_y 1" width="235.000000" height="110.000000" fill="#FFFFFF" fill-opacity="0"/>
	<g clip-path="url(#clip16_528)">
		<path id="Vector" d="M7.58057 49.0127C7.04541 49.0127 6.77783 48.9683 6.28735 48.9683C5.9751 48.9683 5.43994 49.0127 5.17261 48.7446C4.90503 48.5659 4.94946 48.1191 4.90503 47.8511C4.86035 47.3149 4.86035 46.7344 4.99414 46.1982C4.94946 44.9917 5.57373 44.9917 6.55493 45.0366C7.1792 45.0366 7.89258 45.0366 8.51685 45.0811C8.73975 45.0811 9.14111 45.1704 9.36426 44.9473C9.63159 44.6787 9.49805 44.3662 9.40869 44.0981C9.36426 43.9639 9.40869 43.6958 9.31958 43.562C9.18579 43.3833 8.8291 43.4727 8.65063 43.4277C8.24927 43.3833 7.75879 43.3384 7.31299 43.3833C6.28735 43.6514 5.21704 43.2046 4.14697 43.4727C3.87939 43.4727 3.29956 43.4277 3.34424 43.8745C3.34424 44.4556 3.29956 44.7681 3.29956 45.394C3.25513 47.3599 3.34424 49.415 3.38892 51.3809C3.29956 52.6318 3.21045 53.8828 3.29956 55.1338C3.34424 55.8486 3.16577 56.4741 4.14697 56.2954C6.42114 56.2061 10.2561 57.0552 10.2114 53.6147C10.2114 52.4976 10.6128 51.3809 9.94385 50.353C9.40869 49.5938 8.51685 49.0576 7.58057 49.0127ZM7.58057 54.687C6.15356 54.687 4.41455 55.2231 4.99414 53.0342C5.12793 52.3638 4.68188 51.4253 5.17261 50.8447C5.57373 50.4424 6.198 50.666 6.64404 50.6211C7.13452 50.666 7.89258 50.4873 8.29395 50.9341C8.73975 51.3359 8.56152 52.1401 8.6062 52.6318C8.73975 53.481 8.73975 54.687 7.58057 54.687Z" fill="#FFFFFF" fill-opacity="1.000000" fill-rule="nonzero"/>
		<path id="Vector" d="M42.1394 46.5557C42.0503 45.9746 42.0503 45.6172 41.9165 45.0361C41.8271 44.4556 41.6042 44.1426 41.5151 43.562C41.4705 43.2046 41.1138 43.2046 40.8462 43.2046C40.5786 43.1597 40.2219 43.0259 39.999 43.2939C39.5977 43.8301 39.7314 44.4556 39.553 45.0811C39.1963 46.4214 38.9287 47.7617 38.7058 49.147C38.572 49.9062 38.2153 50.7104 38.1262 51.5146C38.0815 52.5425 37.7249 53.5254 37.5017 54.5083C37.3682 55.0444 36.8774 56.2954 37.9031 56.1616C38.1707 56.1167 38.4829 56.2061 38.7505 56.0273C39.1519 55.5361 38.9287 55 39.1072 54.4189C39.1516 54.0171 39.2854 53.8384 39.4192 53.5254C39.5085 53.2573 39.553 52.855 39.7761 52.6318C40.1328 52.2295 40.7124 52.4976 41.1584 52.4531C41.8718 52.4082 42.0503 53.2129 42.1394 53.749C42.2732 54.2402 42.3623 54.8213 42.4517 55.3574C42.4961 55.6255 42.5408 56.1167 42.9421 56.0723C43.4326 56.1167 44.1907 56.3403 44.146 55.5806C43.9678 54.5083 43.7446 53.6147 43.4326 52.5869C43.1204 50.5317 42.719 48.5215 42.1394 46.5557ZM40.8909 50.7554C40.5342 50.7998 39.9099 50.7998 39.999 50.3086C40.1772 49.6382 40.3557 48.9683 40.4895 48.2979C40.4895 48.2085 40.6233 47.583 40.7571 47.9404C40.9353 48.6108 41.2476 49.2363 41.2029 49.9512C41.2922 50.2192 41.3813 50.7554 40.8909 50.7554Z" fill="#FFFFFF" fill-opacity="1.000000" fill-rule="nonzero"/>
		<path id="Vector" d="M76.2969 50.0405C75.9849 49.5938 76.6091 49.1914 76.6982 48.7446C77.0105 47.8066 76.7876 46.9131 76.832 45.9746C76.8767 44.5449 75.5388 43.3389 74.2012 43.2046C73.0417 43.2495 71.8376 43.1152 70.9014 43.9194C70.4109 44.3218 69.1624 45.7065 70.3662 45.9302C70.7229 45.8853 71.0352 46.1089 71.3472 45.8853C71.5256 45.6172 71.5703 45.2598 71.8823 45.126C72.4622 44.8579 73.1309 44.9917 73.7107 44.9023C74.9146 44.7236 75.405 45.4385 75.2712 46.5557C75.2268 47.2256 75.5388 48.1191 74.9592 48.6553C74.3794 49.2363 73.4875 48.9233 72.7742 48.9233C72.5957 48.9683 72.0608 48.7896 71.927 49.0576C71.7932 49.2363 71.8376 49.5488 71.7932 49.7725C71.7932 49.9512 71.7041 50.2637 71.8823 50.4424C72.2837 50.666 73.0864 50.5317 73.5769 50.6211C73.9336 50.6211 74.6025 50.5767 74.9146 50.9341C75.3606 51.3809 75.1375 52.1851 75.2268 52.7212C75.405 53.9277 75.2268 55.0894 73.7107 54.9106C72.4622 54.8657 71.9714 55.1787 71.3918 53.8384C71.1689 53.6147 70.8567 53.749 70.5891 53.8384C69.7866 53.7935 69.8757 54.3745 70.0986 54.9551C70.6338 56.2954 71.7485 56.5635 73.0417 56.4741C73.8889 56.6528 74.7808 56.6528 75.4944 56.1167C76.7876 55.5361 76.9211 54.4189 76.832 53.2129C76.8767 52.0957 77.0549 50.9341 76.2969 50.0405Z" fill="#FFFFFF" fill-opacity="1.000000" fill-rule="nonzero"/>
		<path id="Vector" d="M108.225 52.5425C107.957 50.4873 107.556 48.5215 106.932 46.5557C106.843 45.9746 106.843 45.6172 106.709 45.0361C106.619 44.4556 106.396 44.1426 106.307 43.562C106.263 43.2046 105.906 43.2046 105.638 43.2046C105.371 43.1597 105.014 43.0259 104.791 43.2939C104.39 43.8301 104.524 44.4556 104.345 45.0811C103.989 46.4214 103.721 47.7617 103.498 49.147C103.364 49.9062 103.008 50.7104 102.918 51.5146C102.874 52.5425 102.517 53.5254 102.294 54.5083C102.16 55.0444 101.67 56.2954 102.695 56.1616C102.963 56.1167 103.275 56.2061 103.543 56.0273C103.944 55.5361 103.721 55 103.899 54.4189C103.944 54.0171 104.078 53.8384 104.211 53.5254C104.301 53.2573 104.345 52.855 104.568 52.6318C104.925 52.2295 105.505 52.4976 105.951 52.4531C106.664 52.4082 106.843 53.2129 106.932 53.749C107.065 54.2402 107.155 54.8213 107.244 55.3574C107.288 55.6255 107.333 56.1167 107.734 56.0723C108.225 56.1167 108.983 56.3403 108.938 55.5806C108.804 54.4639 108.582 53.5703 108.225 52.5425ZM105.728 50.7554C105.371 50.7998 104.747 50.7998 104.836 50.3086C105.014 49.6382 105.193 48.9683 105.326 48.2979C105.326 48.2085 105.46 47.583 105.594 47.9404C105.772 48.6108 106.084 49.2363 106.04 49.9512C106.129 50.2192 106.263 50.7554 105.728 50.7554Z" fill="#FFFFFF" fill-opacity="1.000000" fill-rule="nonzero"/>
		<path id="Vector" d="M24.5256 94.8091C24.5256 96.9092 24.1243 98.0708 24.1689 100.171C24.1243 101.824 24.0798 103.477 23.1433 104.862C21.8948 106.962 19.5312 108.034 17.3909 109.106C15.3843 110 13.1101 109.509 11.0142 109.464C9.89941 109.419 8.11572 109.553 6.9563 109.062C4.77148 108.213 2.63086 106.873 1.29321 104.817C0.178467 103.075 0.0446777 100.573 0.0891113 98.562C-0.0446777 96.9092 -0.0891113 94.8984 -0.0446777 93.2007C0 90.9219 0.0446777 86.4097 0 84.0415C0 81.9414 0.312256 80.7798 0.312256 78.6802C0.401367 75.9546 -0.312012 73.542 0.535156 70.9058C1.69458 68.0464 3.61206 64.9189 6.91187 64.3379C8.6062 63.9805 10.5684 64.1592 12.2183 63.936C18.0151 63.0425 21.6719 65.5444 23.9014 70.9058C25.0608 73.9438 23.7229 77.2056 24.1243 80.2886C24.3027 82.7456 24.2136 85.3818 24.481 87.8394C24.5703 88.8223 24.5256 93.6924 24.5256 94.8091ZM18.8179 100.171C18.7732 98.0708 19.0854 96.9092 19.0408 94.8091C19.0408 92.7095 18.7288 91.5474 18.7288 89.4478C18.7288 87.3477 18.8179 86.1416 18.8625 84.0415C18.8179 81.6289 18.4165 79.4395 18.595 77.0718C18.595 74.8823 19.353 72.3354 17.6584 70.5039C16.3208 68.8506 13.9128 69.3423 12.2183 69.521C10.5237 69.8335 8.11572 69.2529 6.7334 70.7271C5.17261 71.978 5.75244 74.3462 5.52954 75.9995C5.26196 78.7246 5.66333 81.3159 5.66333 84.0415C5.66333 86.4541 5.66333 90.8774 5.75244 93.2007C5.79712 94.2285 5.79712 99.0088 5.79712 100.171C5.79712 101.198 6.15381 102.047 6.82251 102.762C8.1604 104.236 10.5684 103.656 12.2183 103.968C13.1992 104.058 13.8682 104.147 15.072 104.147C17.1233 104.192 18.8625 102.137 18.8179 100.171ZM56.9888 97.8027C56.9888 95.7476 56.4089 94.6753 56.498 92.6201C56.4536 91.1899 56.5874 90.3413 56.6765 89.001C56.7212 87.3926 56.7212 85.4268 56.7656 83.8184C56.855 78.6802 56.2305 73.4077 56.8994 68.3145C57.3008 65.4102 56.3198 65.4551 53.7334 65.4102C51.5483 65.2314 49.2742 65.2314 47.0891 65.3208C43.9678 65.4102 40.668 64.874 37.5911 65.3657C36.6548 65.3657 34.425 65.187 34.425 66.7505C34.6035 70.1016 34.6479 73.0952 34.4697 76.4463C34.5142 78.5908 34.5142 80.6011 34.6035 82.7012C34.7373 83.9521 34.9155 84.7119 34.8711 86.0967C34.9155 87.9731 34.5142 89.0903 34.5142 90.9668C34.5588 93.9155 34.6479 96.9536 33.8455 99.6348C33.2212 102.762 30.6794 103.879 27.7363 104.013C27.2903 104.058 26.9336 104.192 26.5769 104.504C25.7297 105.175 26.1309 106.426 26.1309 107.319C25.908 110.357 28.5835 109.866 30.5901 109.241C34.9155 107.99 37.7695 105.219 38.8843 100.886C41.0247 94.0498 40.0437 86.4097 40.4451 79.395C40.4895 75.4185 38.3047 69.9678 44.592 70.772C45.9744 70.8613 46.7771 70.9951 48.2932 70.9951C49.0959 70.9951 49.7202 71.2188 50.2107 71.71C50.7012 72.2017 50.9241 72.8271 50.9241 73.6313L50.9241 78.5459L50.9241 83.5054C50.9241 85.3818 51.2363 86.499 51.2363 88.4199C51.2808 90.3413 50.9688 91.458 51.0134 93.335C51.0134 95.2559 51.3254 96.373 51.3254 98.2939C51.3254 100.215 50.9241 101.288 50.9688 103.253C50.9688 104.639 51.147 105.443 51.3254 106.694C51.4146 107.319 51.1917 108.705 51.7268 109.375C52.3064 110.313 53.5996 109.821 54.447 109.777C55.0266 109.732 55.8738 109.821 56.3198 109.285C56.6318 108.973 56.8103 108.615 56.8103 108.168L56.8103 102.985C56.8103 101.02 56.9888 99.8135 56.9888 97.8027ZM84.5466 89.1797C86.5532 92.0391 86.1965 95.2114 85.7505 98.4282C85.6614 99.5449 85.7952 101.645 85.3938 102.807C84.5911 104.996 83.2979 107.274 81.3359 108.615C78.5266 110.268 75.3159 109.509 72.239 109.509C70.2771 109.509 68.5381 110.179 66.5759 109.866C65.4165 109.732 64.7476 109.419 63.499 109.464C63.0532 109.464 62.6965 109.375 62.429 109.151C61.7153 108.705 62.072 107.23 61.9829 106.649C61.4924 103.253 62.1167 99.7241 62.072 96.3281C61.9829 91.6816 61.9829 87.0352 61.8938 82.3438C61.9385 79.3057 62.072 76.4907 61.9385 73.4971C61.8491 71.8887 61.9829 69.9678 62.1614 68.3594C62.3396 67.4653 61.8047 65.4102 63.5437 65.5444C64.5247 65.5444 65.0598 65.2314 66.0408 65.2764C67.6462 65.2314 67.2449 67.4209 67.334 68.3145C67.3787 71.5762 67.6016 75.0161 67.6016 78.2778C67.6462 79.5288 67.6907 80.3779 67.6462 81.7183C67.6462 82.5225 67.9136 83.1479 68.4043 83.5947C69.7419 84.7119 72.0161 84.0864 73.5322 84.4438C74.647 84.5332 75.3606 84.6226 76.6982 84.6226C79.7751 84.6226 82.8521 86.4097 84.5466 89.1797ZM80.3994 100.394C80.3994 98.5176 80.4888 97.4453 80.5332 95.7476C80.667 93.5581 80.4888 91.1899 78.0806 90.1177C77.1443 89.6265 75.5391 89.8052 74.7363 89.8496C73.0864 89.939 72.1055 90.0732 70.3218 90.0732C67.9583 90.1626 66.9326 91.9497 67.2449 94.0942C67.334 95.3901 67.2893 96.9985 67.3787 98.3389C67.4231 99.4111 67.5125 100.171 67.5125 101.333C67.5569 104.058 70.2324 104.147 72.1499 103.968C75.1377 103.745 80.1765 104.862 80.3994 100.394ZM110.276 65.3657C107.155 65.3657 104.39 65.4995 101.269 65.5444C99.262 65.4995 97.3889 65.0977 95.427 65.187C93.7324 65.187 90.834 64.2041 90.7002 66.7954L90.7002 71.978C90.7002 75.0161 90.522 77.8311 90.8787 80.8247C91.1016 83.103 90.6555 85.2031 90.6555 87.4819C90.6555 89.5371 90.9678 90.6538 90.9231 92.6646C90.9231 95.0327 90.4326 97.043 90.6111 99.3662C90.7893 101.333 90.7893 103.611 90.7002 105.577C90.7893 106.962 89.9421 109.643 92.261 109.643C93.4204 109.553 94.8918 110.67 95.739 109.464C96.2297 108.749 96.0066 107.409 96.1404 106.738C96.4971 103.924 96.3188 101.198 96.2742 98.3389C96.5417 92.3521 96.1404 86.0073 96.4526 80.0649C96.5417 78.5459 96.4526 76.625 96.3188 75.1055C96.0513 73.1846 96.5864 70.8613 98.9944 70.8613C100.6 70.8613 101.491 70.9058 102.963 70.9507C104.702 71.04 106.843 70.9507 108.626 70.9058C109.83 70.8613 111.614 71.3081 111.614 69.2974C111.569 67.7783 112.639 65.4995 110.276 65.3657ZM139.261 91.8604C139.216 88.8667 139.306 86.0073 138.904 83.103C138.681 80.8247 139.038 78.7246 139.038 76.4014C139.172 73.3184 139.172 69.1636 139.172 66.0356C139.172 65.5889 138.993 65.2314 138.681 64.9189C138.235 64.2935 136.987 64.5166 136.541 64.3828C136.184 64.3828 135.069 64.2041 134.623 64.6509C133.776 65.4102 133.553 66.6167 133.018 67.4209C131.903 69.4761 131.19 71.5762 130.298 73.7651C129.451 75.5972 128.381 77.2505 127.712 79.127C127.399 80.2886 127.31 81.0479 126.731 82.2095C126.196 83.3711 125.616 83.9971 124.991 84.98C123.966 86.7222 123.431 88.5542 122.539 90.3857C122.361 90.6987 122.182 90.8325 121.915 90.7881C121.246 90.6094 121.647 89.1348 121.513 88.7329C121.424 86.499 121.469 84.1309 121.156 81.9414C120.844 79.4395 121.87 76.8037 121.603 74.2568C121.335 72.0229 121.424 69.6548 121.156 67.4209C121.023 66.5273 121.424 64.4722 119.864 64.5615C118.882 64.5615 118.347 64.4722 117.366 64.4272C116.474 64.4272 116.073 65.1421 116.073 65.9912C116.073 67.4653 115.984 68.3145 115.939 69.6548C115.761 75.3735 115.449 81.0034 115.761 86.7222C115.716 88.688 116.029 89.8496 115.984 91.8604C115.895 94.541 115.939 97.0879 115.761 99.6792C115.493 101.645 115.716 103.879 115.716 105.89C115.85 106.604 115.493 107.945 116.251 108.615C116.697 109.241 117.946 109.151 118.437 109.106C119.462 109.017 120.131 109.375 120.622 107.99C121.781 105.577 123.431 102.181 124.546 99.6348C126.017 96.8198 127.355 94.3179 128.693 91.4136C129.718 88.9561 130.521 86.5884 131.903 84.3096C132.215 83.9521 132.438 82.4775 133.241 82.6562C133.598 82.7012 133.731 82.9243 133.731 83.2817C133.687 85.4712 133.865 89.4028 133.419 91.5029C133.286 94.7197 133.419 98.0259 133.464 101.198C133.419 102.717 133.509 104.504 133.553 106.023C133.598 107.811 133.419 109.017 135.827 108.838C136.942 108.66 139.038 109.196 138.993 107.454C138.993 105.13 139.172 102.985 139.083 100.751C138.993 99.3662 138.86 98.562 138.86 97.0879C138.726 95.0327 139.306 93.9155 139.261 91.8604ZM167.622 91.8604C167.622 90.4307 167.755 89.5815 168.023 88.2861C168.201 86.6777 168.023 84.7119 168.023 83.103C167.889 80.7354 168.156 76.1782 167.844 73.8545C167.666 72.291 167.711 70.2358 167.755 68.6719C167.711 67.3315 168.469 64.4722 166.328 64.3379C165.615 64.2935 165.214 64.5166 164.589 64.6953C163.608 64.7847 162.493 64.6953 162.538 66.0806C162.538 67.2866 162.493 67.8677 162.449 68.8506C162.36 72.4248 162.226 76.312 162.404 79.8862C162.404 81.3608 163.073 83.4604 161.646 84.5776C160.175 85.8286 158.034 85.2031 156.473 85.4268C152.371 85.6948 150.632 85.7842 150.81 81.0034C150.632 77.3843 150.543 73.5864 150.454 69.9678C150.409 68.5381 150.364 67.5996 150.364 66.0356C150.364 65.5889 150.275 65.2314 150.052 64.9189C149.428 64.1592 148.179 64.5615 147.332 64.5166C144.924 64.2485 145.415 65.9912 145.325 67.5996C145.013 69.9678 145.103 72.4697 145.192 74.8374C145.281 78.814 145.103 82.7012 145.281 86.6777C145.325 88.688 144.746 89.8052 144.79 91.8604C144.835 94.541 145.281 96.9985 145.013 99.5898C144.746 102.181 145.103 104.728 145.147 107.409C145.236 109.196 146.485 109.017 147.823 109.062C149.16 109.196 150.498 109.106 150.543 107.409C150.498 105.622 150.81 104.639 150.766 102.807C150.721 100.796 150.454 98.9194 150.543 96.9536C150.587 95.7476 150.587 95.0327 150.587 93.6924C150.587 92.8882 150.855 92.2627 151.39 91.8159C152.282 90.9219 154.155 91.1455 155.18 91.1006C156.83 91.0112 157.811 90.8774 159.595 90.8774C161.066 90.8325 162.36 92.2178 162.315 93.6924C162.315 94.2729 162.315 94.7646 162.36 95.0771C162.895 98.6963 162.226 102.405 162.493 106.023C162.404 108.034 162.538 109.464 165.124 108.838C165.838 108.66 166.864 108.838 167.532 108.347C167.889 108.124 168.023 107.811 168.023 107.364C168.023 105.934 168.067 105.041 168.112 103.7C168.38 101.377 167.666 99.3662 167.666 96.9985C167.622 97.043 167.622 91.8604 167.622 91.8604ZM195.001 102.539C192.95 96.5518 190.676 90.7881 188.045 85.0244C187.242 83.1479 188.089 81.8521 189.293 80.5117C190.007 79.7969 190.765 78.4121 191.211 77.4736C192.192 74.3013 194.555 71.71 195.938 68.6719C196.294 67.957 196.562 67.4653 197.008 66.6611C197.543 65.7676 197.052 64.1592 195.893 64.2041C190.988 64.2041 192.103 64.2485 189.828 68.27C188.803 70.1909 187.643 71.8887 186.529 73.8101C185.28 76.0889 184.21 78.2778 182.917 80.4224C182.248 81.2715 182.025 82.7905 180.865 83.2817C179.884 83.6841 178.68 82.9692 178.725 81.8521C178.859 77.4292 178.591 73.0952 178.814 68.7168C178.859 67.8228 178.903 67.1528 178.903 66.0356C178.903 65.5889 178.77 65.2764 178.457 65.0527C177.833 64.6509 176.807 64.7847 176.094 64.6953C175.068 64.5615 173.196 64.5166 173.196 65.9912C173.196 67.4653 173.285 68.3145 173.329 69.6548C173.374 73.6313 173.24 77.5186 173.374 81.5396C173.418 84.5332 173.641 87.3926 173.24 90.3413C172.883 93.022 173.864 95.8813 173.552 98.562C173.196 100.841 173.329 105.041 173.329 107.409C173.463 109.688 175.871 108.838 177.343 108.838C178.19 108.838 179.037 108.302 178.992 107.409L178.992 100.26C178.992 99.3218 178.992 98.2495 179.483 97.4004C179.84 96.7749 180.107 96.2837 180.33 95.9263C181.133 94.6753 181.757 93.9155 182.471 92.5308C183.05 91.3687 184.611 91.5923 185.012 92.7539C185.28 93.3794 185.503 93.8711 185.681 94.2285C186.306 95.4795 186.796 96.3281 187.287 97.7134C188.49 100.707 189.427 103.521 190.898 106.336C191.166 106.828 191.523 108.079 192.013 108.615C192.459 109.151 193.842 108.883 194.154 108.794C194.6 108.57 196.383 108.928 196.74 108.124C197.364 107.454 196.472 106.068 196.25 105.487C195.804 104.415 195.491 103.79 195.001 102.539ZM225.636 107.051C225.814 107.99 225.011 109.062 224.031 109.017C223.049 109.062 222.514 108.749 221.533 108.794C220.196 108.928 220.062 107.185 219.883 106.336C219.571 104.594 219.17 102.583 218.769 100.841C217.921 95.7476 216.673 96.4175 212.124 96.1943C210.118 96.105 209.627 98.6069 209.315 99.9922C208.78 101.377 208.156 102.985 208.022 104.504C207.71 106.56 208.245 109.375 205.213 109.151C204.187 109.106 202.894 109.643 202.225 108.526C201.467 107.23 202.403 105.755 202.537 104.549C203.028 101.913 203.741 99.5005 204.365 96.8198C204.722 95.3901 204.722 94.4966 204.9 93.1562C205.079 91.5474 205.614 89.5815 206.149 88.0181C206.996 84.6226 207.442 81.0034 208.111 77.6079C208.557 74.9268 209.627 72.1123 210.029 69.4316C210.564 67.5547 210.207 63.8467 213.195 64.3828C213.908 64.5166 214.398 64.606 215.201 64.606C215.959 64.606 216.405 65.0083 216.628 65.8125C216.94 67.8677 217.743 68.8955 218.055 70.9507C218.501 73.2739 218.412 75.5078 219.17 77.6973C220.285 80.5566 220.552 83.416 221.355 86.4097C221.712 88.4648 221.935 89.5815 222.425 91.5923C222.826 93.6475 222.737 94.8091 223.139 96.8198C223.495 98.3389 223.852 99.0537 224.253 100.394C224.833 102.583 225.19 104.772 225.636 107.051ZM214.532 90.5645C216.361 90.5645 215.825 88.8667 215.603 87.75C215.603 85.7842 215.156 83.8628 214.398 82.0308C214.22 81.8076 214.176 80.5117 213.73 80.4224C213.195 80.5117 213.239 81.7183 213.105 81.9863C212.704 83.8628 212.258 85.8735 211.723 87.7051C211.634 88.0181 211.545 88.4199 211.411 88.9116C211.232 89.8496 212.124 90.6094 213.016 90.6094C213.819 90.6094 213.685 90.5645 214.532 90.5645Z" fill="#FFFFFF" fill-opacity="1.000000" fill-rule="nonzero"/>
		<path id="Vector" d="M235 36.5024C234.866 36.3237 234.242 36.9941 234.153 37.0835C232.681 38.2002 232.146 38.4238 230.496 39.228C230.006 39.4517 229.604 39.7642 229.069 39.9878L226.75 41.1494C225.591 41.6855 222.871 42.8916 221.756 43.2939L217.252 45.1255C216.673 45.4385 214.621 46.1533 214.176 46.4214C213.685 46.7339 213.239 47.1807 212.749 47.4043C212.704 47.2705 213.997 46.064 214.309 45.7065L215.469 44.5894C216.36 43.6958 217.431 42.5342 218.323 41.73C219.928 40.2559 221.489 38.7812 223.138 37.396C225.413 35.5195 227.954 33.5093 230.451 32.0347L232.503 30.9624C232.77 30.8281 232.547 30.5156 232.235 30.6943L230.496 31.6772C230.229 31.8115 229.917 31.9453 229.649 32.0796C229.114 32.3477 228.668 32.7944 228.133 33.0625C227.598 33.3306 226.394 33.9561 225.992 34.3135C225.19 35.0283 224.298 35.5195 223.451 36.1899C222.871 36.6367 222.336 37.0835 221.756 37.4854C220.998 37.9321 220.329 38.5132 219.616 39.0938L217.921 40.792C217.564 41.1494 216.94 41.5513 216.628 41.9536C216.405 42.2661 216.137 42.4897 215.87 42.7578C214.8 43.9639 213.819 45.3042 212.793 46.5552C212.258 47.1807 210.965 48.5215 210.653 49.2363L210.563 49.3257L210.563 49.1021C210.251 49.1914 210.341 49.0576 210.073 49.1914C209.895 49.2808 209.984 49.4595 209.984 49.6382C209.895 50.2637 208.914 49.5938 208.735 49.5488C208.557 49.5044 208.423 49.4595 208.245 49.415C207.531 49.147 207.085 48.8789 206.06 49.2363C205.748 49.3257 205.257 49.5044 204.945 49.3257C205.079 49.1021 206.372 48.5215 206.684 48.3428L209.181 46.7788L212.704 44.0532L216.405 40.3452C218.055 38.3789 219.883 36.458 221.043 34.1348C221.89 32.5264 222.291 31.9009 222.96 30.2026C223.852 27.9688 224.209 26.3159 224.788 24.0371C224.877 23.769 225.368 22.2051 225.101 22.1157C224.922 22.0264 224.699 23.2773 224.432 23.4561C224.075 23.6797 224.61 24.1265 224.209 24.2607C224.075 24.3052 224.075 24.3945 224.03 24.4839C223.451 26.584 222.96 28.6836 221.979 30.6494C220.775 33.1069 218.055 37.709 216.227 39.6304C214.8 41.1045 212.659 43.2046 211.054 44.3662C209.761 45.3042 208.378 46.1084 206.996 46.9575L204.321 48.7446C203.652 49.1914 206.104 43.8301 206.104 43.8301C207.308 41.4619 207.933 40.6133 209.36 38.4238C210.965 35.9663 211.322 35.5195 213.105 33.2856C213.373 32.9731 213.596 32.6157 213.863 32.3477C214.755 31.3647 215.692 30.4263 216.539 29.354C216.673 29.1753 216.494 28.9966 216.316 29.1753L214.488 31.1855C214.176 31.4985 213.863 31.7666 213.551 32.0347C212.659 32.9282 210.341 35.4751 209.538 36.5918C208.111 38.5132 206.773 40.5684 205.658 42.7129C204.543 44.813 204.41 45.5278 203.607 47.5386C203.518 47.8066 203.34 48.3872 203.161 48.5659C203.072 48.3872 203.295 46.064 203.295 45.6616C203.473 42.8022 204.365 39.5854 205.792 37.0386C206.595 35.6089 207.397 34.8496 207.888 34.0454C207.977 33.8667 207.62 34.0454 207.62 34.0898C207.665 33.9561 208.378 33.0625 208.245 32.9731C208.066 32.8838 205.212 37.396 204.945 37.8428C204.677 38.2896 204.588 38.7812 204.231 39.1831L203.696 40.3452C202.938 42.043 202.582 43.8745 202.582 45.751C202.582 46.332 202.671 48.0747 202.403 48.5215C202.359 48.6108 202.046 48.6108 201.957 48.5659C201.244 48.2085 200.129 47.3599 199.416 47.3149C198.657 47.2705 198.033 46.4214 197.186 46.1978C196.918 46.1533 195.67 46.019 195.625 45.8403C195.581 45.6616 195.714 45.3042 195.402 45.2148C195.269 45.1704 195.491 43.8745 195.536 43.7407C196.026 41.8193 197.141 40.0771 198.211 38.3789C198.39 38.0664 198.568 38.2002 198.613 38.1108C198.747 37.7983 199.46 37.6196 199.728 37.396L201.645 36.1899C203.429 34.8047 204.187 34.4922 205.881 32.6602C206.639 31.856 207.487 31.0068 208.022 30.0239C208.334 29.4434 208.602 29.6221 209.805 29.3091L212.927 28.4155C214.755 27.835 215.736 27.6113 217.564 26.7178C219.437 25.7798 221.221 24.6626 222.871 23.4116L224.877 21.7139C225.234 21.4009 227.687 18.7651 227.553 18.3628C227.509 18.229 227.196 18.4077 227.196 18.4971C226.929 18.9883 225.814 20.0161 225.368 20.3286C223.094 21.8032 221.132 23.5903 218.768 24.8862C216.851 25.9585 214.176 27.4326 212.08 27.9243C211.634 28.0137 211.232 28.1924 210.831 28.2817C210.207 28.4604 209.538 28.5942 208.914 28.7285C208.735 28.7729 209.003 28.2817 209.047 28.2368C210.653 25.4668 211.678 23.6353 212.882 20.5522C213.284 19.48 213.685 18.2734 213.997 17.1118C214.131 16.5757 214.577 16.4419 214.934 16.0845C217.609 13.627 218.412 12.8228 220.909 10.0972C222.782 7.99756 223.941 6.43359 225.457 4.06543C226.215 2.90381 226.973 1.65283 227.33 0.3125C227.464 -0.179199 226.795 0.0444336 227.018 0.178711C227.196 0.3125 226.973 0.759277 226.884 0.893555C226.929 0.714844 226.929 0.223145 226.75 0.625488C226.438 1.51904 226.304 1.74219 225.859 2.59131C224.565 4.86963 221.399 8.39941 219.571 10.3208L217.787 11.9736C217.386 12.3311 215.067 14.7437 214.844 14.833C214.8 14.5649 215.825 11.5718 215.736 10.9907C215.602 11.2588 215.023 14.0288 214.755 14.2075C214.71 13.9844 214.889 13.7607 214.8 13.5376C214.443 13.9844 214.621 15.1011 214.086 15.5479C211.678 17.6929 209.27 19.8818 206.952 22.2051C206.907 22.25 206.907 22.25 206.862 22.25C206.818 22.0713 207.62 20.418 207.754 19.6138C207.843 18.8989 208.156 18.229 208.2 17.5586L208.735 14.1631C208.78 13.895 208.78 13.582 208.824 13.314C209.003 12.1079 209.181 10.5889 209.226 9.38232L209.181 5.76318C209.136 5.27197 209.092 4.73584 209.092 4.24414C209.092 4.021 209.047 3.93164 208.869 3.79736C208.735 4.11035 208.958 5.85254 208.735 6.07617C208.468 6.34424 208.601 6.65674 208.601 7.01416L208.423 10.6333C208.423 11.2588 207.62 12.063 207.219 12.5547C206.283 13.7607 204.276 16.4419 203.34 17.5142C201.556 19.48 199.728 22.1157 198.39 24.3945C198.211 24.752 198.033 25.0649 197.81 25.3774C197.052 26.5391 196.339 27.6113 195.803 28.8623L195.625 29.041C195.447 28.5942 196.963 21.937 197.32 21.4009C197.543 21.0435 198.479 16.9331 198.613 16.1738C198.613 16.1289 198.568 16.0845 198.568 16.0396C198.301 16.1738 198.301 16.7993 198.211 17.0674C198.122 17.5142 197.855 18.9438 197.676 19.2563C197.498 19.1226 197.409 19.748 197.275 20.1499L195.803 25.8691C195.358 27.4775 195.001 29.0859 194.778 30.7837C194.733 31.1411 193.842 31.0068 192.95 31.3643L191.434 31.856C191.121 31.9902 191.523 31.1855 191.612 30.7837C191.879 29.8008 192.058 28.8179 192.459 27.8794C192.95 26.6284 193.306 25.3774 193.886 24.1265C195.625 20.3735 198.033 16.0396 200.263 12.5547C200.843 11.6611 203.161 8.35498 203.83 7.55029C205.346 5.76318 206.862 3.97607 208.557 2.36768L210.162 0.893555C210.385 0.491211 208.869 1.78711 209.092 1.38477C209.226 1.20605 209.493 1.07227 209.538 0.848633C209.315 0.893555 208.735 1.6084 208.557 1.83154L205.079 5.40576C203.964 6.6123 202.269 8.48877 201.333 9.8291C200.887 10.4995 200.441 11.1694 199.951 11.8398L198.435 13.9844C195.803 17.7373 195.179 18.7651 192.994 22.9648C192.281 24.3052 191.121 26.4053 190.72 27.835C190.542 28.5049 189.427 30.7837 188.981 31.0068C188.936 30.8281 189.07 30.605 189.115 30.4263C189.382 29.4878 189.65 28.5498 189.784 27.6113C189.828 27.4775 189.873 27.3433 189.917 27.1646L190.319 24.2607C190.943 20.3286 191.924 16.71 193.618 13.1353L194.912 10.4995C194.376 10.8569 194.733 10.2314 194.198 11.3037C193.039 13.8501 192.637 13.7607 191.434 16.978C191.3 17.3799 191.166 17.7373 191.077 18.1396C191.032 18.3184 190.898 18.4521 190.854 18.6309C190.096 20.9097 188.401 26.9858 188.312 29.3091C188.268 30.5156 187.866 31.0962 187.242 32.6157C186.484 31.856 186.885 32.1689 186.439 31.3643C186.35 31.1855 186.216 31.1411 186.038 31.0518C186.618 31.0068 187.286 30.605 187.286 29.9346L187.376 28.8623C187.376 28.1924 187.777 27.8794 187.866 27.2539C188.134 26.0479 186.216 26.8965 185.815 26.271C186.172 26.0923 186.662 26.3604 187.197 26.0029C187.643 25.7349 188 25.8242 188.49 25.02C188.669 24.7075 188.223 24.3945 188.446 24.082C188.847 23.5459 188.312 22.9199 188.446 22.3838C188.49 22.2051 187.866 21.7583 187.197 21.7583C186.127 21.8032 185.904 21.4458 185.102 20.8647C184.566 20.5073 183.452 21.8032 183.095 22.1606C182.515 22.7412 181.623 24.3945 181.177 25.1543C181.043 25.3774 180.419 26.8521 180.285 26.9414C180.196 26.584 181.043 24.3052 181.4 23.6797C181.712 23.0986 181.98 21.6689 182.604 21.0884C183.184 20.5967 183.139 20.0605 183.853 19.748C184.834 19.2563 184.968 19.48 185.102 18.3628C185.191 17.6479 186.618 17.4248 186.038 17.0225C185.324 16.5312 185.324 16.5312 184.789 15.9058C184.7 15.8164 184.076 15.3691 183.942 15.4585C183.318 15.8164 183.451 16.0396 183.273 16.0396C183.139 16.0396 183.095 14.7886 182.069 14.9224C181.4 15.0117 181.891 14.6543 180.375 15.0566C179.215 15.3691 179.394 16.0845 178.859 16.8887C178.725 17.1118 178.19 18.8989 178.145 18.9438C177.922 19.3013 178.19 20.3286 178.145 20.5967C178.101 21.1328 178.19 21.7139 178.011 22.25C177.744 22.9648 178.234 23.8584 177.877 24.5732C177.788 24.752 177.833 25.2437 177.699 25.4668L176.629 24.2607C176.495 24.0371 176.763 23.9033 176.584 23.5903C176.138 22.8306 176.361 19.748 176.584 19.5693C176.718 19.4351 176.986 18.0503 177.164 17.7822C177.699 16.978 176.763 16.4863 178.368 14.9224C178.591 14.6992 179.394 13.4033 179.126 13.0908C179.171 12.8672 178.859 12.8228 178.725 12.7334C178.145 12.2866 178.323 12.6885 177.922 12.376C177.164 11.7505 176.629 13.2695 176.228 13.582C176.005 13.7607 175.916 14.0737 175.648 14.2524C174.935 14.7886 175.024 15.5034 174.979 15.7271C174.622 15.2798 174.622 15.5928 174.087 14.5205C173.998 14.3862 174.087 14.4312 174.221 14.3862C174.087 14.2075 173.909 14.1631 173.909 13.6714C173.998 11.7056 173.062 11.2144 172.928 10.9463C172.081 9.24854 172.794 10.0527 170.743 9.38232C170.475 9.29297 170.386 9.47168 170.208 9.69531C170.208 9.69531 170.743 10.7227 170.52 11.3037C170.386 11.7505 170.475 12.1523 170.475 12.5991C170.52 13.582 171.545 13.4482 171.768 14.2075C171.902 14.6543 172.125 15.0566 172.081 15.5928C172.036 16.1738 172.081 16.4863 172.214 17.0674C172.214 17.1118 172.214 17.1118 172.214 17.1118L171.278 16.2632C170.52 15.7715 168.959 14.5205 168.112 14.6543C167.265 14.7437 166.908 13.9844 166.551 14.2524C166.061 14.6992 166.328 15.3247 166.194 15.9058C166.15 16.2183 165.838 16.7993 165.927 17.1118C166.194 17.8267 166.64 17.8716 167.265 18.0947C168.023 18.1841 168.29 18.5415 168.87 18.9883C169.628 19.5693 170.787 20.5073 171.323 21.3115C171.858 22.2051 172.125 21.937 171.233 22.6519C171.055 22.7861 170.921 22.3394 170.787 22.1606C170.654 21.9819 169.717 20.9541 169.717 20.8203C169.673 20.5522 169.227 20.686 169.227 20.4629C169.271 20.2393 168.959 20.4629 168.825 20.418C168.825 20.418 168.781 20.418 168.781 20.4629C168.692 20.8203 167.755 20.7754 167.532 20.5967C166.952 20.1499 165.659 20.1055 165.793 20.7754C165.838 21.0435 166.061 21.8032 166.016 22.0713C165.971 22.2051 166.596 22.6519 166.596 22.9648C166.596 23.0542 166.729 23.6797 166.596 23.5903C165.927 23.3223 165.302 23.0093 164.634 22.7861C164.277 22.6968 163.965 22.5181 163.608 22.4731C163.341 22.4287 162.895 22.2051 162.716 22.4731C162.538 22.7861 161.824 23.0093 161.423 22.9648C161.111 22.9199 160.264 23.0542 160.308 23.501C160.487 24.9307 160.397 24.4839 161.022 24.9307C161.646 25.3774 161.2 25.6011 161.512 26.0479C161.78 26.4053 161.78 26.4497 162.181 26.6284C162.627 26.7627 163.786 26.1816 164.544 26.584C164.946 26.7627 165.749 26.7178 167.176 27.522C167.22 27.5669 168.781 28.5049 168.692 28.5942C168.558 28.7285 168.023 28.0581 167.22 28.0137C166.596 27.9688 165.481 27.5669 165.436 28.0137C165.392 28.7729 166.016 29.041 166.105 29.3984C165.927 29.3984 165.392 28.6836 164.544 28.4604C164.01 28.3262 163.92 27.7456 163.474 27.6113C163.43 27.6113 163.385 27.4326 163.341 27.5669C163.207 28.1924 163.43 27.8794 163.43 28.8623C163.43 29.2197 162.003 26.8071 161.78 26.7178C161.022 26.3604 160.665 26.3159 159.818 26.3604C159.684 26.3604 159.372 26.4053 159.417 26.6284C159.506 26.9858 159.104 27.2539 159.238 27.6113L159.461 28.4604C159.639 29.0859 158.212 29.8452 158.792 31.1411C158.97 31.5435 159.595 31.5435 160.219 32.0796C161.111 32.7944 161.869 32.5708 161.646 32.9282C161.378 33.2856 162.226 33.5986 162.27 33.6431C161.958 33.7324 162.092 33.4644 161.78 34.0005L161.78 34.0898C160.754 33.1963 159.461 32.7944 159.238 32.437C159.238 32.3921 158.346 32.1689 157.811 31.4541C156.696 29.8452 157.276 29.3091 155.403 27.4775C154.957 27.0308 154.467 26.6284 153.932 26.271C152.282 25.1543 152.594 25.1094 150.721 24.082C150.141 23.814 148.803 23.0093 148.179 23.0093C148.09 23.0093 148.001 22.8306 147.912 22.9648L150.676 24.4395C151.479 24.8862 152.906 25.7798 153.486 26.4497C155.403 28.7285 155.715 29.2197 157.276 31.6772C157.321 31.7222 157.276 31.7666 157.321 31.8115C156.652 31.7222 155.091 30.4707 154.288 30.2476L152.594 29.354L149.116 27.8794C147.912 27.4326 146.396 26.6733 145.459 25.6904C145.325 25.5562 144.3 24.5732 144.121 24.752L144.3 25.02C144.032 25.0649 143.051 24.1714 142.07 23.9478C142.115 24.1265 143.229 24.6182 143.452 24.752C143.898 25.02 144.701 25.4668 145.102 25.8242C145.994 26.6733 148.268 28.0581 149.428 28.6392C150.453 29.1304 151.524 29.6221 152.594 29.9795C154.823 30.6943 154.913 31.1855 156.562 31.9009C156.875 32.0347 157.677 32.3921 157.856 32.7051C158.212 33.4199 159.996 34.939 160.175 35.4302C160.353 35.9663 160.933 36.1899 161.156 36.6367C161.735 37.7534 161.869 37.4854 162.404 38.2002C162.092 38.3345 162.136 38.5132 162.181 38.7812C162.226 39.3623 162.761 39.6748 162.895 40.2109C162.939 40.3003 162.939 40.3452 162.984 40.4346L160.397 39.6304C159.461 39.4517 157.811 39.0938 156.875 39.0938C156.072 39.0938 155.314 38.915 154.511 38.96C154.155 38.96 153.753 39.0493 153.396 39.0044C152.505 38.915 151.657 38.915 150.766 39.0044C150.543 39.0493 150.32 39.0938 150.141 39.1387C148.358 39.228 147.154 39.4961 145.504 39.7197C144.166 39.8984 141.223 39.8091 139.841 39.6748C139.573 39.6304 137.343 39.3623 137.299 39.4517C137.12 39.7197 136.184 39.2725 135.872 39.4067L136.006 39.541C139.618 40.1216 142.115 40.3003 145.816 40.3003C149.339 40.3003 150.944 40.0322 154.244 39.8535C155.983 39.7642 159.951 40.6133 161.78 41.1494C162.27 41.2832 164.099 41.9087 164.455 42.2217C164.544 42.3555 164.634 42.4448 164.723 42.5342C164.232 42.4897 163.073 42.0874 162.493 42.0874C160.933 41.9536 158.703 41.7749 157.231 41.9087C155.537 42.0874 151.836 42.0874 150.409 42.4448C149.428 42.6685 148.447 43.0703 147.466 43.3384C144.389 44.1426 143.988 44.2319 141.089 45.6616C140.019 46.1533 138.726 46.9575 137.745 47.583C137.165 47.9404 134.579 47.7617 133.954 47.7173C132.572 47.583 131.903 47.4043 130.655 47.2256L126.017 46.4658C125.66 46.4214 125.348 46.332 125.036 46.2871C124.367 46.1533 123.208 46.1084 122.673 45.7959C122.45 45.6616 122.048 45.5723 121.781 45.6616C121.915 46.019 124.1 46.6445 124.545 46.8232C127.31 47.896 128.559 48.3428 131.591 48.7002C132.617 48.834 134.846 48.7446 136.006 48.7446C135.961 48.9233 135.827 48.9233 135.738 49.0127C135.47 49.2808 135.248 49.5044 134.98 49.6831C133.865 50.4873 132.884 51.7827 131.814 52.6763C131.68 52.8105 131.68 52.9443 131.903 52.8105C132.215 52.5869 132.795 52.0063 133.196 52.0063C133.687 51.9614 133.999 51.2021 134.267 50.8892C134.712 50.3979 136.407 48.7446 137.031 48.834C138.191 49.0127 137.789 48.6553 138.191 48.6108C139.484 48.5659 140.822 48.6108 142.115 48.3428C143.007 48.1191 145.37 47.9854 146.396 47.8511C147.555 47.7173 152.148 47.1362 153.218 46.8682L155.582 46.4658C156.161 46.332 160.085 45.5278 160.531 45.5723C160.353 45.8403 159.149 46.1978 158.703 46.3765L153.753 48.5215L152.772 49.0127C151.791 49.415 151.033 49.8618 150.141 50.4873L149.562 50.8447L146.351 53.0786L145.102 54.0615L143.185 55.4468L140.866 57.3677L139.796 58.1719C139.796 58.3506 139.528 58.3506 139.395 58.3955C138.681 58.5742 137.968 58.8423 137.254 58.9316C136.362 59.0654 134.757 59.6465 134.623 59.6465C133.91 59.6909 132.75 60.2271 131.234 60.272C131.101 60.272 130.788 60.272 130.699 60.4058C130.833 60.4951 131.056 60.4507 131.279 60.54L130.788 60.6738C133.196 60.7632 135.917 59.959 138.191 59.2891C138.235 59.2891 138.28 59.2891 138.324 59.2891C138.146 59.6016 136.719 60.3613 136.318 60.7632L134.088 62.4609L131.145 64.2485C131.011 64.3823 131.234 64.4717 131.323 64.4272C133.954 63.1763 135.337 62.4609 137.745 60.6294C138.414 60.1377 139.127 59.6016 139.885 59.1997C142.07 58.0381 140.465 58.6187 142.561 57.8594C147.064 56.251 147.689 55.8042 151.747 53.123L155.671 50.7104C156.072 50.4873 158.658 48.7896 158.97 48.8789L155.582 51.2915C153.575 52.9893 151.568 54.687 149.472 56.2954L147.912 57.502C146.842 58.3955 145.548 59.3784 144.344 60.0483C144.255 60.0933 144.21 60.1826 144.121 60.1826C143.809 60.2271 143.051 60.7632 142.784 60.9419L140.554 62.0142C139.662 62.4609 140.197 62.5503 140.42 62.4609C142.204 61.7017 142.65 61.478 144.344 60.54C147.466 58.7974 149.116 57.5913 151.969 55.4019C152.326 55.1338 152.683 54.7764 153.084 54.5527C153.53 54.3296 156.072 52.0508 156.696 51.5596C158.123 50.3979 159.595 49.415 161.2 48.5659L161.691 48.3428C161.512 48.6108 161.245 48.7002 160.977 48.8789C157.588 51.3359 156.785 52.0957 153.976 55.3125C153.352 56.0273 152.371 57.6357 151.836 58.5293C151.39 59.2891 150.766 60.4507 150.008 60.9419C149.695 61.1655 147.956 62.7739 147.154 63.2656C145.727 64.2036 144.3 65.3208 142.739 66.0801L140.019 67.376C138.324 68.2246 138.636 68.0459 136.719 68.6714C135.961 68.9395 135.025 69.3418 134.222 69.4312L133.509 69.6543C133.464 69.6543 133.464 69.6992 133.419 69.7437C133.642 69.833 133.91 69.6992 134.222 69.7437C134.4 69.7886 136.808 68.9395 137.299 68.8057C138.726 68.4033 140.643 67.7334 141.981 67.1973C144.3 66.3037 146.44 64.9634 148.358 63.3994C148.536 63.2656 148.759 62.9976 149.027 62.9976C149.071 63.3994 147.555 65.6782 147.109 66.1694C145.86 67.5991 144.434 68.8057 143.007 70.0566C142.026 70.9502 140.331 71.978 139.172 72.6929C138.949 72.8267 139.083 73.1396 139.528 72.8716C140.51 72.2461 141.401 71.7544 142.293 70.9502C145.147 68.5376 146.886 67.1079 149.071 63.9805C149.562 63.2656 150.81 61.478 151.479 60.9868C152.237 60.4507 155.448 57.457 156.161 56.7422C156.34 56.5635 156.473 56.3403 156.652 56.2061C158.346 54.6421 159.684 52.7212 161.468 51.2021C161.512 51.1572 165.213 48.2534 165.258 48.2979C165.302 48.4321 164.812 48.9683 164.678 49.3701C164.277 50.2637 163.92 51.1572 163.563 52.0957C163.474 52.2744 163.296 52.4976 163.43 52.7212L162.895 53.5254C162.092 54.7314 161.914 55 161.289 56.1616C160.487 57.6357 159.193 59.6909 158.212 61.0762C158.123 61.21 157.99 61.3442 157.9 61.478C157.41 62.3716 154.913 65.0527 154.065 66.0356C152.103 68.314 151.033 69.2524 148.625 71.0396C148.135 71.397 147.644 71.7544 147.109 72.0225C146.752 72.1567 146.931 72.5586 147.287 72.3354C149.829 70.7715 151.791 69.1182 153.932 67.0186C156.652 64.3379 157.009 63.6675 159.104 60.6294L161.958 56.519L162.27 56.0723C162.226 56.5635 161.869 57.0103 161.869 57.502L161.512 58.7529C161.334 59.5571 161.289 60.4058 161.156 61.21C161.111 61.3442 160.888 61.2549 160.843 61.3887L159.015 64.1592C156.429 67.7334 153.174 70.9951 149.517 73.4077C149.294 73.5415 149.339 73.8989 149.606 73.7202C151.211 72.6035 152.906 71.1738 154.422 69.833C156.027 68.4033 157.454 66.8843 158.926 65.2759L160.665 63.355C160.709 63.355 160.71 63.355 160.754 63.355C160.799 63.7568 160.175 64.874 160.264 65.0972C160.353 65.4546 159.506 66.4824 159.193 66.9292C158.257 68.3589 156.875 70.3691 155.715 71.4863C155.225 71.978 154.779 72.5586 154.244 73.0054C153.932 73.2734 153.709 73.5864 153.352 73.8096C152.683 74.2563 152.416 74.7031 151.122 75.5073C148.893 76.8477 148.625 77.1606 146.173 78.2773C145.86 78.4116 146.083 78.769 146.44 78.5903C147.332 78.1436 150.32 76.6245 150.989 76.1777C153.53 74.4351 155.135 73.0054 157.098 70.7271C158.435 69.2075 158.257 69.1631 159.862 68.1353C159.907 68.0908 159.951 68.0908 159.996 68.0908C159.996 68.4927 159.417 70.4141 159.193 70.9502L158.079 73.7202C157.543 75.418 156.964 76.2222 155.938 77.6519C155.671 78.0093 155.983 78.0986 156.161 77.8755C157.142 76.5796 157.543 75.6416 158.212 74.6138C159.639 72.5142 160.754 69.7437 161.066 67.2417C161.111 66.8843 162.092 66.125 162.36 65.812C165.927 62.0142 167.666 58.2168 170.342 53.8379C170.475 53.6147 170.787 53.4805 171.01 53.436C171.055 53.6592 170.609 56.0273 170.52 56.4297C170.386 56.8315 170.52 56.8315 170.475 57.0996C170.386 57.6807 170.297 58.3506 170.118 58.9316C169.896 59.5122 169.093 63.042 169.004 63.5337C168.87 64.4272 168.647 65.1421 168.602 66.125C168.558 66.8843 168.112 67.4653 167.755 68.0908C166.061 71.0396 166.284 70.9951 163.92 73.4077C162.27 75.1055 161.289 76.0435 159.372 77.3394C159.104 77.5181 159.104 78.0093 159.461 77.6968C160.085 77.2051 160.977 76.4009 161.735 76.0884C162.136 75.9097 163.831 74.48 164.277 74.0776C166.908 71.3525 167.666 69.0288 168.29 68.314C168.424 69.1631 167.978 71.0396 168.112 71.978C168.156 72.3354 167.934 73.1841 167.978 73.7202C168.023 74.9712 168.156 76.5796 168.067 77.7861L168.067 79.6182C168.112 79.9307 168.469 79.9307 168.469 79.6182L168.335 74.3457C168.379 72.5586 169.004 69.9673 169.36 68.0908L169.762 66.4824C170.208 64.5166 169.717 65.1421 170.921 64.2485C171.768 63.5781 172.616 62.8633 173.552 62.3271C173.686 62.2378 173.686 62.4165 173.686 62.5059C173.686 62.9976 173.686 63.5337 173.73 64.0249C173.73 64.2036 173.686 64.3379 173.597 64.4272C173.195 64.7847 172.839 65.1865 172.482 65.5439C172.214 65.7676 172.482 66.2588 172.705 65.9463C172.972 65.5439 173.374 65.1865 173.73 64.9185C173.82 65.0972 173.285 65.4995 173.151 65.6333C172.526 66.3037 171.01 67.9565 170.297 68.3589C170.118 68.4927 169.494 68.7163 169.583 68.9844C169.673 69.1631 170.074 68.8057 170.921 68.2246L173.641 66.2588C173.82 66.125 173.73 66.5718 173.73 66.6611L173.597 70.2354C173.552 70.9951 173.329 74.3457 173.151 74.9712C172.393 77.8306 172.036 79.3052 170.342 81.8521C169.717 82.835 169.182 83.8623 168.469 84.7559C168.156 85.1133 166.284 87.7051 166.284 87.9282C166.284 88.0176 166.328 88.1069 166.373 88.1519C166.729 87.9731 166.908 87.6157 167.176 87.3477C169.316 85.0239 170.029 83.7729 171.545 81.1816C172.036 80.3774 172.526 79.5288 172.928 78.6353C173.73 76.6245 173.73 75.5073 174.043 74.5244C174.31 73.8096 174.31 72.5142 174.489 71.665C174.667 70.8608 174.622 69.9224 174.711 69.1182C174.845 68.0015 174.979 66.8398 174.89 65.6782C174.89 65.3652 175.693 64.6953 175.916 64.4717C176.986 63.355 177.298 63.0869 178.413 62.1035L182.025 58.6187C182.069 58.6187 182.069 58.6187 182.114 58.5742C182.069 58.8423 181.668 59.3335 181.534 59.6465C181.4 59.959 181.311 60.3164 181.133 60.6294C180.598 61.7461 180.285 62.9976 179.795 64.1143L178.725 66.5718C178.546 67.063 178.19 68.0908 177.788 68.4033C177.521 68.627 177.833 68.8057 177.699 69.0737C177.03 70.3691 176.406 71.665 175.96 73.0503C175.871 73.3184 176.228 73.4521 176.317 73.1396C176.584 72.0674 177.432 70.1011 177.922 69.0737C178.101 68.6714 178.368 68.314 178.68 68.0459C179.394 67.4204 179.884 66.4375 180.509 65.7227C180.999 65.1421 182.872 63.1763 183.451 62.8633C183.407 63.5781 180.821 67.0186 180.375 67.4653L178.19 69.6992C177.877 70.0566 178.234 70.1011 178.413 69.8779L181.311 66.7949L183.229 64.561C184.031 63.623 183.987 63.3994 184.21 64.606C184.254 64.9634 184.656 66.4375 184.477 66.7505C183.541 68.0015 181.846 70.0566 180.776 71.1289C178.725 73.1396 178.502 73.2734 176.138 74.9268C175.603 75.2842 175.871 75.5073 176.094 75.3735C177.967 74.0776 180.419 72.2012 182.069 70.6377C182.56 70.146 184.12 68.4033 184.566 68.1802C184.789 68.0459 184.789 68.8501 184.834 69.3862C184.878 69.5649 184.7 69.6543 184.656 69.833C183.897 72.2461 182.917 74.748 181.668 76.937C180.509 78.9927 179.215 80.9136 177.476 82.5669C176.852 83.1475 176.896 83.5942 177.253 83.1924C178.948 81.584 178.635 82.0752 180.196 79.9307C181.311 78.4116 182.292 76.7583 183.229 75.1055L184.388 72.9609C184.522 72.7373 184.656 72.2905 184.878 72.1118C185.057 72.4692 184.7 75.8203 184.611 76.2222C184.388 77.2944 184.165 79.1714 183.63 80.1094C183.585 80.1543 183.585 80.2437 183.541 80.2881C183.318 81.3159 182.56 82.4775 182.114 83.4155C181.49 84.7114 181.712 84.5771 180.865 86.0962C180.642 86.4985 179.795 87.5264 179.973 87.9282C180.062 88.1963 180.196 88.0625 180.285 87.8838C181.846 85.4707 182.069 85.3813 183.496 82.522C184.21 81.1372 184.968 78.8584 185.28 77.3394C185.592 75.8203 185.949 72.2461 185.77 70.8164C185.636 69.7437 186.305 68.6714 186.662 67.6885C186.751 67.4204 186.841 67.1079 186.93 66.7949C187.153 66.3037 187.732 64.9185 188.044 64.561C188.223 64.293 188.446 65.2314 188.535 65.5439C188.624 65.812 188.178 66.3931 188.089 66.6611C187.777 67.9121 187.732 67.7334 187.599 69.0288C187.554 69.3862 187.51 69.7437 187.153 70.0117C187.019 70.1011 185.681 71.3076 185.859 71.5312C186.083 71.7544 187.153 70.4141 187.42 70.2354C187.51 70.6821 186.885 73.3628 186.707 74.0332C186.127 76.1328 185.815 78.3223 185.369 80.4224C185.235 81.0923 184.611 82.4326 184.7 82.7007C184.745 82.9688 184.968 82.7456 185.057 82.6562C185.503 81.8521 185.949 81.0923 186.305 80.2437C187.376 77.6968 187.599 75.3286 187.822 72.6479C187.911 71.665 188.178 70.6821 188.401 69.6992C188.49 69.3418 188.981 69.2075 189.249 69.1182C189.561 68.9844 189.516 69.3418 189.739 70.1904C190.408 73.4971 190.274 73.5415 190.274 76.5352C190.274 77.1606 189.828 80.333 189.65 81.0479C189.471 81.7627 189.561 82.6562 189.07 84.1753C188.713 85.292 188.446 87.4814 187.955 88.375C187.777 88.6431 187.51 89.0454 187.554 89.3579C187.599 89.626 187.911 89.3579 187.955 89.2241C188.535 88.0176 188.936 87.3921 189.471 86.0068C190.185 84.0859 190.586 82.1201 190.988 80.1094C191.344 78.188 191.255 73.8545 191.077 71.8438C191.032 71.5312 190.943 71.2183 190.943 70.9058C190.898 70.1011 190.809 69.2969 190.586 68.4927C190.452 68.0015 190.898 68.1353 191.478 67.5991C192.415 66.7949 193.485 66.1694 194.376 65.2759C195.491 64.1143 197.721 61.8804 198.479 60.54C199.505 58.6636 200.174 56.5635 200.664 54.5083C200.798 54.0615 200.753 53.436 200.932 53.0337C201.199 53.168 201.288 53.3018 201.601 53.2573C202.046 53.168 202.359 53.3018 202.76 53.3467C204.142 53.6147 204.767 54.5083 205.703 54.4634C205.748 54.4634 205.748 54.5083 205.792 54.5083C205.569 54.687 204.41 54.8657 201.734 57.7251C200.932 58.6187 200.307 59.6465 199.549 60.6294C198.88 61.478 199.46 61.4336 199.594 61.21C199.861 60.54 203.25 57.0996 203.964 56.4297C204.321 56.1167 205.792 54.8208 206.193 54.7764C206.149 55 205.212 55.8486 204.856 56.3403C203.652 57.8594 202.492 59.3784 201.377 60.9868C201.021 61.478 199.416 63.7568 199.103 64.0249C198.435 64.6504 196.963 67.1973 196.517 68.0908C196.16 68.7607 195.402 70.7271 195.224 71.5312C195.179 71.7544 195.491 71.665 195.581 71.397C196.25 69.5649 199.371 64.293 200.664 62.5059C201.422 61.478 202.046 60.4507 202.894 59.4678C203.607 58.708 206.506 55.0444 207.13 54.7314C207.13 55.1338 205.302 60.8975 205.212 61.1206C204.633 62.8633 202.983 66.7505 202.046 68.4482C200.664 71.0396 199.995 71.7993 198.479 74.0332C197.721 75.1055 197.364 75.5967 196.428 76.5796C196.16 76.8477 194.376 78.0542 195.224 78.0542L196.874 76.6245C197.364 76.2671 197.989 75.3735 198.435 74.8818C199.861 73.3628 201.913 69.5649 202.804 67.5547C204.098 64.7397 206.506 60.8525 207.13 57.8594C207.71 55.0894 207.531 54.5083 208.022 57.9038C208.2 59.1104 208.2 62.3271 208.066 63.5337C207.933 65.0972 207.888 66.7056 207.665 68.2695C207.665 68.4033 207.397 69.3418 207.754 69.3862C208.022 69.3862 208.869 67.1079 208.958 66.8843C209.583 65.0078 209.805 63.7124 209.627 61.7017C209.449 59.3335 208.958 57.7251 208.245 55.4912C208.022 54.8208 207.576 54.5977 209.181 54.8657C210.608 55.0894 210.251 55.2681 211.099 55.4468L212.302 55.9829C213.373 56.9658 214.22 54.3296 214.532 53.8828C215.112 52.9893 215.29 52.7656 215.156 51.6489C215.112 51.2021 214.488 51.5596 214.354 51.2021C214.22 50.7554 213.551 51.1128 212.927 50.8447C212.481 50.666 212.035 50.9341 211.544 50.7998C211.901 50.3979 211.544 50.3979 212.526 50.0405C213.729 49.5938 214.443 49.2808 215.692 48.9233C217.431 48.4766 218.144 48.3428 219.883 48.0747L223.317 47.5386C223.763 47.4492 223.361 47.0918 223.049 47.1362L219.66 47.4043C217.921 47.2256 213.551 48.8789 213.373 48.8789C213.462 48.6553 215.736 47.2705 216.048 47.0918C217.431 46.2427 219.17 45.7065 220.73 45.3042C223.272 44.6343 227.464 42.7129 229.827 41.1938C231.522 40.0771 233.439 39.0044 234.777 37.4409C235 36.6812 235.044 36.5918 235 36.5024ZM182.515 43.6064C181.935 43.4277 181.356 43.2046 180.776 43.0259C179.082 42.8916 177.476 42.5342 175.916 42.0874C176.049 41.8193 176.406 41.5068 176.674 41.5513C177.298 41.6406 178.635 41.9536 179.126 41.73C179.973 41.3281 181.579 40.9258 182.426 39.9878C183.63 38.647 184.7 36.0557 185.681 36.0557L184.566 38.3789L183.675 40.7471L182.515 43.6064ZM200.664 52.5869C199.906 55.4468 200.174 54.9551 198.836 57.6807C198.836 57.6807 198.836 57.6807 198.791 57.6807C196.74 61.478 195.982 62.5503 192.682 65.2759C192.325 65.5439 191.79 66.1694 191.3 66.3037C191.344 66.125 193.173 63.623 193.351 63.5337C193.663 63.4443 195.893 58.9761 195.937 58.9316C196.383 57.9487 196.74 57.0103 197.052 56.0273C197.364 55.0444 197.409 55.0444 198.167 54.2847C198.301 54.1509 200.798 51.7383 200.709 52.2744C200.709 52.3638 200.664 52.4531 200.664 52.5869ZM189.338 66.8843C189.338 66.8398 189.382 66.8398 189.382 66.8398C189.873 67.7778 188.981 68.0015 189.026 67.9121C189.115 67.5098 189.249 67.1973 189.338 66.8843ZM185.904 66.7505C185.904 66.3931 186.841 65.4102 186.083 66.7949C186.038 66.8398 185.993 66.9292 185.949 66.9736C185.949 66.9292 185.904 66.8398 185.904 66.7505ZM181.534 63.3994C181.043 63.9805 179.304 66.3037 178.992 66.5269L179.349 65.7676L181.043 62.3716L182.961 58.7529C183.139 59.021 183.719 60.8081 183.541 61.0312L181.534 63.3994ZM178.859 60.4058C178.502 60.9419 175.603 63.4443 174.979 63.9805C174.801 64.1143 174.801 63.1763 174.979 62.9976C177.209 60.5845 179.527 58.2168 181.846 55.8936C182.025 55.7148 182.203 56.3403 182.248 56.4741C182.426 56.9658 179.26 59.8252 178.859 60.4058ZM174.756 62.4609C174.711 61.8804 174.444 61.1655 174.845 60.9868C175.603 60.5845 180.954 54.4189 181.222 54.2847L181.712 55.1787C181.802 55.3574 181.802 55.3574 181.623 55.5361C179.483 57.5913 177.253 59.6465 175.38 61.9697C175.247 62.1484 175.068 62.4609 174.845 62.5503C174.801 62.5059 174.756 62.4609 174.756 62.4609ZM173.552 55.6255L173.463 57.7251C173.508 60.5845 174.221 60.0483 172.348 61.8354C169.628 64.4272 170.118 64.561 170.877 60.1826C171.412 57.0996 171.858 55.1787 172.66 52.2295C172.794 51.8276 173.641 51.5146 173.998 51.3809C173.998 51.5146 173.508 54.5527 173.552 55.6255ZM170.475 52.0508C169.271 53.9722 168.379 56.0273 167.176 57.9038C166.596 58.7529 166.15 59.6909 165.526 60.4951C163.965 62.5503 163.296 63.4888 161.423 65.3652C161.378 65.4102 161.378 65.4102 161.334 65.4102C161.2 65.0527 161.691 64.4717 161.646 64.293C161.557 64.0698 162.583 62.3271 162.85 61.7461C163.385 60.6294 163.831 59.4678 164.277 58.3062C164.634 57.3232 168.156 53.0786 168.825 52.4531C169.494 51.8721 171.367 49.7275 171.991 49.3257C171.991 49.4595 170.654 51.7383 170.475 52.0508ZM164.322 47.2256C164.232 47.3599 163.028 48.0298 162.092 48.834C160.665 50.085 159.149 51.2915 157.811 52.6318C157.588 52.855 154.556 55.9829 154.377 56.0723C154.556 55.3125 157.098 52.8999 157.811 52.0508C159.283 50.353 162.27 48.2979 164.277 47.2256L164.322 47.2256ZM159.907 46.6445L155.046 49.3257L151.613 51.4253C150.632 52.0508 149.695 52.7212 148.714 53.3018C146.574 54.5527 145.459 55.2681 143.14 56.251C142.249 56.6084 148.358 52.4976 149.918 51.5596C153.084 49.5938 156.117 48.1191 159.55 46.7339L159.907 46.6445ZM160.71 46.3765C160.754 46.4214 160.531 46.4214 160.531 46.4214C160.576 46.3765 160.665 46.2871 160.71 46.3765ZM145.994 46.6445C144.478 46.7788 144.166 47.0024 142.382 47.0918C141.847 47.1362 137.923 47.3599 138.28 47.1362C142.026 44.7236 142.293 45.1255 145.637 43.7407C148.268 42.6235 151.836 42.2661 154.69 42.2217C158.302 42.1768 160.754 42.6685 164.232 43.3384L166.284 43.7852C166.239 43.9194 166.194 44.0532 166.284 44.1875C161.78 43.4727 159.818 44.2769 155.492 44.9917L148.045 46.2871L145.994 46.6445ZM162.895 34.0898C163.162 34.0005 163.118 33.5537 164.589 34.5366C164.634 34.5815 167.666 36.3237 166.729 36.3687C165.971 36.4131 166.016 36.0557 165.436 35.9219C163.296 35.3857 163.519 34.7153 162.85 34.2241C162.761 34.0898 162.805 34.0898 162.895 34.0898ZM164.232 28.8623C164.232 28.8179 164.232 28.7285 164.277 28.6836L164.277 28.3711C164.634 28.5498 165.347 28.9072 165.57 29.2646C165.615 29.3091 165.615 29.5327 165.526 29.5327C165.526 29.5327 165.526 29.5327 165.526 29.5771L165.347 29.6221C165.035 29.8008 164.589 29.3984 164.366 29.1753C164.232 29.0859 164.232 28.9517 164.232 28.8623ZM163.742 30.7388C163.831 31.1855 163.073 31.1411 164.143 32.2583C164.411 32.5264 163.207 31.6328 162.047 31.6772C161.245 31.7222 160.799 30.9175 160.085 30.7837C159.372 30.605 160.085 29.5327 160.308 29.2646C160.71 28.7729 160.308 28.2817 160.219 27.79L160.308 27.6562C160.442 27.2095 160.487 27.2095 161.022 27.2539C161.914 27.3433 162.449 28.4604 163.162 29.3984C163.43 29.7559 163.653 30.2026 163.742 30.7388ZM167.8 25.8691C167.621 26.0479 168.067 26.1372 167.086 25.7349C166.194 25.3774 166.685 25.5562 165.793 25.7798C165.615 25.8242 164.634 25.5117 164.188 25.6904C163.474 25.9585 162.716 25.8242 162.805 25.2437C162.939 24.3945 161.914 24.3945 161.869 23.8584C161.824 22.6074 161.468 23.9478 163.519 23.0093C163.653 22.9199 163.965 22.6519 164.5 22.9199C164.188 23.0986 164.232 23.4116 164.232 23.4561C165.258 23.9478 163.697 23.6797 164.678 24.0371C165.659 24.2158 166.15 24.6182 167.176 24.9756C167.265 25.02 167.71 25.02 167.755 25.1094C167.755 25.1094 167.488 25.333 167.443 25.333C166.729 25.1987 167.889 25.7798 167.8 25.8691ZM168.513 23.6797C168.335 23.8584 168.156 23.4116 167.398 23.0986C166.997 22.9648 167.22 22.5181 167.042 22.2944C166.774 21.937 166.64 21.2222 166.462 20.8647C166.284 20.418 167.354 20.6416 167.488 20.7754C168.112 21.2671 168.825 20.4629 169.271 21.2671C169.539 20.999 170.297 22.1606 170.386 22.4287C170.431 22.5625 170.252 22.5625 170.252 22.6968C170.297 23.6353 169.539 23.814 168.87 23.5903C168.781 23.5459 168.647 23.5459 168.513 23.6797ZM168.29 17.7373C165.927 17.0674 167.532 14.7886 167.577 14.7886C167.621 14.833 170.386 15.6377 170.743 16.6206C170.832 16.8438 170.475 16.71 170.609 16.8438C171.768 18.1396 172.437 18.8096 172.303 20.1948C172.482 20.5073 172.482 20.999 172.214 20.7754C172.259 21.2222 172.17 21.3564 171.947 21.3115C170.743 19.4351 171.412 20.2842 169.896 18.9883C169.539 18.6758 168.781 17.8716 168.29 17.7373ZM171.991 13.5376C171.858 13.2695 171.233 13.2695 171.144 12.8228C170.966 11.7056 171.456 11.2588 170.966 10.5889C170.564 10.0078 172.17 10.6333 172.259 10.7676C172.526 11.1694 172.437 11.3931 172.883 11.7949C173.151 12.063 173.374 12.8672 173.285 13.0015C173.418 13.2246 172.705 12.8228 172.526 12.9565C172.482 13.0015 172.66 13.1353 172.393 13.2695C172.214 13.3589 172.616 14.1631 172.928 14.3862C173.062 14.5205 173.285 14.5649 173.151 14.7437C173.73 15.3691 173.017 14.8779 173.106 15.3691C173.151 15.6377 172.616 15.5034 172.75 15.7715C172.839 15.9502 172.705 16.0845 172.482 16.1289C172.17 15.0117 172.75 15.146 171.991 13.5376ZM176.317 25.1987L177.253 26.6284C177.521 27.0752 176.896 27.0308 177.119 27.1201C177.298 27.2095 176.896 27.2539 176.941 27.2988C177.119 27.6113 176.807 27.1201 176.718 27.5669C176.674 27.79 176.852 27.835 176.807 27.9243C176.584 28.2817 177.075 28.5498 177.075 28.7729C176.807 28.7285 176.807 28.4155 176.406 28.7285C176.228 28.8623 176.495 29.0859 176.049 28.8623C175.96 28.8179 175.871 28.7729 175.916 28.6836C175.782 28.5498 175.782 28.3262 175.603 28.2368C175.603 28.2368 173.418 25.4668 173.195 25.3774C172.526 24.9756 173.062 24.752 171.991 24.2607C171.858 24.2158 171.724 24.1714 171.768 23.9478C171.501 23.5903 172.75 22.7412 173.418 22.7412C173.82 22.6968 175.247 21.937 175.336 22.8306C175.247 22.9199 176.183 24.752 176.317 25.1987ZM175.96 14.6099C176.094 14.3862 176.451 13.7607 176.629 13.582C177.075 13.2246 177.075 12.063 178.368 13.1353C178.546 13.2695 177.788 14.5205 177.565 14.5205C177.521 14.5205 177.298 14.0288 176.674 14.2969C176.406 14.4312 176.361 14.2524 176.272 14.3418C176.228 14.5649 175.916 14.7437 175.96 14.6099ZM183.541 16.2632C183.897 16.397 184.12 16.5757 184.388 16.8887C185.012 17.6479 185.815 17.2012 184.388 18.0054C184.21 18.0947 184.165 18.5864 184.165 18.5864C184.031 19.5693 183.451 19.0776 182.604 19.7925C182.025 20.2842 181.712 19.167 180.776 19.4351C180.598 19.48 179.438 20.9097 179.349 21.0884C179.171 21.4009 178.814 22.3838 178.859 21.7139C178.903 21.7139 178.903 21.4458 178.903 21.4009C178.725 21.1777 178.68 19.9712 178.903 19.7031C179.483 18.9438 179.215 17.5142 180.018 16.7544C180.464 16.397 181.133 16.1738 181.668 16.0396C181.623 15.9502 181.534 15.6821 181.712 15.7715C181.935 15.8608 182.693 15.8608 182.381 16.2183C182.426 16.2632 182.47 16.3525 182.515 16.397C183.318 17.5586 182.827 16.0396 183.541 16.2632ZM182.47 30.3369C182.248 30.4707 182.47 30.292 182.248 30.2476C182.114 30.2026 182.114 30.2026 182.203 30.1133C182.248 30.0239 181.49 29.9346 182.158 29.6665C182.381 29.5771 182.203 29.1753 182.604 28.8623C182.738 28.7285 183.095 28.103 183.541 27.7007C185.726 25.8691 185.057 26.9414 185.993 26.8965C187.465 26.8965 186.93 27.2539 186.35 28.1924C186.439 28.3262 186.484 28.4604 186.484 28.4155L186.439 29.5327C186.35 30.873 185.414 30.292 184.611 30.6494C184.076 30.9175 183.897 30.5156 183.05 29.9795L182.47 30.3369ZM180.419 27.4326C180.731 27.0308 180.375 27.2988 180.865 26.6284C180.731 26.4053 181.043 25.9136 181.177 25.6904L182.783 23.0986C183.05 22.7412 183.942 21.8032 184.477 21.7139C184.611 21.7139 185.28 22.2051 185.324 22.2944C185.86 22.7861 186.751 22.3838 187.331 22.7412C187.376 22.7861 187.688 23.814 187.554 24.082C187.465 24.2158 187.019 24.1714 187.153 24.4395C187.331 24.752 187.465 24.8413 187.019 25.1094C185.191 26.1372 183.407 25.6904 183.006 25.8691C182.872 26.0479 182.515 26.271 182.337 26.4053C181.757 26.8521 181.846 27.2095 181.133 28.0137C180.687 28.5049 180.196 29.5771 179.706 28.7285C179.84 28.5049 180.241 28.1924 180.196 27.9243C180.196 27.7456 180.285 27.6113 180.419 27.4326ZM182.961 32.9282C183.407 32.7495 183.942 32.437 184.388 32.3477L184.388 32.3921C186.528 31.7222 186.083 31.856 187.019 32.7944C186.974 32.9282 186.885 33.0625 186.841 33.2412L186.662 33.1963C186.305 34.4028 185.949 33.7773 184.834 35.0728C184.477 35.4751 184.254 36.458 183.764 36.5024C181.712 36.8599 182.381 37.1729 181.043 36.5474C181.668 37.5747 180.553 36.9492 180.107 36.3687C178.502 36.3687 179.84 36.1899 178.725 36.458C178.769 36.3237 179.617 34.7603 179.84 35.0283C180.196 34.894 180.731 34.3135 181.267 34.0005C181.267 34.0005 181.267 34.0005 181.222 34.0005C181.356 33.8218 181.668 33.7324 181.802 33.6431C181.846 33.4199 182.693 33.0625 182.961 32.9282ZM191.746 27.9243C190.007 33.7773 191.612 31.2305 189.159 32.7944L188.58 33.0176C188.624 32.7495 189.026 32.5708 189.561 31.8115L190.676 30.0239C190.988 29.7559 190.72 29.5327 190.854 29.3091C191.077 28.9072 191.478 28.0581 191.746 27.7456C191.746 27.79 191.746 27.835 191.746 27.9243ZM194.6 43.0259C194.644 43.4727 195.001 45.8853 194.287 45.8403C193.173 45.751 192.86 45.6172 191.835 45.1704C191.835 45.1704 191.835 45.1704 191.835 45.1255C191.701 45.0811 190.943 44.813 191.121 44.6787C191.79 44.0532 192.236 44.0088 191.434 43.8745C190.051 43.6958 194.287 40.6133 194.332 40.6577L194.6 43.0259ZM189.204 60.3164C189.561 59.5122 191.656 56.2954 192.147 55.6255C192.415 55.2681 194.6 52.2295 194.956 52.1401C194.956 52.4082 194.689 52.8105 194.555 53.0337C193.663 54.687 192.504 56.2061 191.523 57.8145C191.121 58.4849 188.802 61.8804 188.892 61.3887C188.936 61.0312 189.026 60.6738 189.204 60.3164ZM187.866 58.8867C188.357 58.4399 189.516 57.2783 190.007 57.0552C189.828 57.502 188.847 58.6636 188.535 59.2891L188.178 59.9146C188.044 59.7358 187.643 59.0654 187.866 58.8867ZM194.198 51.604C194.555 51.2915 194.644 50.9341 195.09 51.1128C195.135 51.1572 195.224 51.2021 195.268 51.2466C192.682 53.8379 191.21 55.0894 188.357 57.189L188.134 57.2783C188.178 57.0552 190.676 54.7314 190.988 54.4634L194.198 51.604ZM191.434 50.1299C191.344 49.7725 192.727 50.2192 192.905 50.2637C193.039 50.3086 194.154 50.7104 193.886 50.9341L189.07 55.2231L190.408 51.6934C190.765 50.4873 190.542 49.9956 191.166 50.353C191.344 50.4424 191.523 50.3086 191.434 50.1299ZM185.77 55.5806C185.503 55.2231 186.35 54.374 186.841 53.7485L187.688 52.8105C188.044 52.3188 189.338 51.1572 189.873 50.7998C189.873 51.0234 189.739 51.2021 189.605 51.3809C188.936 53.0337 188.178 54.6421 187.376 56.251L186.841 57.2339C186.662 57.2339 185.904 55.8486 185.77 55.5806ZM183.853 58.1719C183.675 57.7251 184.477 56.6528 184.878 56.4741C186.172 58.2612 186.127 57.9487 185.191 59.1104C184.031 60.54 184.611 60.0039 183.853 58.1719ZM182.025 54.374L181.802 53.8379C182.56 53.0337 182.292 53.2573 183.006 53.8828C183.318 54.1509 182.649 54.5527 182.426 54.687C182.203 54.9102 182.114 54.5527 182.025 54.374ZM181.133 52.6318C180.821 52.1401 180.687 52.1851 181.177 51.8276L181.222 51.8276C181.4 52.0063 181.935 52.4976 181.668 52.7212C181.356 53.0337 181.356 53.0337 181.133 52.6318ZM180.152 52.855C180.375 52.6763 180.553 53.123 180.687 53.3018C180.999 53.7485 180.285 54.106 180.062 54.5083C179.884 54.8208 179.26 55.2681 178.992 55.7148C178.68 56.2061 177.209 57.6807 176.718 57.9487L176.896 57.5913L176.852 57.5913C177.699 56.1616 178.814 53.8828 180.152 52.855ZM172.928 51.3809C173.24 50.4873 173.641 49.7275 173.998 48.834C174.132 48.834 174.533 48.5659 174.444 48.8789C174.043 51.1572 174.444 50.7998 173.017 51.4702C172.972 51.4702 172.928 51.4702 172.883 51.5146C172.928 51.4702 172.883 51.4253 172.928 51.3809ZM171.724 48.2085C171.635 48.2979 170.876 48.3872 170.743 48.3872C170.876 48.1191 172.214 47.3599 172.482 47.4043C172.526 47.4043 172.616 47.4043 172.66 47.3599C172.482 48.1641 172.17 47.7617 171.724 48.2085ZM166.729 51.8721C166.952 51.3359 169.227 49.3257 169.673 49.3257C172.437 49.147 169.896 48.9683 165.793 54.4634L165.615 54.6421C165.615 54.374 166.551 52.2295 166.729 51.8721ZM168.112 47.7173C168.246 47.583 168.469 47.3149 168.647 47.2705C168.602 47.4492 167.666 48.9683 167.532 48.9683C166.239 49.3701 167.934 47.9404 168.112 47.7173ZM169.048 45.5723C169.182 45.4829 170.163 45.4385 169.851 45.7065C168.246 47.0469 166.551 48.2979 165.258 49.9512C165.258 49.9512 165.213 49.9512 165.169 49.9956C165.08 49.6831 166.507 47.0469 167.443 46.4214L169.048 45.5723ZM166.819 44.9468C167.265 44.9023 167.354 44.8574 167.755 45.0361C167.398 45.0811 165.436 45.4829 165.258 45.4385L165.258 45.3936C165.749 44.9917 166.239 45.0361 166.819 44.9468ZM164.411 36.0557C164.455 36.0112 164.5 35.9663 164.544 36.0112C164.5 36.0112 164.455 36.0557 164.411 36.0557ZM173.017 37.8428C174.221 38.0664 173.82 38.5132 173.998 38.7363C174.31 39.1831 174.132 38.8706 174.087 39.228C174.043 39.7642 172.883 39.1831 171.233 39.541C171.233 39.541 169.494 39.8984 169.896 39.6304L169.806 39.541C169.36 39.9429 169.137 38.7363 168.558 38.0664C167.889 37.2622 168.825 37.0835 168.825 37.0835C169.673 37.3066 169.806 37.7534 171.679 37.7534C172.125 37.7534 172.571 37.7534 173.017 37.8428ZM178.769 36.9492C179.037 36.9941 181.088 37.4854 181.267 37.396C181.356 37.3516 182.649 37.3066 180.776 37.9321C179.973 38.2002 179.795 39.6304 178.234 39.9429C177.967 39.9878 177.164 39.0938 176.54 39.1831C176.094 39.2725 174.132 39.0493 175.559 38.3345C176.852 37.6641 176.896 37.1279 178.769 36.9492ZM173.73 47.583C173.953 47.4043 174.221 47.1807 174.489 47.0918C174.444 47.7617 173.418 47.8066 173.73 47.583ZM175.202 47.2705C175.693 45.8853 176.406 47.0469 176.272 47.0918C176.138 47.1362 175.068 47.5386 175.202 47.2705ZM170.832 40.479C172.928 41.0601 171.902 41.0151 173.953 40.6577C175.559 40.3896 174.31 41.2832 173.82 41.6406C172.348 41.2832 171.01 40.9707 170.074 40.792C170.163 40.7471 171.055 40.0771 170.787 40.4346C170.743 40.4346 170.787 40.479 170.832 40.479ZM168.067 44.9023L168.156 44.9468C168.112 44.9023 168.112 44.9023 168.067 44.9023ZM172.616 46.3765C170.609 47.2705 172.125 46.8682 170.074 46.9126C169.405 46.9575 170.52 46.3765 170.118 46.1533C169.985 46.064 170.297 45.9297 170.431 46.019C171.01 46.3765 172.303 46.064 172.526 46.064C172.66 46.1533 172.794 46.1978 172.928 46.1978C172.839 46.2871 172.705 46.332 172.616 46.3765ZM168.513 48.9233C168.469 48.9233 168.379 48.9233 168.335 48.8789L168.424 48.6553C169.896 46.6445 169.271 47.2705 170.118 47.3149C171.412 47.4492 169.985 47.7173 168.959 48.6553C168.825 48.7896 168.692 48.9233 168.513 48.9233ZM178.279 49.1914C178.323 49.2363 178.323 49.3257 178.234 49.3257C177.61 49.5488 174.89 50.7554 174.444 50.8447C174.399 50.4873 174.711 48.6553 175.068 48.5659C177.521 48.0298 176.941 47.583 178.279 49.1914ZM178.635 49.0127L178.502 48.9233C178.591 48.8789 178.591 48.9233 178.635 49.0127ZM188.134 49.1914C188.223 49.2363 188.268 49.2363 188.312 49.2808C187.866 49.7725 187.599 49.9956 187.866 49.147L188.134 49.1914ZM188.357 51.4253C187.599 52.0063 185.726 54.0615 185.235 54.2847C185.235 54.1509 186.038 53.3018 186.305 52.7212C187.063 51.0234 187.599 51.0234 189.159 49.9956C190.14 49.3257 189.828 50.1743 189.784 50.2192C189.382 50.666 188.847 51.0234 188.357 51.4253ZM184.165 53.7485C184.254 53.5698 184.7 53.2124 184.878 53.168L184.745 53.4805C184.7 53.5698 184.388 54.106 184.254 53.9722C184.254 53.9272 184.12 53.8828 184.165 53.7485ZM183.184 52.5869C183.006 52.3638 183.719 51.5596 183.897 51.2915C184.388 50.4873 185.191 49.3701 185.77 48.6108C185.904 48.4321 186.841 48.834 186.751 49.0127C185.681 51.6489 185.859 51.3359 183.897 53.3018C183.719 53.5254 183.318 52.7212 183.184 52.5869ZM182.738 48.7896C180.33 50.3979 181.222 50.5767 180.062 49.4595L180.018 49.2808C180.553 49.2363 182.381 48.6108 182.783 48.7002C182.738 48.7896 182.738 48.7896 182.738 48.7896ZM184.343 48.4766L181.668 50.7998C181.49 50.9341 180.954 50.5317 181.177 50.353C181.757 49.9062 183.63 48.0747 184.388 48.3872C184.388 48.3872 184.388 48.4321 184.343 48.4766ZM185.191 48.3428C184.343 49.3257 183.585 50.4424 182.693 51.4253C182.381 51.7383 182.337 51.604 182.025 51.3359C181.802 51.1572 181.802 51.1572 182.025 50.8892C182.649 50.1299 184.076 48.9683 184.834 48.2979L185.235 48.2085C185.235 48.2534 185.235 48.2979 185.191 48.3428ZM180.33 51.1572C180.375 51.2021 181.267 51.2021 180.821 51.6934C180.509 52.0508 180.464 51.5596 179.84 50.666L179.037 49.6382C179.304 49.6831 180.33 50.7554 180.33 50.9341C180.33 50.9785 180.285 51.0679 180.33 51.1572ZM183.63 55.0444C182.961 55.938 183.006 56.3403 182.47 55.2681C182.649 55.0894 183.229 54.2847 183.541 54.5527C183.764 54.7764 183.764 54.7764 183.63 55.0444ZM181.043 47.3599C181.4 47.3599 182.248 47.6724 182.604 47.9404C182.114 48.1641 180.241 48.7446 179.617 48.9233C179.304 49.0127 178.457 48.1191 178.234 47.896C178.011 47.7173 178.725 47.5386 178.859 47.4937C179.527 47.2256 180.33 47.3599 181.043 47.3599ZM189.739 37.5747C189.828 39.0044 189.694 40.4346 189.917 41.8193C190.096 42.8022 189.784 42.311 189.65 42.5342C189.293 43.0259 189.917 42.5791 189.65 44.4106C189.605 44.7236 188.58 44.7236 188.312 44.7236C187.732 44.7681 186.573 44.0532 185.102 44.4106C184.656 44.5 184.031 44.2319 183.63 44.0981C183.451 44.0532 183.451 44.0088 183.496 43.8745L187.019 35.0728C187.286 34.7603 190.319 33.5537 190.229 33.8667C190.051 35.0728 189.65 36.2793 189.739 37.5747ZM193.708 32.9731C192.593 35.7876 191.879 38.0664 191.032 40.9707C190.452 42.9365 190.586 40.6133 190.586 39.8535C190.542 37.0835 190.452 36.9492 190.765 34.0005C190.809 33.3306 191.656 33.3306 192.504 33.1069C192.637 33.1069 193.842 32.6602 193.708 32.9731ZM191.567 41.5068C192.013 40.6133 193.663 37.6641 194.287 37.1279C194.555 37.6196 194.376 39.3174 194.421 40.0771C194.466 40.6133 192.102 41.8193 191.79 42.311C191.656 42.4897 191.166 42.4897 191.255 42.2217C191.344 41.998 191.434 41.7749 191.567 41.5068ZM194.332 33.2412C194.376 33.1963 194.376 33.1963 194.421 33.1519C194.555 33.5093 194.376 34.0454 194.421 34.4473C194.466 35.0728 193.886 35.8325 193.574 36.4131C193.44 36.6367 192.727 38.0215 192.504 38.2002C192.236 38.3789 192.415 38.5132 192.281 38.7812C192.147 39.0493 192.013 39.4517 191.79 39.6748C192.058 38.647 193.842 34.3579 194.332 33.2412ZM172.928 34.3579C173.686 34.4028 174.979 33.4644 175.425 33.688C175.96 33.9111 175.648 33.3306 176.495 34.1348C176.807 34.4028 177.922 34.3135 177.922 34.6709C177.877 35.0283 177.164 35.3857 176.451 36.0112C175.826 36.5474 174.533 35.7432 173.418 35.207C172.972 34.9834 171.59 34.2241 172.928 34.3579ZM168.959 33.375C169.182 33.4644 170.52 33.9111 170.163 34.2686C169.182 35.207 168.915 34.626 167.934 34.2241C167.488 34.0454 166.551 34.0454 166.462 33.4644C166.417 33.2856 166.105 33.1963 166.284 32.9731C166.194 32.9282 164.857 31.1855 164.589 30.605C164.411 30.2476 164.188 29.9346 164.143 29.5327C164.946 29.354 164.277 29.9795 164.678 30.2026C166.685 31.3198 166.284 30.873 168.067 32.5264C168.335 32.7944 168.647 33.1069 168.959 33.375ZM162.85 54.8657C162.85 54.7314 162.85 54.5527 162.939 54.5083C163.028 54.5977 162.984 54.7764 162.85 54.8657ZM162.493 58.8423C162.047 59.3335 163.296 54.374 163.474 53.7935C163.876 52.5425 166.729 49.3257 166.774 49.3257C167.22 49.5488 167.532 49.1021 167.131 49.9062C167.131 49.9062 167.131 49.9062 167.176 49.9062C165.749 52.5869 164.366 55.3125 163.118 58.0825C162.939 58.3955 162.716 58.6187 162.493 58.8423ZM174.177 53.9722C174.132 53.168 174.31 52.3638 174.31 51.5146C174.31 51.0679 175.603 50.7554 175.96 50.6211C179.572 49.2363 178.234 49.415 179.706 51.6489C179.884 51.917 179.795 52.1401 179.661 52.3638C179.438 52.8105 175.96 58.0825 175.96 58.4399C175.96 58.7974 174.756 59.6909 174.489 59.8252C174.355 59.5122 174.132 55.7593 174.132 55.1338C174.177 54.7314 174.221 54.3296 174.177 53.9722ZM187.42 62.5059C187.376 62.6396 187.465 62.8633 187.286 62.9526C187.019 63.2656 187.197 63.6675 186.93 63.9355C184.789 66.1694 186.038 65.1421 185.146 62.1484C185.012 61.7461 185.28 61.7461 185.458 61.4336C186.662 59.5122 186.573 59.1997 187.465 60.9868C187.688 61.478 187.554 62.0591 187.42 62.5059ZM194.689 56.8765C192.86 58.9316 191.344 61.2549 189.962 63.623C189.917 63.6675 189.873 63.7568 189.828 63.8018C189.07 62.1929 189.382 62.6396 191.3 59.8252C193.708 56.251 193.618 56.4297 195.179 52.6318C196.026 50.5317 196.205 51.8721 196.339 51.8721C196.963 51.8276 195.893 50.8447 196.606 50.9341C196.963 50.9785 196.651 51.8721 196.606 52.0957C195.759 56.1167 196.25 55.1787 194.689 56.8765ZM193.663 61.3887C193.529 61.6123 190.765 66.4824 190.542 66.4824C190.363 66.4824 190.229 65.4995 190.319 65.3208L191.79 62.5952C191.924 62.3716 194.778 57.5913 195.045 57.77C195.268 57.8594 193.886 60.8975 193.663 61.3887ZM199.951 51.9614C200.396 52.1401 199.46 52.6318 199.282 52.8105C198.836 53.168 197.899 54.0615 197.453 54.2847C197.409 53.5698 197.632 52.0957 197.676 51.2466C197.721 50.8892 198.747 51.5146 199.059 51.6489C199.059 51.6489 199.059 51.6489 199.059 51.6934C199.326 51.7383 199.638 51.8276 199.951 51.9614ZM194.956 38.3789C195.001 35.9219 194.778 36.6812 196.16 34.8496C196.918 33.7773 197.855 32.8389 198.657 31.8115C198.925 31.4985 201.199 31.0962 201.333 31.0962L201.288 31.2305C201.288 31.2305 201.288 31.2305 201.244 31.2305L198.836 35.4751C196.963 38.96 197.989 37.9771 195.09 39.7642C194.733 40.0771 194.956 38.7812 194.956 38.3789ZM195.224 32.6157C195.224 32.3027 196.205 32.2134 196.472 32.1689C196.383 32.437 195.447 33.5537 195.179 33.6431C195.09 33.3306 195.179 32.9282 195.224 32.6157ZM203.741 17.7822C204.187 17.0674 207.71 12.3311 208.245 12.0186C208.378 12.5991 207.71 16.8438 207.442 17.6929C207.041 19.1226 206.238 22.8755 205.391 23.5903C203.562 25.1987 200.218 28.3262 198.568 29.9795C198.39 30.1582 196.339 30.4707 195.937 30.5601C195.893 30.5601 195.848 30.5601 195.803 30.5601C195.893 30.0688 196.918 28.2817 197.23 27.7007L197.275 27.7007C199.148 24.2607 201.422 21.0884 203.696 17.916C203.652 17.8716 203.696 17.8267 203.741 17.7822ZM213.596 17.4692C211.946 22.6519 211.143 24.4839 207.754 28.5942C207.397 29.041 207.799 28.9966 206.417 29.0859L203.562 29.354C203.384 29.354 203.652 28.9966 203.696 28.9072L205.302 25.4224C205.748 24.6182 205.525 24.7075 205.658 24.4395C206.149 23.3667 206.773 22.9648 207.665 22.2051C208.423 21.4902 212.838 17.6035 213.596 17.1567C213.685 17.2905 213.64 17.3799 213.596 17.4692ZM201.645 32.8389C203.161 30.0688 201.868 31.1411 206.595 30.0239C206.639 30.0239 206.639 30.0239 206.684 30.0239C206.372 30.9624 199.594 36.6367 199.505 36.6812C199.505 36.6367 199.505 36.6367 199.505 36.5918C199.505 36.5918 199.549 36.5918 199.549 36.6367L201.645 32.8389ZM202.849 26.9858C203.117 26.7178 204.454 25.1094 204.767 25.0649C204.811 25.2437 204.633 25.4668 204.543 25.6455C203.83 26.8965 203.206 28.1924 202.403 29.3984C202.269 29.6221 200.263 29.9346 200.486 29.6665L202.849 26.9858ZM197.008 39.0938C196.963 39.1831 196.918 39.2729 196.874 39.3623C195.759 41.9536 195.714 41.5068 195.135 44.5449C195.135 44.5894 195.09 44.5894 195.09 44.6343C194.912 44.2769 194.956 41.4619 194.912 40.6133C194.867 40.1216 196.517 39.3174 196.874 39.0493C196.918 39.0493 196.963 39.0493 197.008 39.0044C197.052 39.0044 197.052 39.0493 197.008 39.0938ZM167.978 67.6885L167.8 67.9565L167.978 67.5991C168.023 67.644 167.978 67.644 167.978 67.6885ZM177.119 29.9346C177.565 29.7559 177.967 29.7114 178.323 29.4434C178.948 28.9072 179.706 29.4878 180.241 29.6221C180.865 29.8008 181.445 29.1753 181.445 30.0688C181.445 30.5156 180.553 30.7837 180.553 31.6328C180.553 31.6772 180.285 32.2583 180.107 32.2583C178.413 32.124 178.234 32.5708 177.788 32.3921C176.941 32.0796 177.03 31.5879 176.852 31.4092C176.763 31.3198 175.603 30.8281 176.005 30.4263C175.871 30.292 176.361 30.3813 176.674 30.2476C176.807 30.1133 176.941 30.0239 177.119 29.9346ZM166.551 28.5942C168.067 28.2817 168.692 29.4434 170.252 29.3091C170.966 29.2197 171.947 28.6836 172.705 28.8623C173.82 29.0859 173.686 29.2197 174.31 30.0688C174.533 30.3813 174.935 30.6494 175.202 31.4092C175.336 31.7666 175.336 32.1689 174.89 31.9902C174.711 31.9453 174.756 31.5435 174.489 31.7222C174.176 31.9453 174.221 31.9902 173.73 32.1689C173.686 32.1689 173.597 32.2134 173.552 32.2134C173.285 32.1689 172.794 31.3198 172.526 31.2305C172.482 31.0518 171.858 31.0518 171.724 31.0518C171.724 31.0962 170.52 32.0347 169.851 31.6328C169.048 31.1411 167.8 30.9624 167.666 30.5601L167.176 29.6221L166.997 29.354C167.042 29.3091 166.284 28.6392 166.551 28.5942Z" fill="#FFFFFF" fill-opacity="1.000000" fill-rule="nonzero"/>
	</g>
</svg>
