<svg width="63.000000" height="63.000000" viewBox="0 0 63 63" fill="none" xmlns="http://www.w3.org/2000/svg" xmlns:xlink="http://www.w3.org/1999/xlink">
	<desc>
			Created with Pixso.
	</desc>
	<defs/>
	<path id="Vector" d="M31.5 0C14.1033 0 0 14.103 0 31.5C0 48.897 14.1033 63 31.5 63C48.8967 63 63 48.897 63 31.5C63 14.103 48.8967 0 31.5 0ZM42.3872 33.1699L26.6372 43.0137C26.3391 43.1997 25.9966 43.3027 25.6453 43.3115C25.2939 43.3208 24.9465 43.2358 24.6392 43.0654C24.3318 42.895 24.0757 42.6455 23.8972 42.3428C23.719 42.04 23.625 41.6953 23.625 41.3438L23.625 21.6562C23.625 20.9399 24.0134 20.2817 24.6392 19.9346C24.9463 19.7637 25.2937 19.6782 25.6453 19.6875C25.9968 19.6963 26.3394 19.7998 26.6372 19.9863L42.3872 29.8301C42.9626 30.1909 43.3125 30.8213 43.3125 31.5C43.3125 32.1787 42.9626 32.8096 42.3872 33.1699Z" fill="#FFFFFF" fill-opacity="1.000000" fill-rule="nonzero"/>
</svg>
