<svg width="40.000000" height="40.000000" viewBox="0 0 40 40" fill="none" xmlns="http://www.w3.org/2000/svg" xmlns:xlink="http://www.w3.org/1999/xlink">
	<desc>
			Created with Pixso.
	</desc>
	<defs>
		<clipPath id="clip16_601">
			<rect width="40.000000" height="40.000000" fill="white" fill-opacity="0"/>
		</clipPath>
	</defs>
	<rect width="40.000000" height="40.000000" fill="#FFFFFF" fill-opacity="0"/>
	<g clip-path="url(#clip16_601)">
		<path d="M37.5 8.70001L37.5 12.4625L2.5 12.4625L2.5 8.70001C2.5 6.63751 4.1875 4.95001 6.25 4.95001L10.625 4.95001L10.625 8.65001C10.625 9.33751 11.1875 9.90001 11.875 9.90001C12.5625 9.90001 13.125 9.33751 13.125 8.65001L13.125 4.95001L26.875 4.95001L26.875 8.65001C26.875 9.33751 27.4375 9.90001 28.125 9.90001C28.8125 9.90001 29.375 9.33751 29.375 8.65001L29.375 4.95001L33.75 4.95001C35.8125 4.95001 37.5 6.63751 37.5 8.70001ZM27.5 27.475L36.7375 27.475L26.25 36.825L26.25 28.725C26.25 28.0375 26.8125 27.475 27.5 27.475Z" fill="#307632" fill-opacity="1.000000" fill-rule="nonzero"/>
		<path d="M37.5 14.9625L37.5 24.975L27.5 24.975C25.4375 24.975 23.75 26.6625 23.75 28.725L23.75 37.5L6.25 37.5C4.1875 37.5 2.5 35.8125 2.5 33.75L2.5 14.9625L37.5 14.9625ZM13.125 3.75L13.125 4.95L10.625 4.95L10.625 3.75C10.625 3.0625 11.1875 2.5 11.875 2.5C12.5625 2.5 13.125 3.0625 13.125 3.75ZM29.375 3.75L29.375 4.95L26.875 4.95L26.875 3.75C26.875 3.0625 27.4375 2.5 28.125 2.5C28.8125 2.5 29.375 3.0625 29.375 3.75Z" fill="#307632" fill-opacity="1.000000" fill-rule="nonzero"/>
	</g>
</svg>
