<svg width="100.000000" height="100.000000" viewBox="0 0 100 100" fill="none" xmlns="http://www.w3.org/2000/svg" xmlns:xlink="http://www.w3.org/1999/xlink">
	<desc>
			Created with Pixso.
	</desc>
	<defs>
		<clipPath id="clip15_156">
			<rect id="svg-gobbler (5) 1" width="100.000000" height="100.000000" fill="white" fill-opacity="0"/>
		</clipPath>
	</defs>
	<rect id="svg-gobbler (5) 1" width="100.000000" height="100.000000" fill="#FFFFFF" fill-opacity="0"/>
	<g clip-path="url(#clip15_156)">
		<path id="Vector" d="M24.6469 73.5994C24.5221 73.7239 24.3529 73.7937 24.1766 73.7937C24.0004 73.7937 23.8312 73.7239 23.7064 73.5994C22.9437 72.8367 21.7072 72.8367 20.9443 73.5994C20.1818 74.3618 20.1818 75.5984 20.9443 76.3613C21.8354 77.2524 23.0061 77.6978 24.1766 77.6978C25.3472 77.6978 26.5176 77.2522 27.4087 76.3613C28.1713 75.5986 28.1713 74.3621 27.4087 73.5994C26.646 72.8367 25.4094 72.8367 24.6469 73.5994Z" fill="#000000" fill-opacity="1.000000" fill-rule="nonzero"/>
		<path id="Vector" d="M99.2321 14.5996C98.4692 13.2783 97.2374 12.333 95.7635 11.9382L92.2267 10.9905L92.9301 8.36548C93.3892 6.65234 93.1537 4.86279 92.2668 3.3269C91.3801 1.79102 89.9482 0.692383 88.2351 0.233398C87.6713 0.0822754 87.0898 0.00634766 86.506 0.00756836L86.5052 0.00585938L14.4518 0.00585938C13.3732 0.00585938 12.4989 0.880127 12.4989 1.95874L12.4989 20.7344C12.4989 21.813 13.3732 22.6873 14.4518 22.6873C15.5303 22.6873 16.4047 21.813 16.4047 20.7344L16.4047 3.91162L80.4672 3.91162C80.3184 4.23999 80.1967 4.58008 80.103 4.92822L79.3895 7.59155C78.4816 7.53564 77.6298 8.12305 77.3853 9.03564L70.1133 36.1746L29.6843 36.1746C28.6057 36.1746 27.7314 37.0488 27.7314 38.1274C27.7314 39.2061 28.6057 40.0803 29.6843 40.0803L69.0667 40.0803L67.2667 46.7979L41.9875 46.7979C40.9089 46.7979 40.0347 47.6721 40.0347 48.7507C40.0347 49.8291 40.9089 50.7036 41.9875 50.7036L66.2202 50.7036L64.4202 57.4209L57.8059 57.4209C56.7273 57.4209 55.853 58.2952 55.853 59.3738C55.853 60.4524 56.7273 61.3267 57.8059 61.3267L63.3737 61.3267L63.0977 62.3562C63.0135 62.6699 63.009 62.9998 63.0846 63.3157L66.0197 75.5972L65.0189 79.332C64.7397 80.3738 65.3579 81.4446 66.3999 81.7239C66.5692 81.769 66.7393 81.7908 66.9066 81.7908C67.7688 81.7908 68.558 81.2153 68.7917 80.343L69.7926 76.6082L78.475 67.4397C78.6984 67.2039 78.8593 66.916 78.9432 66.6023L83.5844 49.282L83.5844 96.0881L47.9874 96.0881C46.9609 91.8503 44.8052 88.0044 41.6881 84.8875C40.4362 83.6345 39.0487 82.5249 37.5515 81.5786C40.4047 78.397 42.1432 74.196 42.1432 69.5964C42.1432 59.6897 34.0465 51.6299 24.1396 51.6299C24.115 51.6299 24.1643 51.6306 24.1396 51.6309C23.2864 51.5918 22.567 50.8875 22.567 50.0249C22.567 49.1372 23.2889 48.4153 24.1765 48.4153C25.2551 48.4153 26.1294 47.541 26.1294 46.4624C26.1294 45.3838 25.2551 44.5095 24.1765 44.5095C21.1353 44.5095 18.6613 46.9836 18.6613 50.0249C18.6613 50.8513 18.8452 51.6355 19.1725 52.3398C18.2222 52.6157 17.2964 52.9702 16.4048 53.3994L16.4048 38.3105C16.4048 37.2319 15.5305 36.3577 14.4519 36.3577C13.3733 36.3577 12.499 37.2319 12.499 38.3105L12.499 55.9543C8.65222 59.252 6.21033 64.1443 6.21008 69.5964C6.21008 74.196 7.94836 78.397 10.8016 81.5786C9.30432 82.5249 7.91699 83.6345 6.66492 84.8875C3.15381 88.3987 0.858765 92.8337 0.0281982 97.7134C-0.152832 98.7766 0.562622 99.7854 1.62573 99.9663C1.73669 99.9854 1.84705 99.9944 1.95581 99.9944C2.89038 99.9944 3.71667 99.3213 3.87878 98.3689C4.57288 94.292 6.49121 90.5852 9.427 87.6494C10.7438 86.3318 12.2388 85.2053 13.8684 84.303C16.7883 86.356 20.3442 87.5632 24.177 87.5632C28.0096 87.5632 31.5653 86.356 34.4852 84.303C36.1149 85.2056 37.6099 86.3318 38.9268 87.6494C41.8625 90.585 43.7809 94.2917 44.4749 98.3689C44.6372 99.3213 45.4631 99.9944 46.3979 99.9944L46.4048 99.9941L85.5374 99.9941C86.616 99.9941 87.4902 99.1199 87.4902 98.0413L87.4902 34.7051L92.7255 15.1672L94.7531 15.7107C95.2192 15.8357 95.6089 16.1345 95.8501 16.5522C96.0912 16.9702 96.1553 17.4568 96.0305 17.9231L90.1759 39.7732C89.8966 40.8149 90.5149 41.8857 91.5568 42.165C91.7261 42.2104 91.8962 42.2322 92.0636 42.2322C92.9258 42.2322 93.715 41.6565 93.9487 40.7842L99.8032 18.9341C100.198 17.4604 99.995 15.9209 99.2321 14.5996ZM10.1157 69.5962C10.116 61.874 16.4558 55.5876 24.1663 55.5376C24.1969 55.5381 24.1354 55.5398 24.1663 55.5398C24.1869 55.5398 24.1455 55.5374 24.1663 55.5366C31.8909 55.5703 38.2372 61.8638 38.2374 69.5959C38.2374 77.3489 31.9297 83.6567 24.1765 83.657C16.4233 83.657 10.1157 77.3491 10.1157 69.5962ZM88.8843 5.27954C89.0647 5.59033 89.1818 5.93359 89.2288 6.28955C89.2756 6.64575 89.2513 7.00757 89.1575 7.35449L88.4541 9.97949L83.1722 8.56421L83.8757 5.93921C83.9678 5.59204 84.1277 5.26636 84.3464 4.98145C84.5651 4.69653 84.838 4.45776 85.1495 4.27905C85.4602 4.09863 85.8035 3.98169 86.1595 3.93481C86.5156 3.88794 86.8774 3.91211 87.2241 4.00586C87.5713 4.0979 87.8969 4.25781 88.1818 4.47656C88.4668 4.69507 88.7056 4.96802 88.8843 5.27954ZM69.0955 71.6633L67.6456 65.5964L73.3844 67.1343L69.0955 71.6633ZM75.6759 63.7046L67.3759 61.4807L72.662 41.7529L80.9619 43.9768L75.6759 63.7046ZM81.9728 40.2041L73.6729 37.98L80.6525 11.9329L88.9523 14.1567L81.9728 40.2041Z" fill="#000000" fill-opacity="1.000000" fill-rule="nonzero"/>
		<path id="Vector" d="M52.6492 83.0349L53.4292 82.2678C53.5551 82.1436 53.725 82.074 53.902 82.0745C54.0789 82.0747 54.2485 82.145 54.3738 82.27C54.7976 82.6963 55.3018 83.0339 55.8571 83.2639C56.4124 83.4939 57.0077 83.6116 57.6088 83.6099L59.6937 83.6099C60.7722 83.6099 61.6466 82.7356 61.6466 81.657C61.6466 80.5784 60.7722 79.7041 59.6937 79.7041L57.6088 79.7041C57.5208 79.7043 57.4337 79.6873 57.3524 79.6536C57.2711 79.6199 57.1974 79.5706 57.1354 79.5081C55.3594 77.7322 52.4635 77.7256 50.6848 79.4885L49.9103 80.2505C49.1414 81.0068 49.1312 82.2434 49.8875 83.0122C50.6438 83.781 51.8801 83.791 52.6492 83.0349ZM60.4813 21.0132C60.4813 15.2444 55.7881 10.5513 50.0193 10.5513C44.2504 10.5513 39.5573 15.2444 39.5573 21.0132C39.5573 26.782 44.2504 31.4751 50.0193 31.4751C55.7881 31.4751 60.4813 26.782 60.4813 21.0132ZM43.463 21.0132C43.463 17.3982 46.4041 14.457 50.0193 14.457C53.6344 14.457 56.5754 17.3982 56.5754 21.0132C56.5754 24.6284 53.6344 27.5693 50.0193 27.5693C46.4041 27.5693 43.463 24.6284 43.463 21.0132ZM14.4518 31.4746C14.9655 31.4746 15.4692 31.2656 15.8325 30.9023C16.1957 30.5391 16.4047 30.0352 16.4047 29.5217C16.4047 29.0081 16.1957 28.5042 15.8325 28.1409C15.4692 27.7778 14.9655 27.5688 14.4518 27.5688C13.9382 27.5688 13.4343 27.7778 13.071 28.1409C12.7079 28.5042 12.4989 29.0081 12.4989 29.5217C12.4989 30.0352 12.7079 30.5391 13.071 30.9023C13.4343 31.2656 13.938 31.4746 14.4518 31.4746Z" fill="#000000" fill-opacity="1.000000" fill-rule="nonzero"/>
	</g>
</svg>
