<svg width="100.000000" height="100.000000" viewBox="0 0 100 100" fill="none" xmlns="http://www.w3.org/2000/svg" xmlns:xlink="http://www.w3.org/1999/xlink">
	<desc>
			Created with Pixso.
	</desc>
	<defs>
		<clipPath id="clip15_124">
			<rect id="svg-gobbler (2) 1" width="100.000000" height="100.000000" fill="white" fill-opacity="0"/>
		</clipPath>
	</defs>
	<rect id="svg-gobbler (2) 1" width="100.000000" height="100.000000" fill="#FFFFFF" fill-opacity="0"/>
	<g clip-path="url(#clip15_124)">
		<path id="Vector" d="M83.8694 22.043L97.186 28.5781C97.4532 28.7097 97.7472 28.7781 98.045 28.7783C98.4105 28.7783 98.7687 28.676 99.0789 28.4829C99.389 28.2896 99.6388 28.0132 99.7997 27.6851C100.275 26.7168 99.8754 25.5464 98.907 25.0713L85.5903 18.5361C84.6221 18.061 83.4517 18.4607 82.9764 19.429C82.5012 20.3977 82.901 21.5676 83.8694 22.043ZM52.7147 80.6621C51.2179 82.1592 48.782 82.1592 47.2852 80.6621C46.5225 79.8994 45.2858 79.8994 44.5228 80.6621C43.7601 81.4248 43.7601 82.6614 44.5228 83.4243C46.0328 84.9343 48.0164 85.6892 49.9998 85.6892C51.9832 85.6892 53.9667 84.9343 55.4767 83.4243C56.2394 82.6616 56.2394 81.4248 55.4767 80.6621C54.7141 79.8992 53.4774 79.8992 52.7147 80.6621ZM45.4844 74.4861C45.4844 73.9724 45.2754 73.4685 44.9121 73.1052C44.5488 72.7419 44.0449 72.533 43.5293 72.533C43.0156 72.533 42.5137 72.7419 42.1484 73.1052C41.7852 73.4685 41.5781 73.9724 41.5781 74.4861C41.5781 74.9998 41.7852 75.5037 42.1484 75.8669C42.5137 76.2302 43.0156 76.4392 43.5293 76.4392C44.0449 76.4392 44.5488 76.2302 44.9121 75.8669C45.2771 75.4998 45.4827 75.0037 45.4844 74.4861ZM56.4706 72.533C55.9524 72.5347 55.4557 72.7402 55.0878 73.1052C54.7245 73.4685 54.5155 73.9724 54.5155 74.4861C54.5155 74.9998 54.7245 75.5037 55.0878 75.8669C55.4557 76.2319 55.9524 76.4375 56.4706 76.4392C56.9843 76.4392 57.4882 76.2302 57.8514 75.8669C58.2147 75.5037 58.4218 74.9998 58.4218 74.4861C58.4218 73.9724 58.2147 73.4685 57.8514 73.1052C57.4882 72.7419 56.9843 72.533 56.4706 72.533Z" fill="#000000" fill-opacity="1.000000" fill-rule="nonzero"/>
		<path id="Vector" d="M73.9323 68.5938L73.9323 66.3987C73.9323 53.2024 63.1963 42.4666 50 42.4666C36.8036 42.4666 26.0677 53.2024 26.0677 66.3987L26.0677 68.5938C20.9095 67.363 15.4036 68.8684 11.5929 72.679C8.30103 75.9707 6.68835 80.5195 7.16809 85.1589C7.19714 85.4399 7.28687 85.7114 7.43103 85.9543C7.5752 86.1975 7.77039 86.4062 8.00317 86.5667C8.23596 86.7268 8.50073 86.8347 8.77917 86.8828C9.05774 86.9307 9.34326 86.9177 9.61633 86.8445L12.1223 86.1731L11.4508 88.6792C11.3776 88.9524 11.3645 89.2378 11.4125 89.5164C11.4603 89.7949 11.5682 90.0598 11.7285 90.2925C11.8888 90.5254 12.0977 90.7207 12.3408 90.8647C12.584 91.0088 12.8555 91.0986 13.1366 91.1274C13.6747 91.1831 14.2108 91.2107 14.7446 91.2107C18.8135 91.2104 22.7064 89.6128 25.6163 86.7026C26.7924 85.5269 27.7693 84.1675 28.5089 82.678C32.4099 90.6128 40.577 96.0874 49.9998 96.0874C59.4226 96.0874 67.5897 90.6128 71.4906 82.678C72.2303 84.1675 73.2073 85.5269 74.3834 86.7026C77.2935 89.6128 81.1859 91.2109 85.2551 91.2109C85.7886 91.2109 86.3254 91.1833 86.8632 91.1277C87.1443 91.0986 87.4158 91.009 87.6588 90.8647C87.9019 90.7207 88.1107 90.5254 88.271 90.2927C88.4313 90.0598 88.5391 89.7952 88.587 89.5166C88.635 89.238 88.6221 88.9524 88.5488 88.6794L87.8774 86.1733L90.3837 86.8447C90.6566 86.918 90.9423 86.9312 91.2208 86.8831C91.4993 86.8352 91.7642 86.7273 91.9969 86.5671C92.2297 86.4067 92.4249 86.198 92.5691 85.9548C92.7133 85.7117 92.8029 85.4402 92.8319 85.1589C93.3115 80.5198 91.6989 75.9709 88.4071 72.6792C84.5966 68.8684 79.0906 67.363 73.9323 68.5938ZM69.9968 65.322C63.496 64.8701 57.3204 62.0662 52.6984 57.447C54.8392 54.5398 56.416 51.2571 57.3469 47.7688C64.4481 50.5789 69.5717 57.3374 69.9968 65.322ZM50 46.3728C51.2253 46.3728 52.4253 46.4839 53.5906 46.6958C50.7611 57.4001 41.1748 65.0564 29.9998 65.3772C30.5336 54.8076 39.3003 46.3728 50 46.3728ZM22.8542 83.9402C20.9561 85.8386 18.4969 86.9885 15.8785 87.2478L16.7711 83.9165C16.8599 83.5852 16.8597 83.2366 16.771 82.9055C16.6823 82.5742 16.5079 82.2722 16.2655 82.0298C16.0231 81.7874 15.7211 81.613 15.39 81.5244C15.0588 81.4355 14.7101 81.4355 14.3789 81.5242L11.0475 82.417C11.3068 79.7988 12.4567 77.3394 14.355 75.4412C17.3444 72.4517 21.7324 71.3611 25.748 72.5474C26.9341 76.563 25.8438 80.9512 22.8542 83.9402ZM50 92.1809C38.9576 92.1809 29.974 83.197 29.974 72.1548L29.974 69.2859C37.8186 69.0979 44.9951 65.7798 50.168 60.4395C55.5011 65.657 62.5874 68.7932 70.0258 69.2378L70.0258 72.1545C70.026 83.1973 61.0422 92.1809 50 92.1809ZM85.621 81.5242C85.2898 81.4353 84.941 81.4353 84.6099 81.5239C84.2786 81.6125 83.9766 81.7869 83.7341 82.0293C83.4917 82.272 83.3174 82.574 83.2286 82.905C83.14 83.2363 83.1401 83.5852 83.229 83.9163L84.1216 87.2478C81.5034 86.9885 79.0437 85.8386 77.1456 83.9402C74.1562 80.9512 73.0658 76.5632 74.252 72.5471C78.2679 71.3613 82.6555 72.4517 85.645 75.4409C87.5435 77.3391 88.6932 79.7986 88.9526 82.4167L85.621 81.5242ZM76.8376 18.3691C77.3533 18.3691 77.8552 18.1621 78.2205 17.7969C78.5837 17.4336 78.7908 16.9316 78.7908 16.416C78.7908 15.9023 78.5837 15.3984 78.2205 15.0352C77.8525 14.6702 77.3558 14.4646 76.8376 14.4629C76.324 14.4629 75.822 14.6719 75.4568 15.0352C75.0924 15.4023 74.8875 15.8987 74.8865 16.416C74.8865 16.9316 75.0935 17.4355 75.4568 17.7969C75.8236 18.1624 76.3199 18.3679 76.8376 18.3691Z" fill="#000000" fill-opacity="1.000000" fill-rule="nonzero"/>
		<path id="Vector" d="M99.9331 43.7053C99.6538 42.6636 98.583 42.0449 97.5409 42.3245L91.8713 43.8435C87.2319 45.0869 82.3864 44.4487 78.2263 42.0471C75.4498 40.4438 73.4637 37.8557 72.6338 34.7585C72.4998 34.2583 72.1725 33.8318 71.7239 33.5728L62.3074 28.136C61.0544 27.4126 60.6238 25.8049 61.347 24.5522C61.5186 24.2532 61.7476 23.9912 62.021 23.7815C62.2944 23.5718 62.6068 23.4182 62.9399 23.3301C63.2727 23.2397 63.6199 23.2166 63.9617 23.2615C64.3033 23.3066 64.6328 23.4189 64.9308 23.592L75.8466 29.8943C76.7806 30.4338 77.9752 30.1138 78.5144 29.1794C79.054 28.2454 78.7338 27.0508 77.7997 26.5117L53.1484 12.282C52.7855 12.072 52.4841 11.7703 52.2743 11.4072C52.0646 11.0442 51.9537 10.6323 51.9531 10.2129C51.9531 9.37036 52.3633 8.63135 53.0784 8.18579C53.7933 7.74023 54.6373 7.69751 55.3939 8.0686L68.0715 14.29C69.0397 14.7656 70.2102 14.3657 70.6854 13.3972C71.1606 12.429 70.761 11.2585 69.7926 10.7834L57.115 4.56201C55.151 3.5979 52.8695 3.71338 51.0126 4.87061C50.6495 5.09717 50.3104 5.35986 50 5.6543C49.6898 5.35962 49.3506 5.09717 48.9875 4.87061C47.1307 3.71338 44.8492 3.5979 42.885 4.56201L1.09302 25.0713C0.124634 25.5466 -0.274902 26.7168 0.200195 27.6853C0.361084 28.0134 0.61084 28.2898 0.921021 28.4829C1.23132 28.6763 1.58948 28.7786 1.95496 28.7783C2.24377 28.7783 2.53711 28.7139 2.81384 28.5781L44.6061 8.06885C45.3625 7.69751 46.2065 7.74023 46.9218 8.18604C47.6367 8.63159 48.0469 9.37061 48.0469 10.2131C48.0469 11.064 47.5889 11.8569 46.8516 12.2822L22.2004 26.5117C21.2662 27.0508 20.9462 28.2454 21.4856 29.1794C22.0247 30.1135 23.2192 30.4336 24.1536 29.8943L35.0693 23.592C35.3673 23.4189 35.6968 23.3066 36.0385 23.2617C36.3801 23.2168 36.7274 23.24 37.0601 23.3301C37.3933 23.4182 37.7056 23.5718 37.979 23.7817C38.2524 23.9915 38.4816 24.2534 38.6531 24.5525C39.0034 25.1592 39.0966 25.8662 38.9152 26.543C38.7338 27.2197 38.2997 27.7856 37.6927 28.136L28.2761 33.5728C28.0541 33.7009 27.8594 33.8716 27.7032 34.0752C27.5471 34.2786 27.4326 34.5107 27.3662 34.7585C26.5364 37.8555 24.5503 40.4438 21.7736 42.0471C17.6138 44.4485 12.7679 45.0864 8.12854 43.8435L2.45898 42.3245C1.41663 42.0452 0.346069 42.6636 0.0668945 43.7053C-0.212402 44.7473 0.405884 45.8184 1.44788 46.0977L7.11731 47.6167C8.97644 48.1167 10.8929 48.3706 12.8181 48.3721C16.6106 48.3721 20.3541 47.3772 23.7268 45.4299C27.1664 43.4443 29.6908 40.3176 30.9041 36.5659L39.6459 31.519C42.7639 29.7188 43.8362 25.7173 42.0359 22.5994C41.585 21.8162 40.9758 21.1353 40.2473 20.6003L48.803 15.666C49.2366 15.4146 49.6383 15.1121 49.9996 14.7649C50.361 15.1123 50.7627 15.4148 51.1963 15.666L59.752 20.6003C59.0234 21.1355 58.4144 21.8162 57.9635 22.5996C56.1633 25.7175 57.2354 29.719 60.3535 31.5193L69.0952 36.5664C70.3085 40.3179 72.833 43.4446 76.2727 45.4302C79.6455 47.3774 83.3883 48.3721 87.1812 48.3721C89.0822 48.3721 90.9963 48.1221 92.882 47.6169L98.5514 46.0977C99.5938 45.8184 100.212 44.7473 99.9331 43.7053Z" fill="#000000" fill-opacity="1.000000" fill-rule="nonzero"/>
	</g>
</svg>
