<svg width="100.000000" height="100.000000" viewBox="0 0 100 100" fill="none" xmlns="http://www.w3.org/2000/svg" xmlns:xlink="http://www.w3.org/1999/xlink">
	<desc>
			Created with Pixso.
	</desc>
	<defs>
		<clipPath id="clip15_167">
			<rect id="svg-gobbler (7) 1" width="100.000000" height="100.000000" fill="white" fill-opacity="0"/>
		</clipPath>
	</defs>
	<rect id="svg-gobbler (7) 1" width="100.000000" height="100.000000" fill="#FFFFFF" fill-opacity="0"/>
	<g clip-path="url(#clip15_167)">
		<path id="Vector" d="M70.4644 0.00610352C54.1787 0.0065918 40.9294 13.2563 40.9292 29.542C40.9292 36.0457 42.9893 42.1843 46.894 47.3408L46.894 56.6167C46.8926 57.3511 47.1096 58.0691 47.5176 58.6794C47.9254 59.29 48.5059 59.7654 49.1847 60.0449C49.8625 60.3271 50.6089 60.4014 51.329 60.2581C52.0491 60.1147 52.7102 59.7607 53.2284 59.2405L56.7598 55.7092C60.9711 57.917 65.6772 59.0776 70.4644 59.0779C75.1245 59.0776 79.5841 58.0229 83.7196 55.9426C84.6833 55.4583 85.0715 54.2839 84.5868 53.3206C84.1021 52.3567 82.9272 51.9688 81.9645 52.4534C78.3785 54.2568 74.509 55.1716 70.4642 55.1719C65.8657 55.1716 61.3542 53.9385 57.4176 51.605C57.0444 51.3838 56.6083 51.2932 56.178 51.3474C55.7477 51.4016 55.3475 51.5974 55.0408 51.9038L50.7997 56.1448L50.7997 46.6724C50.7997 46.2317 50.6505 45.8037 50.3765 45.4585C46.7511 40.8899 44.8348 35.386 44.8348 29.542C44.835 15.4099 56.3323 3.9126 70.464 3.91211C84.5959 3.9126 96.0934 15.4099 96.0936 29.542C96.0936 33.5903 95.1776 37.4624 93.3713 41.0503C92.8864 42.0137 93.274 43.188 94.2374 43.6731C95.2006 44.1582 96.3752 43.7708 96.8601 42.8069C98.9435 38.6689 99.9998 34.2061 99.9998 29.542C99.9998 13.2563 86.7502 0.0065918 70.4644 0.00610352Z" fill="#000000" fill-opacity="1.000000" fill-rule="nonzero"/>
		<path id="Vector" d="M54.9292 29.542C54.9292 38.1077 61.8983 45.0771 70.4644 45.0771C79.0305 45.0771 85.9996 38.1077 85.9996 29.542C85.9996 20.9761 79.0305 14.0068 70.4644 14.0066C61.8984 14.0068 54.9294 20.9761 54.9292 29.542ZM82.0936 29.542C82.0936 35.9541 76.8768 41.1711 70.4644 41.1711C64.052 41.1711 58.8352 35.9541 58.8352 29.542C58.8354 25.2629 61.1603 21.5186 64.6116 19.4995C64.603 19.625 64.5985 19.751 64.5981 19.877C64.5981 23.1116 67.2297 25.7432 70.4644 25.7432C71.5427 25.7432 72.4174 24.8687 72.4174 23.79C72.4174 22.7117 71.5427 21.8372 70.4644 21.8372C69.3835 21.8372 68.5042 20.9578 68.5042 19.877C68.5042 18.7961 69.4099 17.9167 70.4907 17.9167C70.5084 17.9167 70.4729 17.9146 70.4907 17.9141C76.8789 17.9429 82.0936 23.1475 82.0936 29.542Z" fill="#000000" fill-opacity="1.000000" fill-rule="nonzero"/>
		<path id="Vector" d="M70.6537 32.7273C70.6035 32.7776 70.5354 32.8057 70.4645 32.8057C70.3936 32.8057 70.3256 32.7776 70.2754 32.7273C69.5126 31.9648 68.2762 31.9648 67.5132 32.7273C66.7506 33.49 66.7506 34.7266 67.5132 35.4895C68.3269 36.3032 69.3958 36.71 70.4645 36.71C71.5331 36.71 72.6018 36.3032 73.4154 35.4895C74.1781 34.7268 74.1781 33.4902 73.4154 32.7273C72.6527 31.9648 71.4165 31.9648 70.6537 32.7273ZM89.9647 47.0967C89.451 47.0967 88.9473 47.3057 88.584 47.6689C88.2207 48.0325 88.0117 48.5342 88.0117 49.0498C88.0117 49.5635 88.2205 50.0674 88.584 50.4304C88.9473 50.7937 89.451 51.0027 89.9647 51.0027C90.4784 51.0027 90.9822 50.7937 91.3453 50.4304C91.7085 50.0674 91.9177 49.5635 91.9177 49.0498C91.9177 48.5361 91.7087 48.0322 91.3453 47.6689C90.9784 47.304 90.4823 47.0984 89.9647 47.0967ZM57.0745 69.2302C56.118 67.5735 54.5732 66.3879 52.725 65.8928C50.8772 65.3977 48.9465 65.6521 47.2896 66.6084L40.2996 70.644L25.3835 44.8088L32.3735 40.7732C35.7939 38.7986 36.9701 34.4089 34.9954 30.9883L27.2545 17.5808C26.298 15.9238 24.7531 14.7385 22.905 14.2434C21.0575 13.7483 19.1267 14.0024 17.4696 14.959L8.11157 20.3618C4.36182 22.5266 1.67957 26.0222 0.55896 30.2046C-0.561523 34.3867 0.0135498 38.7551 2.17834 42.5046L30.6921 91.8921C33.6912 97.0867 39.1508 99.9937 44.7577 99.9937C47.5055 99.9937 50.2893 99.2952 52.8353 97.8252L62.1932 92.4221C63.8502 91.4658 65.0356 89.9209 65.5308 88.0728C66.0259 86.2246 65.7717 84.2944 64.8152 82.6375L57.0745 69.2302ZM19.4229 18.3418C19.7928 18.127 20.2019 17.9878 20.6261 17.9319C21.0503 17.876 21.4814 17.9048 21.8945 18.0164C22.3081 18.126 22.6959 18.3167 23.0354 18.5771C23.3748 18.8374 23.6592 19.1628 23.8721 19.5339L31.613 32.9414C32.511 34.4968 31.9758 36.4927 30.4209 37.3906L26.588 39.6035L15.5902 20.5544L19.4229 18.3418ZM50.8824 94.4429C48.0364 96.0862 44.7206 96.5225 41.546 95.6721C38.3713 94.8215 35.7183 92.7856 34.075 89.9395L5.56116 40.552C3.91797 37.7058 3.48169 34.3899 4.33191 31.2153C5.1825 28.0408 7.21851 25.3877 10.0648 23.7444L12.2073 22.5076L23.205 41.5564L21.7393 42.4028C20.8052 42.9421 20.485 44.1365 21.0244 45.0706L37.8934 74.2883C38.0216 74.5105 38.1924 74.7053 38.3959 74.8613C38.5992 75.0176 38.8315 75.1321 39.0792 75.1985C39.327 75.2649 39.5854 75.2817 39.8397 75.2483C40.094 75.2148 40.3392 75.1316 40.5613 75.0032L42.027 74.157L53.0249 93.2058L50.8824 94.4429ZM61.7582 87.0623C61.6486 87.4761 61.4579 87.8638 61.1974 88.2031C60.9369 88.5427 60.6117 88.8271 60.2405 89.04L56.4077 91.2529L45.4098 72.2041L49.2428 69.9912C50.7983 69.0935 52.7941 69.6284 53.6919 71.1833L61.4327 84.5908C61.6477 84.9609 61.7871 85.3699 61.8429 85.7939C61.8988 86.2183 61.87 86.6494 61.7582 87.0623Z" fill="#000000" fill-opacity="1.000000" fill-rule="nonzero"/>
	</g>
</svg>
