<svg width="100.000000" height="100.000000" viewBox="0 0 100 100" fill="none" xmlns="http://www.w3.org/2000/svg" xmlns:xlink="http://www.w3.org/1999/xlink">
	<desc>
			Created with Pixso.
	</desc>
	<defs>
		<clipPath id="clip15_108">
			<rect id="svg-gobbler 1" width="100.000000" height="100.000000" fill="white" fill-opacity="0"/>
		</clipPath>
	</defs>
	<rect id="svg-gobbler 1" width="100.000000" height="100.000000" fill="#FFFFFF" fill-opacity="0"/>
	<g clip-path="url(#clip15_108)">
		<path id="Vector" d="M89.1594 58.8027C88.3391 57.9819 87.7847 56.9473 87.5574 55.8098C85.9094 47.5701 84.7346 44.0964 81.2463 33.7839C79.7014 29.2161 75.1299 15.4229 75.1162 15.3884C73.5986 11.5051 69.613 9.27051 65.8479 10.1931C61.927 11.1528 59.3965 14.8735 59.9534 18.8533L61.4136 31.0784L53.3547 23.0637C52.5903 22.303 51.3538 22.3062 50.593 23.0713C49.8323 23.8357 49.8362 25.0718 50.6006 25.8325L62.6414 37.8066C62.929 38.0928 63.2983 38.282 63.6985 38.3484C64.0986 38.4148 64.5095 38.355 64.874 38.1772C65.2385 37.9995 65.5388 37.7126 65.7329 37.3567C65.927 37.0005 66.0054 36.5928 65.9573 36.1902C65.9573 36.1902 63.8245 18.3389 63.8225 18.3235C63.5378 16.3323 64.8079 14.4668 66.7766 13.9856C68.6028 13.5383 70.6521 14.7561 71.4609 16.7625C74.0823 24.7903 76.0034 30.4695 77.5476 35.0349C80.9753 45.1685 82.1296 48.5825 83.7288 56.575C84.1052 58.4666 85.0352 60.2034 86.4006 61.5652L95.2844 70.4255L73.1943 92.5149L64.4792 83.8228C62.9839 82.3281 61.0117 81.3638 58.7739 81.0342C56.7004 80.7305 54.6479 80.2871 52.6309 79.7197C52.9727 79.5715 53.3147 79.4238 53.657 79.2771C55.511 78.4836 56.8484 76.8174 57.2336 74.8208C57.9668 71.0205 55.0767 67.5498 51.2629 67.5498L46.6531 67.5498L59.8762 54.3708C62.1667 52.082 62.166 48.3757 59.8772 46.0862C59.3542 45.563 58.7363 45.1443 58.0569 44.8525C59.3347 42.6162 59.0212 39.7109 57.1145 37.8044C55.2073 35.8972 52.3027 35.5842 50.0667 36.8621C49.7747 36.1824 49.3557 35.5645 48.8323 35.0417C46.5432 32.7522 42.8369 32.7522 40.5474 35.0417L38.9282 36.6609C38.6438 36.0598 38.2576 35.512 37.7871 35.0417C35.9551 33.21 33.2559 32.8689 31.1113 33.9004L10.5654 13.5247C9.04321 12.0012 9.04248 9.52319 10.5647 8.00098C12.092 6.47363 14.5608 6.47363 16.0874 8.00098C40.0789 31.7939 37.6162 29.3511 37.7944 29.5281C38.5615 30.2864 39.7974 30.2795 40.5559 29.5127C41.314 28.7461 41.3071 27.5103 40.5403 26.7517L24.3706 10.7615C22.8457 9.23706 22.845 6.76514 24.3706 5.23999C25.885 3.72534 28.3533 3.7002 29.8975 5.24463L39.5266 14.8201C40.291 15.5798 41.5269 15.5769 42.2876 14.8123C43.0481 14.0474 43.0444 12.8113 42.2798 12.0505L32.6548 2.47876C29.6091 -0.566162 24.6545 -0.566162 21.6096 2.47876C20.6248 3.4646 19.9373 4.66699 19.5879 5.97827L18.8494 5.23999C15.7961 2.18652 10.8577 2.18652 7.8042 5.23999C4.76001 8.2832 4.76001 13.2378 7.8042 16.2849L8.54956 17.0303C7.22266 17.3799 6.01245 18.0754 5.04224 19.0459C2.00049 22.0908 2.00049 27.0457 5.05078 30.0986L5.78711 30.8267C4.47314 31.1753 3.26855 31.8643 2.28223 32.8513C-0.762695 35.8962 -0.762695 40.8516 2.29419 43.908L12.3713 53.821C10.554 57.3308 9.60498 61.2256 9.604 65.178C9.60474 65.4343 9.55444 65.6885 9.4563 65.9253C9.35791 66.1624 9.21362 66.3772 9.03174 66.5581L0.607666 74.9849C-0.155273 75.7468 -0.154541 76.9829 0.607666 77.7458L17.1741 94.3123C17.5403 94.6785 18.0369 94.884 18.5544 94.884C19.0723 94.884 19.5688 94.6785 19.9351 94.3123L28.3618 85.8872C28.5427 85.7053 28.7578 85.5613 28.9946 85.4629C29.2314 85.3647 29.4856 85.3145 29.7419 85.3149C37.3386 85.3149 42.6182 83.7625 47.1355 82.0137C50.7068 83.3711 54.427 84.3438 58.2073 84.8977C59.6072 85.1035 60.821 85.6873 61.7207 86.5859L71.8181 96.657C71.9993 96.8379 72.2144 96.9814 72.4512 97.0791C72.6877 97.177 72.9414 97.2271 73.1975 97.2268C73.4539 97.2271 73.7078 97.1768 73.9446 97.0786C74.1814 96.9805 74.3965 96.8367 74.5776 96.6553L99.428 71.8042C99.6094 71.6228 99.7534 71.4075 99.8516 71.1704C99.9497 70.9331 100 70.6792 100 70.4224C100 70.1658 99.9492 69.9119 99.8508 69.6748C99.7522 69.4377 99.6082 69.2227 99.4263 69.0415L89.1594 58.8027ZM7.80347 21.8064C9.31323 20.2974 11.7776 20.2859 13.2991 21.7805L28.116 36.4297L22.593 41.9526L7.8042 27.3301C6.28296 25.8074 6.28296 23.3284 7.80347 21.8064ZM5.04395 35.6111C6.96729 33.6863 8.6228 34.4109 10.8904 35.8728L19.832 44.7136L16.8413 47.7051C15.9927 48.5544 15.2073 49.4648 14.4915 50.4287L5.04321 41.1355C3.52026 39.6125 3.52026 37.1345 5.04395 35.6111ZM25.5999 83.126L18.5532 90.1704L4.74805 76.365L11.793 69.3191C12.8992 68.2122 13.5088 66.7419 13.5088 65.1772C13.5088 61.4077 14.5334 57.7065 16.4736 54.4746C17.3486 53.0156 18.3994 51.6694 19.6025 50.4663L32.2656 37.803C32.4468 37.6216 32.6619 37.4775 32.8987 37.3792C33.1355 37.281 33.3894 37.2305 33.6458 37.2305C33.9021 37.2305 34.156 37.281 34.3928 37.3792C34.6296 37.4775 34.8447 37.6216 35.0259 37.803C35.7783 38.5544 35.7856 39.7849 35.0442 40.5449C35.0334 40.5564 35.0222 40.5679 35.0115 40.5801L26.7419 48.8474C25.9797 49.6094 25.9797 50.8462 26.7419 51.6082C27.5042 52.3706 28.74 52.3713 29.5032 51.6091C30.7383 50.373 40.0667 41.0447 43.3091 37.803C44.0706 37.0415 45.3066 37.0386 46.0708 37.803C46.8325 38.5642 46.8325 39.8035 46.0708 40.5647L32.2659 54.3711C31.5029 55.1333 31.5029 56.3691 32.2659 57.1323C32.6321 57.4983 33.1287 57.7039 33.6462 57.7039C34.1641 57.7039 34.6606 57.4983 35.0269 57.1323L51.5933 40.5659C52.3547 39.8042 53.593 39.8052 54.3538 40.5659C55.1145 41.3264 55.1145 42.5647 54.3538 43.3259L37.7874 59.8923C37.0249 60.6548 37.0249 61.8914 37.7874 62.6536C38.5496 63.4158 39.7854 63.4158 40.5481 62.6536L54.3521 48.8496C54.3528 48.8489 54.3538 48.8489 54.3545 48.8484C55.1157 48.0884 56.3547 48.0867 57.1162 48.8484C57.8838 49.616 57.874 50.8523 57.1184 51.6077L40.5505 68.1199C40.2769 68.3928 40.0901 68.7407 40.0142 69.1196C39.9385 69.4985 39.9766 69.8916 40.1243 70.2488C40.2717 70.6057 40.522 70.9109 40.8433 71.1257C41.1646 71.3403 41.5422 71.4551 41.9285 71.4548L51.2629 71.4548C52.5852 71.4548 53.677 72.6472 53.3999 74.0808C53.1331 75.4656 52.0952 75.6968 50.7434 76.2812C49.2563 76.9236 47.8528 77.531 46.4023 78.1069C42.0872 79.8228 37.0823 81.4104 29.7422 81.4104C28.1772 81.4104 26.7063 82.02 25.5999 83.1262L25.5999 83.126Z" fill="#000000" fill-opacity="1.000000" fill-rule="nonzero"/>
		<path id="Vector" d="M45.0676 17.553C44.304 18.3167 44.304 19.5525 45.0676 20.314C45.8291 21.0776 47.0671 21.0776 47.8289 20.314C48.5916 19.5525 48.5916 18.3167 47.8289 17.553C47.0671 16.7915 45.8291 16.7915 45.0676 17.553Z" fill="#000000" fill-opacity="1.000000" fill-rule="nonzero"/>
	</g>
</svg>
