<svg width="108.000000" height="108.000000" viewBox="0 0 108 108" fill="none" xmlns="http://www.w3.org/2000/svg" xmlns:xlink="http://www.w3.org/1999/xlink">
	<desc>
			Created with Pixso.
	</desc>
	<defs>
		<filter id="filter_15_161_dd" x="0.000000" y="0.000000" width="108.000000" height="108.000000" filterUnits="userSpaceOnUse" color-interpolation-filters="sRGB">
			<feFlood flood-opacity="0" result="BackgroundImageFix"/>
			<feColorMatrix in="SourceAlpha" type="matrix" values="0 0 0 0 0 0 0 0 0 0 0 0 0 0 0 0 0 0 127 0" result="hardAlpha"/>
			<feOffset dx="0" dy="4"/>
			<feGaussianBlur stdDeviation="1.33333"/>
			<feComposite in2="hardAlpha" operator="out" k2="-1" k3="1"/>
			<feColorMatrix type="matrix" values="0 0 0 0 0 0 0 0 0 0 0 0 0 0 0 0 0 0 0.25 0"/>
			<feBlend mode="normal" in2="BackgroundImageFix" result="effect_dropShadow_1"/>
			<feBlend mode="normal" in="SourceGraphic" in2="effect_dropShadow_1" result="shape"/>
		</filter>
		<clipPath id="clip15_161">
			<rect id="svg-gobbler (6) 1" width="100.000000" height="100.000000" transform="translate(4.000000 0.000000)" fill="white" fill-opacity="0"/>
		</clipPath>
	</defs>
	<g filter="url(#filter_15_161_dd)">
		<rect id="svg-gobbler (6) 1" width="100.000000" height="100.000000" transform="translate(4.000000 0.000000)" fill="#FFFFFF" fill-opacity="0"/>
		<g clip-path="url(#clip15_161)">
			<path id="Vector" d="M75.0938 25.3906L88.7656 25.3906C89.8441 25.3906 90.7188 24.5161 90.7188 23.4375L90.7188 14.0625C90.7188 12.9839 89.8441 12.1094 88.7656 12.1094L75.0938 12.1094C74.0153 12.1094 73.1406 12.9839 73.1406 14.0625L73.1406 23.4375C73.1406 24.5161 74.0153 25.3906 75.0938 25.3906ZM77.0469 16.0156L86.8125 16.0156L86.8125 21.4844L77.0469 21.4844L77.0469 16.0156ZM75.0938 34.7656L88.7656 34.7656C89.8441 34.7656 90.7188 33.8911 90.7188 32.8125C90.7188 31.7339 89.8441 30.8594 88.7656 30.8594L75.0938 30.8594C74.0153 30.8594 73.1406 31.7339 73.1406 32.8125C73.1406 33.8911 74.0153 34.7656 75.0938 34.7656ZM66.7815 25.3364C66.7815 18.0432 60.8479 12.1096 53.5544 12.1094C46.2615 12.1096 40.3281 18.0432 40.3281 25.3364C40.3281 32.6294 46.2615 38.563 53.5549 38.5632C60.848 38.563 66.7815 32.6294 66.7815 25.3364ZM53.5549 34.6567C48.4154 34.6567 44.2344 30.4756 44.2344 25.3364C44.2344 22.238 45.7551 19.4897 48.0881 17.7944C48.1953 20.3325 50.2932 22.3647 52.8574 22.3647C53.9362 22.3647 54.8105 21.49 54.8105 20.4116C54.8105 19.333 53.9362 18.4585 52.8574 18.4585C52.6273 18.4583 52.4066 18.3667 52.2439 18.2039C52.0812 18.0413 51.9896 17.8206 51.9893 17.5903C51.9893 16.7229 52.6951 16.0168 53.5629 16.0168L53.5752 16.0161C58.7051 16.0276 62.8754 20.2039 62.8754 25.3364C62.8752 30.4756 58.694 34.6567 53.5549 34.6567Z" fill="#000000" fill-opacity="1.000000" fill-rule="nonzero"/>
			<path id="Vector" d="M54.248 26.5574C54.0641 26.7407 53.8148 26.8438 53.5551 26.8438C53.2952 26.8438 53.046 26.7407 52.8619 26.5574C52.0992 25.7949 50.8625 25.7947 50.0999 26.5576C49.3372 27.3203 49.3372 28.5569 50.0999 29.3196C51.0524 30.2722 52.3036 30.748 53.5549 30.748C54.8059 30.748 56.0575 30.272 57.0098 29.3196C57.7725 28.5571 57.7727 27.3206 57.01 26.5576C56.2477 25.7947 55.0107 25.7947 54.248 26.5574Z" fill="#000000" fill-opacity="1.000000" fill-rule="nonzero"/>
			<path id="Vector" d="M102.047 45.8936L100.094 45.8936L100.094 1.95312C100.094 0.874512 99.2191 0 98.1406 0L32.9062 0C31.8275 0 30.9531 0.874512 30.9531 1.95312L30.9531 37.6953L27.2877 37.6953L24.7285 33.3232C24.5563 33.0291 24.3101 32.7852 24.0144 32.6157C23.7188 32.446 23.3838 32.3569 23.043 32.3569L5.95312 32.3569C4.87439 32.3569 4 33.2314 4 34.3101L4 88.9651C4 95.0496 8.95044 100 15.0352 100L93.0625 100C99.0935 100 104 95.0935 104 89.0625L104 47.8467C104 46.7681 103.125 45.8936 102.047 45.8936ZM7.90625 88.9651L7.90625 36.2632L21.9232 36.2632L24.4824 40.6353C24.6547 40.9292 24.9009 41.1733 25.1965 41.3428C25.4922 41.5122 25.8271 41.6016 26.168 41.6016L30.9531 41.6016L30.9531 45.8936L24.1169 45.8936C23.0383 45.8936 22.1638 46.7681 22.1638 47.8467L22.1638 88.9651C22.1638 92.896 18.9658 96.0938 15.0349 96.0938C11.1041 96.0938 7.90625 92.896 7.90625 88.9651ZM100.094 89.0625C100.094 92.9397 96.9397 96.0938 93.0625 96.0938L23.4486 96.0938C25.0818 94.1692 26.0701 91.6809 26.0701 88.9651L26.0701 49.7998L56.7344 49.7998C57.8129 49.7998 58.6875 48.9253 58.6875 47.8467C58.6875 46.7681 57.8129 45.8936 56.7344 45.8936L34.8594 45.8936L34.8594 3.90625L96.1875 3.90625L96.1875 45.8936L74.3125 45.8936C73.234 45.8936 72.3594 46.7681 72.3594 47.8467C72.3594 48.9253 73.234 49.7998 74.3125 49.7998L100.094 49.7998L100.094 89.0625Z" fill="#000000" fill-opacity="1.000000" fill-rule="nonzero"/>
			<path id="Vector" d="M82.613 63.7344L43.5505 63.7344C42.4718 63.7344 41.5974 64.6089 41.5974 65.6875L41.5974 80.2058C41.5974 81.2844 42.4718 82.1589 43.5505 82.1589L82.613 82.1589C83.6915 82.1589 84.5662 81.2844 84.5662 80.2058L84.5662 65.6875C84.5662 64.6089 83.6915 63.7344 82.613 63.7344ZM80.6599 78.2527L45.5037 78.2527L45.5037 67.6406L80.6599 67.6406L80.6599 78.2527ZM64.1426 46.4646C63.7776 46.8325 63.572 47.3291 63.5703 47.8474C63.5703 48.3611 63.7791 48.865 64.1426 49.2266C64.5059 49.5918 65.0098 49.8005 65.5234 49.8005C66.0371 49.8005 66.541 49.5918 66.9041 49.2266C67.269 48.8601 67.4747 48.3645 67.4766 47.8474C67.4766 47.3318 67.2676 46.8298 66.9041 46.4646C66.537 46.0999 66.0408 45.895 65.5234 45.8943C65.006 45.895 64.5096 46.0999 64.1426 46.4646Z" fill="#000000" fill-opacity="1.000000" fill-rule="nonzero"/>
		</g>
	</g>
</svg>
