<svg width="100.000000" height="100.000000" viewBox="0 0 100 100" fill="none" xmlns="http://www.w3.org/2000/svg" xmlns:xlink="http://www.w3.org/1999/xlink">
	<desc>
			Created with Pixso.
	</desc>
	<defs>
		<clipPath id="clip15_150">
			<rect id="svg-gobbler (4) 1" width="100.000000" height="100.000000" fill="white" fill-opacity="0"/>
		</clipPath>
	</defs>
	<rect id="svg-gobbler (4) 1" width="100.000000" height="100.000000" fill="#FFFFFF" fill-opacity="0"/>
	<g clip-path="url(#clip15_150)">
		<path id="Vector" d="M26.5972 71.7371C26.4326 71.9011 26.2095 71.9934 25.9771 71.9934C25.7444 71.9934 25.5215 71.9011 25.3569 71.7371C24.5942 70.9744 23.3574 70.9744 22.5945 71.7371C21.8318 72.4998 21.8318 73.7363 22.5945 74.4993C23.5269 75.4316 24.752 75.8979 25.9768 75.8979C27.2017 75.8979 28.4265 75.4316 29.3589 74.4993C30.1216 73.7366 30.1216 72.4998 29.3589 71.7371C28.5962 70.9741 27.3599 70.9741 26.5972 71.7371Z" fill="#000000" fill-opacity="1.000000" fill-rule="nonzero"/>
		<path id="Vector" d="M99.9722 97.7188C99.0798 92.4763 96.614 87.7112 92.8416 83.939C91.4521 82.5488 89.9075 81.323 88.238 80.2854C91.3723 76.8579 93.2871 72.2974 93.2871 67.2979C93.2871 56.676 84.6455 48.0342 74.0232 48.0337C72.9768 48.0337 72.1252 47.1824 72.1252 46.1357C72.1252 45.0894 72.9766 44.238 74.0232 44.238C75.1018 44.238 75.9763 43.3635 75.9763 42.2849C75.9763 41.2061 75.1018 40.3318 74.0232 40.3318C70.8225 40.3318 68.219 42.9353 68.219 46.1357C68.219 47.073 68.4438 47.9585 68.8398 48.7429C60.7273 51.0122 54.7595 58.4709 54.7593 67.2979C54.7593 72.2971 56.6741 76.8577 59.8083 80.2852C58.1389 81.3228 56.5942 82.5488 55.2046 83.939C53.0076 86.136 51.2576 88.6711 49.9998 91.4397C48.7417 88.6711 46.9917 86.136 44.7949 83.939C43.405 82.5488 41.8604 81.3228 40.1909 80.2852C43.3254 76.8577 45.2402 72.2971 45.2402 67.2976C45.2402 56.6755 36.5986 48.0337 25.9763 48.0334C24.9299 48.0334 24.0784 47.1821 24.0784 46.1353C24.0784 45.0889 24.9297 44.2375 25.9763 44.2375C27.0552 44.2375 27.9294 43.363 27.9294 42.2844C27.9294 41.2058 27.0552 40.3313 25.9763 40.3313C22.7761 40.3313 20.1721 42.9351 20.1721 46.1353C20.1721 47.0728 20.397 47.958 20.7932 48.7427C12.6807 51.012 6.71289 58.4707 6.71265 67.2974C6.71265 72.2969 8.62744 76.8572 11.7617 80.2847C10.0923 81.3223 8.54761 82.5483 7.15796 83.9385C3.38574 87.7109 0.920166 92.4758 0.027832 97.7183C-0.153076 98.7815 0.562012 99.7903 1.62549 99.9714C1.73657 99.9902 1.84668 99.9993 1.95557 99.9993C2.89014 99.9993 3.71655 99.3262 3.87866 98.3735C4.63428 93.9338 6.72339 89.8975 9.92017 86.7007C11.3774 85.2427 13.0349 83.9998 14.8425 83.0093C17.9885 85.2451 21.8318 86.561 25.9766 86.561C30.1216 86.561 33.9646 85.2449 37.1106 83.0093C38.9182 83.9995 40.5757 85.2424 42.0327 86.7004C45.2295 89.897 47.3186 93.9336 48.0742 98.3733C48.2363 99.3259 49.0625 99.999 49.9976 99.999C50.1064 99.999 50.2168 99.99 50.3274 99.9712C51.1675 99.8281 51.7881 99.168 51.9236 98.373L51.925 98.3733C52.6807 93.9336 54.7698 89.8972 57.9668 86.7004C59.4238 85.2424 61.0813 83.9995 62.8889 83.0093C66.0347 85.2451 69.8782 86.561 74.0229 86.5613C78.168 86.5613 82.011 85.2451 85.1572 83.0093C86.9648 83.9998 88.6221 85.2427 90.0791 86.7007C93.2761 89.8975 95.365 93.9338 96.1208 98.3738C96.283 99.3262 97.1094 99.9995 98.0442 99.9995C98.1528 99.9995 98.2632 99.9902 98.374 99.9717C99.4377 99.7908 100.153 98.782 99.9722 97.7188ZM10.6191 67.2979C10.6194 58.8296 17.5088 51.9402 25.9766 51.9399C34.4448 51.9399 41.3342 58.8296 41.3345 67.2979C41.3345 75.7659 34.4451 82.6553 25.9768 82.6555C17.5085 82.6553 10.6191 75.7659 10.6191 67.2979ZM58.6658 67.2979C58.666 58.8296 65.5552 51.9402 74.0234 51.9399C82.4915 51.9399 89.3811 58.8296 89.3811 67.2979C89.3811 75.7659 82.4917 82.6553 74.0234 82.6555C65.5552 82.6553 58.6658 75.7659 58.6658 67.2979Z" fill="#000000" fill-opacity="1.000000" fill-rule="nonzero"/>
		<path id="Vector" d="M74.6433 71.7371C74.4199 71.9604 74.1592 71.9939 74.0234 71.9939C73.8877 71.9939 73.6267 71.9604 73.4033 71.7371C72.6409 70.9744 71.4043 70.9744 70.6411 71.7371C69.8782 72.4998 69.8782 73.7363 70.6409 74.499C71.084 74.9446 71.6111 75.2979 72.1917 75.5383C72.7722 75.7788 73.3948 75.9019 74.0232 75.9001C74.6516 75.9016 75.2739 75.7788 75.8545 75.5383C76.4351 75.2979 76.9622 74.9446 77.4053 74.499C78.168 73.7363 78.168 72.4998 77.405 71.7371C76.6428 70.9741 75.406 70.9744 74.6433 71.7371ZM20.634 32.7866C21.0154 33.168 21.5154 33.3586 22.0151 33.3586C22.5149 33.3586 23.0149 33.168 23.3962 32.7866L28.303 27.8799C29.0657 27.1172 29.0657 25.8804 28.303 25.1174C27.5403 24.355 26.3035 24.355 25.5408 25.1174L22.0149 28.6433L10.6248 17.2532L15.0439 12.8337L20.634 18.4238C21.397 19.1865 22.6335 19.1865 23.3962 18.4238L37.1047 4.71558L41.5239 9.13477L37.9895 12.6692C37.2268 13.4319 37.2268 14.6685 37.9895 15.4314C38.7522 16.1941 39.9888 16.1941 40.7517 15.4314L45.667 10.5161C46.4297 9.75342 46.4297 8.5166 45.667 7.75391L38.4856 0.572266C37.7227 -0.190186 36.4861 -0.190186 35.7231 0.572266L22.0149 14.2808L16.425 8.69043C15.6624 7.92773 14.4258 7.92773 13.6628 8.69043L6.4812 15.8721C5.71851 16.6348 5.71851 17.8716 6.4812 18.6343L20.634 32.7866Z" fill="#000000" fill-opacity="1.000000" fill-rule="nonzero"/>
		<path id="Vector" d="M31.7734 18.8828C31.4102 19.248 31.2031 19.752 31.2031 20.2656C31.2031 20.7793 31.4102 21.2832 31.7734 21.6465C32.1414 22.0115 32.6379 22.217 33.1562 22.2188C33.6699 22.2188 34.1738 22.0098 34.5371 21.6465C34.9004 21.2832 35.1094 20.7793 35.1094 20.2656C35.1077 19.7473 34.9021 19.2507 34.5371 18.8828C34.1738 18.5195 33.6699 18.3125 33.1562 18.3125C32.6426 18.3125 32.1387 18.5198 31.7734 18.8828Z" fill="#000000" fill-opacity="1.000000" fill-rule="nonzero"/>
	</g>
</svg>
