<svg width="764.000000" height="764.000000" viewBox="0 0 764 764" fill="none" xmlns="http://www.w3.org/2000/svg" xmlns:xlink="http://www.w3.org/1999/xlink">
	<desc>
			Created with Pixso.
	</desc>
	<defs/>
	<path d="M424.805 1.25482C511.82 -5.01813 606.306 11.3478 670.612 70.3434C733.141 127.709 740.4 220.39 754.842 304.039C767.677 378.37 768.131 451.744 749.065 524.725C728.301 604.208 709.669 694.352 641.082 739.505C572.742 784.495 483.868 753.884 402.069 753.162C317.927 752.419 226.482 781.926 156.463 735.228C85.1699 687.679 65.9099 594.506 41.1312 512.435C16.1052 429.546 -19.5986 340.72 13.1558 260.573C45.5212 181.378 135.822 149.263 208.181 103.68C277.462 60.0364 343.15 7.1413 424.805 1.25482Z" fill="#307632" fill-opacity="1.000000" fill-rule="nonzero"/>
</svg>
