<svg width="188.000000" height="178.000000" viewBox="0 0 188 178" fill="none" xmlns="http://www.w3.org/2000/svg" xmlns:xlink="http://www.w3.org/1999/xlink">
	<desc>
			Created with Pixso.
	</desc>
	<defs/>
	<path d="M97.2444 1.29834C114.69 1.49829 132.722 -1.38623 148.488 5.59668C164.857 12.8472 180.619 24.7322 186.382 40.78C192.029 56.5032 181.302 72.7524 178.487 89.1274C176.097 103.031 175.741 116.688 171.032 130.064C165.297 146.354 164.459 168.284 147.97 175.813C131.251 183.448 112.455 168.943 94.3069 165.099C79.985 162.064 65.6915 161.013 52.2292 155.53C37.2827 149.442 21.0439 143.886 11.649 131.434C1.948 118.576 -0.241943 102.063 0.0202637 86.3328C0.282837 70.5918 5.30383 55.4912 13.1476 41.5583C21.3015 27.0747 30.5455 11.8853 46.1329 4.4231C61.5917 -2.97754 79.8762 1.09912 97.2444 1.29834Z" fill="#454144" fill-opacity="1.000000" fill-rule="nonzero"/>
</svg>
