<svg width="2937.111816" height="1767.479004" viewBox="0 0 2937.11 1767.48" fill="none" xmlns="http://www.w3.org/2000/svg" xmlns:xlink="http://www.w3.org/1999/xlink">
	<desc>
			Created with Pixso.
	</desc>
	<defs/>
	<path d="M1315.45 1196.68C1012.83 1157.21 803.879 1422.19 516.844 1290.13C292.501 1186.92 690.149 1020.38 586.801 861.454C487.973 709.482 68.2606 658.348 6.95685 506.062C-48.3749 368.611 241.373 349.455 345.032 260.867C426.246 191.461 418.507 59.7832 555.716 37.0869C709.521 11.645 938.023 159.534 1094.11 136.958C1242.57 115.485 1261.1 33.7607 1391.58 6.22314C1578.98 -33.3271 1623.35 127.25 1786.19 161.116C2002.83 206.172 2160.41 74.0835 2376.63 132.684C2564.11 183.497 2732.2 319.637 2826.51 443.072C2921.78 567.773 2928.61 700.912 2894.37 810.346C2862.16 913.301 2631.63 930.87 2638.37 1044.43C2646.33 1178.44 2978.19 1339.78 2932.86 1458.69C2893.45 1562.08 2586.59 1466 2457.66 1518.48C2322.85 1573.36 2365.1 1785.18 2177.23 1766.29C1966.18 1745.07 1804.97 1552.09 1627.89 1435.04C1514.28 1359.95 1451.97 1214.48 1315.45 1196.68Z" fill="#FFFFFF" fill-opacity="1.000000" fill-rule="nonzero"/>
</svg>
