<svg width="2374.422363" height="1385.448975" viewBox="0 0 2374.42 1385.45" fill="none" xmlns="http://www.w3.org/2000/svg" xmlns:xlink="http://www.w3.org/1999/xlink">
	<desc>
			Created with Pixso.
	</desc>
	<defs/>
	<path id="Vector" d="M920.062 35.2578C774.469 62.5328 656.44 120.958 532.196 174.335C408.465 227.492 276.786 274.115 187.647 349.916C93.0588 430.35 15.6992 522.717 2.53174 624.745C-10.7837 727.922 28.7744 836.329 112.942 928.773C194.057 1017.86 352.465 1063.56 468.327 1136.34C588.993 1212.14 655.022 1331.86 813.133 1368.6C970.79 1405.25 1128.99 1328.7 1293.85 1328.2C1484.22 1327.63 1699.73 1426.7 1858.2 1365.46C2014.46 1305.06 1953.02 1142.1 2039.61 1039.98C2124.85 939.447 2322.03 884.238 2361.67 771.693C2401.89 657.527 2341.52 532.28 2256.68 423.688C2173.68 317.467 2033.08 233.512 1884.1 160.481C1742.3 90.9668 1584.79 32.0055 1411.85 9.54187C1246.08 -11.9908 1078.08 5.65442 920.062 35.2578Z" fill="#FFFFFF" fill-opacity="1.000000" fill-rule="nonzero"/>
</svg>
