<svg width="199.000000" height="190.000000" viewBox="0 0 199 190" fill="none" xmlns="http://www.w3.org/2000/svg" xmlns:xlink="http://www.w3.org/1999/xlink">
	<desc>
			Created with Pixso.
	</desc>
	<defs/>
	<path id="Vector" d="M101.803 0.00146484C120.83 -0.0788574 140.021 3.16138 156.08 13.0217C172.614 23.1736 185.672 38.2439 192.8 55.8745C199.891 73.4104 200.934 92.9885 195.751 111.137C190.788 128.512 177.676 141.888 164.569 154.714C151.682 167.324 138.01 179.401 120.523 184.749C102.31 190.319 81.8578 192.799 64.3748 185.357C47.3228 178.099 39.3185 160.054 28.3367 145.509C17.7963 131.548 4.65417 118.896 1.37012 101.91C-2.06226 84.1553 1.03381 65.416 9.76514 49.446C18.4446 33.571 33.4825 22.1958 49.7225 13.4712C65.754 4.85889 83.4602 0.0788574 101.803 0.00146484Z" fill="#307632" fill-opacity="1.000000" fill-rule="nonzero"/>
</svg>
