<svg width="2937.000000" height="1768.000000" viewBox="0 0 2937 1768" fill="none" xmlns="http://www.w3.org/2000/svg" xmlns:xlink="http://www.w3.org/1999/xlink">
	<defs/>
	<path id="Vector" d="M1315.02 1196.49C1012.39 1157.02 803.44 1422 516.41 1289.94C292.07 1186.74 689.71 1020.19 586.37 861.26C487.54 709.29 67.82 658.16 6.52 505.87C-48.81 368.42 240.94 349.27 344.6 260.68C425.81 191.27 418.07 59.59 555.28 36.9C709.09 11.46 937.59 159.34 1093.68 136.77C1242.14 115.3 1260.67 33.57 1391.15 6.03C1578.55 -33.52 1622.92 127.06 1785.76 160.93C2002.4 205.98 2159.98 73.89 2376.19 132.49C2563.68 183.31 2731.77 319.45 2826.08 442.88C2921.35 567.58 2928.18 700.72 2893.94 810.16C2861.73 913.11 2631.2 930.68 2637.94 1044.24C2645.9 1178.25 2977.76 1339.6 2932.43 1458.51C2893.02 1561.89 2586.15 1465.82 2457.23 1518.3C2322.42 1573.18 2364.67 1785 2176.8 1766.11C1965.75 1744.88 1804.54 1551.9 1627.46 1434.86C1513.85 1359.76 1451.54 1214.3 1315.02 1196.49Z" fill="#FFFFFF" fill-opacity="1.000000" fill-rule="nonzero"/>
</svg>
