<svg width="2237.509277" height="1540.241455" viewBox="0 0 2237.51 1540.24" fill="none" xmlns="http://www.w3.org/2000/svg" xmlns:xlink="http://www.w3.org/1999/xlink">
	<desc>
			Created with Pixso.
	</desc>
	<defs/>
	<path id="Vector" d="M622.244 1274C499.052 1191.75 413.442 1091.67 320.133 993.8C227.21 896.33 124.411 801.75 72.1934 697.037C16.783 585.923 -18.0978 470.6 9.85242 371.595C38.1176 271.475 117.063 187.306 230.769 135.333C340.35 85.2458 503.98 105.414 639.114 83.971C779.85 61.6389 887.582 -22.5389 1047.42 5.7453C1206.81 33.9483 1322.25 166.461 1473.67 231.648C1648.53 306.921 1885.64 300.426 2007.33 418.97C2127.33 535.868 2006.83 661.625 2046.37 789.544C2085.3 915.468 2244.97 1043.67 2237.24 1162.74C2229.39 1283.52 2124.7 1375.01 2004.03 1441.57C1885.99 1506.67 1723.72 1528.68 1558.03 1537.35C1400.32 1545.6 1232.31 1537.99 1064.45 1490.75C903.533 1445.46 755.952 1363.27 622.244 1274Z" fill="#FFFFFF" fill-opacity="1.000000" fill-rule="nonzero"/>
</svg>
