<svg width="202.000000" height="180.000000" viewBox="0 0 202 180" fill="none" xmlns="http://www.w3.org/2000/svg" xmlns:xlink="http://www.w3.org/1999/xlink">
	<desc>
			Created with Pixso.
	</desc>
	<defs/>
	<path d="M137.844 18.4497C152.116 25.7551 165.418 33.7839 176.027 44.647C187.37 56.2615 198.752 68.6387 201.385 83.5122C204.093 98.8052 197.365 113.785 190.825 128.232C183.82 143.709 178.037 161.053 161.965 170.599C145.843 180.175 124.447 178.854 104.729 179.368C85.707 179.864 65.1257 182.103 49.0374 173.542C33.2507 165.142 28.6108 148.105 19.863 134.211C12.033 121.774 1.84644 110.13 0.288086 96.1147C-1.28394 81.9766 3.75513 68.0286 11.082 55.2393C18.4077 42.4512 29.4583 31.8364 42.3521 22.6885C56.29 12.7998 70.6831 0.848877 88.8826 0.0410156C107.04 -0.765137 122.306 10.4963 137.844 18.4497Z" fill="#000000" fill-opacity="1.000000" fill-rule="nonzero"/>
</svg>
