<svg width="519.000000" height="529.000000" viewBox="0 0 519 529" fill="none" xmlns="http://www.w3.org/2000/svg" xmlns:xlink="http://www.w3.org/1999/xlink">
	<desc>
			Created with Pixso.
	</desc>
	<defs/>
	<path id="Vector" d="M311.095 1.60693C369.203 7.14209 436.651 10.1494 474.193 54.8447C511.627 99.4126 490.961 166.473 498.09 224.237C504.311 274.652 530.219 324.813 513.424 372.754C496.615 420.737 451.14 451.356 408.711 479.369C368.805 505.717 324.887 526.42 277.125 528.771C230.431 531.069 185.03 515.882 144.625 492.366C105.449 469.566 75.6736 435.514 51.2639 397.321C25.7698 357.431 4.39453 314.801 0.965088 267.585C-2.7583 216.321 3.677 163.024 31.0886 119.544C59.3367 74.7378 105.482 44.9326 154.298 24.3716C203.976 3.44727 257.432 -3.50488 311.095 1.60693Z" fill="#FFA07D" fill-opacity="1.000000" fill-rule="nonzero"/>
</svg>
