<svg width="26.000000" height="15.000000" viewBox="0 0 26 15" fill="none" xmlns="http://www.w3.org/2000/svg" xmlns:xlink="http://www.w3.org/1999/xlink">
	
	<defs>
		<clipPath id="clip44_310">
			<rect id="social1.svg" width="26.000000" height="15.000000" fill="white" fill-opacity="0"/>
		</clipPath>
	</defs>
	<g clip-path="url(#clip44_310)">
		<path id="Vector" d="M24.85 14.5C23.96 15.06 20.35 15.22 19.47 14.59C18.99 14.24 18.55 13.8 18.14 13.39C17.85 13.1 17.51 12.96 17.26 12.64C17.06 12.38 16.92 12.08 16.7 11.82C16.34 11.4 15.78 11.03 15.34 11.56C14.67 12.34 15.44 13.88 14.55 14.47C14.26 14.67 13.96 14.72 13.58 14.69L12.76 14.73C12.27 14.74 11.51 14.75 10.95 14.65C10.34 14.54 9.83 14.2 9.28 13.95C8.22 13.48 7.21 12.85 6.45 11.96C4.37 9.56 1.57 6.25 0.48 3.22C0.26 2.6 -0.33 1.37 0.23 0.84C0.99 0.28 4.73 0.13 5.31 0.98C5.55 1.33 5.69 1.84 5.86 2.23C6.07 2.72 6.18 3.19 6.51 3.62C6.8 4.01 7.01 4.39 7.23 4.82C7.48 5.29 7.72 5.75 8.03 6.18C8.23 6.48 8.78 7.07 9.12 7.12C9.97 7.22 9.91 5.17 9.85 4.67C9.79 4.19 9.78 3.68 9.79 3.19C9.81 2.77 9.84 2.19 9.6 1.85C9.19 1.29 8.3 1.71 8.23 0.96C8.38 0.75 8.34 0.56 9.33 0.23C10.11 -0.02 10.62 -0.01 11.13 0.03C12.18 0.11 13.29 -0.17 14.3 0.17C15.26 0.49 15.11 1.86 15.08 2.69C15.04 3.81 15.09 4.91 15.08 6.05C15.08 6.57 15.06 7.07 15.69 7.03C16.29 6.99 16.35 6.49 16.63 6.08C17.02 5.5 17.38 4.92 17.79 4.35C18.33 3.58 18.49 2.71 19 1.91C19.18 1.63 19.34 1.01 19.62 0.79C19.83 0.62 20.23 0.69 20.49 0.69L21.1 0.69C21.57 0.7 22.04 0.7 22.52 0.72C23.22 0.74 23.99 0.59 24.68 0.69C27.64 1.11 20.96 7.44 21.3 8.57C21.54 9.35 23.07 10.22 23.62 10.86C24.35 11.71 26.6 13.41 24.85 14.5Z" fill="#FFFFFF" fill-opacity="1.000000" fill-rule="nonzero"/>
	</g>
</svg>
