<svg width="25.505615" height="15.000000" viewBox="0 0 25.5056 15" fill="none" xmlns="http://www.w3.org/2000/svg" xmlns:xlink="http://www.w3.org/1999/xlink">
	<desc>
			Created with Pixso.
	</desc>
	<defs/>
	<path id="Vector" d="M24.8552 14.5047C23.9668 15.0613 20.3521 15.2269 19.4771 14.5912C18.9973 14.2427 18.5583 13.8064 18.1414 13.3914C17.8501 13.101 17.5188 12.96 17.2686 12.6449C17.0647 12.3869 16.9243 12.0827 16.7087 11.8288C16.3457 11.4016 15.7859 11.0384 15.3428 11.5602C14.6765 12.3447 15.448 13.8869 14.5591 14.4734C14.2607 14.6703 13.9602 14.7273 13.5879 14.6991L12.7629 14.7367C12.2781 14.7462 11.5105 14.7505 10.9595 14.651C10.344 14.5402 9.83667 14.204 9.28101 13.9572C8.22559 13.4892 7.21948 12.8513 6.45435 11.9677C4.37207 9.56155 1.57495 6.25208 0.488281 3.22672C0.264404 2.60504 -0.325195 1.37469 0.234131 0.841278C0.995117 0.288544 4.7312 0.13205 5.31348 0.987549C5.55029 1.33463 5.69946 1.84412 5.86694 2.23758C6.07495 2.72845 6.18823 3.19153 6.51392 3.62616C6.80225 4.01187 7.01514 4.39938 7.23853 4.82236C7.48926 5.29672 7.72559 5.75171 8.03027 6.18878C8.23706 6.4859 8.78394 7.07629 9.12915 7.12057C9.97241 7.22852 9.91968 5.17926 9.85718 4.67856C9.79736 4.19647 9.78149 3.68521 9.79736 3.19611C9.81104 2.77908 9.84863 2.19153 9.60132 1.8508C9.19873 1.29523 8.30225 1.71121 8.23193 0.964722C8.38013 0.752686 8.34863 0.564545 9.33813 0.238953C10.1169 -0.0173645 10.6201 -0.00927734 11.1338 0.0318604C12.1816 0.115875 13.2925 -0.167877 14.3032 0.171783C15.2688 0.49704 15.1199 1.86942 15.0874 2.69223C15.0442 3.81567 15.0903 4.91168 15.0874 6.0513C15.0862 6.57065 15.0657 7.07523 15.698 7.03339C16.2915 6.99365 16.3516 6.49469 16.6345 6.08258C17.0288 5.50839 17.3899 4.92645 17.791 4.354C18.3315 3.58078 18.4944 2.71194 19.0032 1.91971C19.1853 1.63596 19.3418 1.01675 19.6221 0.792755C19.8345 0.623627 20.2373 0.696075 20.4939 0.696075L21.1045 0.696075C21.572 0.701691 22.0488 0.708374 22.5288 0.72525C23.2205 0.749176 23.9951 0.59903 24.6812 0.695709C27.6404 1.11343 20.9617 7.44373 21.3091 8.57315C21.5496 9.35303 23.0728 10.2268 23.6228 10.8661C24.356 11.7163 26.603 13.4108 24.8552 14.5047Z" fill="#307632" fill-opacity="1.000000" fill-rule="nonzero"/>
</svg>
