<svg width="62.000000" height="62.000000" viewBox="0 0 62 62" fill="none" xmlns="http://www.w3.org/2000/svg" xmlns:xlink="http://www.w3.org/1999/xlink">
	<desc>
			Created with Pixso.
	</desc>
	<defs/>
	<path id="Vector" d="M43.83 0L18.16 0C8.13 0 0 8.13 0 18.16L0 43.83C0 53.86 8.13 62 18.16 62L43.83 62C53.86 62 62 53.86 62 43.83L62 18.16C62 8.13 53.86 0 43.83 0ZM35.18 47.99C34.94 48.55 34.62 49.03 34.21 49.44C33.8 49.85 33.33 50.17 32.78 50.41C32.23 50.65 31.64 50.77 31.02 50.77C30.4 50.77 29.79 50.65 29.24 50.41C28.69 50.17 28.21 49.85 27.79 49.44C27.37 49.03 27.04 48.55 26.8 47.99C26.56 47.43 26.44 46.83 26.44 46.19C26.44 45.56 26.56 44.99 26.8 44.44C27.04 43.89 27.37 43.41 27.79 43C28.21 42.59 28.69 42.27 29.24 42.03C29.79 41.79 30.38 41.67 31.02 41.67C31.66 41.67 32.23 41.79 32.78 42.03C33.33 42.27 33.8 42.59 34.21 43C34.62 43.41 34.94 43.89 35.18 44.44C35.42 44.99 35.54 45.57 35.54 46.19C35.54 46.81 35.42 47.43 35.18 47.99ZM33.95 39.49L28.02 39.49L26.39 10.77L35.6 10.77L33.95 39.49L33.95 39.49Z" fill="#FFFFFF" fill-opacity="1.000000" fill-rule="nonzero"/>
</svg>
