<svg width="40.000000" height="40.000000" viewBox="0 0 40 40" fill="none" xmlns="http://www.w3.org/2000/svg" xmlns:xlink="http://www.w3.org/1999/xlink">
	<desc>
			Created with Pixso.
	</desc>
	<defs/>
	<path id="Vector" d="M28.2812 0L11.7188 0C5.24683 0 0 5.24707 0 11.7188L0 28.2812C0 34.7529 5.24683 40 11.7188 40L28.2812 40C34.7532 40 40 34.7529 40 28.2812L40 11.7188C40 5.24707 34.7532 0 28.2812 0ZM22.7024 30.9639C22.5476 31.3242 22.3391 31.6357 22.0758 31.8994C21.8125 32.1626 21.5039 32.3711 21.1492 32.5259C20.7946 32.6807 20.4172 32.7568 20.0164 32.7568C19.6156 32.7568 19.2211 32.6797 18.8665 32.5259C18.5117 32.3711 18.2 32.1626 17.9313 31.8994C17.6625 31.6357 17.4508 31.3242 17.2961 30.9639C17.1414 30.604 17.0641 30.2173 17.0641 29.8057C17.0641 29.3936 17.1414 29.0273 17.2961 28.6729C17.4508 28.3179 17.6617 28.0093 17.9313 27.7461C18.2 27.4829 18.5117 27.2744 18.8665 27.1196C19.2211 26.9648 19.6039 26.8877 20.0164 26.8877C20.429 26.8877 20.7946 26.9648 21.1492 27.1196C21.5039 27.2744 21.8125 27.4829 22.0758 27.7461C22.3391 28.0093 22.5476 28.3179 22.7024 28.6729C22.8571 29.0273 22.9343 29.4048 22.9343 29.8057C22.9343 30.2061 22.8571 30.603 22.7024 30.9639ZM21.9047 25.4819L18.0781 25.4819L17.0312 6.9502L22.968 6.9502L21.9039 25.4819L21.9047 25.4819Z" fill="#FFFFFF" fill-opacity="1.000000" fill-rule="nonzero"/>
</svg>
