<svg width="24.000000" height="24.000000" viewBox="0 0 24 24" fill="none" xmlns="http://www.w3.org/2000/svg" xmlns:xlink="http://www.w3.org/1999/xlink">
	<desc>
			Created with Pixso.
	</desc>
	<defs>
		<clipPath id="clip13_26">
			<rect id="whatsapp (2) 1" width="24.000000" height="24.000000" fill="white" fill-opacity="0"/>
		</clipPath>
	</defs>
	<rect id="whatsapp (2) 1" width="24.000000" height="24.000000" fill="#FFFFFF" fill-opacity="0"/>
	<g clip-path="url(#clip13_26)">
		<path id="Vector" d="M17.7588 13.7907C17.7122 13.7683 15.9624 12.9067 15.6516 12.7948C15.5247 12.7492 15.3887 12.7047 15.2439 12.7047C15.0078 12.7047 14.8093 12.8224 14.6548 13.0537C14.48 13.3135 13.9509 13.932 13.7874 14.1167C13.7659 14.1411 13.7368 14.1703 13.7195 14.1703C13.7036 14.1703 13.4329 14.0588 13.3511 14.0232C11.4741 13.2079 10.0493 11.2473 9.854 10.9166C9.82617 10.8691 9.82495 10.8475 9.82471 10.8475C9.83154 10.8224 9.89478 10.7591 9.92725 10.7264C10.0227 10.6321 10.1257 10.5079 10.2258 10.3876C10.2722 10.3312 10.3193 10.2753 10.3669 10.2198C10.512 10.0512 10.5764 9.92032 10.6511 9.76871L10.6904 9.68991C10.873 9.32703 10.717 9.02078 10.6665 8.92191C10.6252 8.83917 9.88647 7.05615 9.80786 6.86884C9.61914 6.41681 9.36938 6.20633 9.02271 6.20633C8.99048 6.20633 9.02271 6.20633 8.8877 6.21201C8.72339 6.21896 7.82837 6.33676 7.43262 6.58621C7.01318 6.85074 6.30322 7.69403 6.30322 9.17703C6.30322 10.5117 7.15015 11.772 7.51392 12.2513C7.52295 12.2634 7.53955 12.2879 7.56372 12.3231C8.9563 14.3571 10.6924 15.8644 12.4526 16.5675C14.147 17.2443 14.9492 17.3225 15.4055 17.3225L15.4055 17.3225C15.5972 17.3225 15.7507 17.3075 15.886 17.2942L15.9719 17.286C16.5571 17.2341 17.8435 16.5676 18.1362 15.7544C18.3667 15.114 18.4275 14.4142 18.2742 14.1603C18.1689 13.9876 17.988 13.9008 17.7588 13.7907Z" fill="#307632" fill-opacity="1.000000" fill-rule="nonzero"/>
		<path id="Vector" d="M12.2131 0C5.71313 0 0.425049 5.24835 0.425049 11.6995C0.425049 13.786 0.983398 15.8284 2.04126 17.6159L0.0166016 23.5883C-0.00195312 23.6429 -0.00512695 23.7015 0.0078125 23.7578C0.0205078 23.814 0.0488281 23.8655 0.0891113 23.9067C0.129639 23.9478 0.18042 23.977 0.236572 23.9909C0.29248 24.0048 0.351074 24.0029 0.406006 23.9854L6.63354 22.0064C8.33789 22.917 10.2639 23.3976 12.2131 23.3976C18.7124 23.3977 24 18.1498 24 11.6995C24 5.24835 18.7124 0 12.2131 0ZM12.2131 20.9606C10.3789 20.9606 8.60229 20.4309 7.0752 19.4289C7.03638 19.4034 6.99243 19.387 6.94653 19.3807C6.90063 19.3744 6.854 19.3784 6.80981 19.3925L3.69019 20.3841L4.69727 17.413C4.71338 17.3656 4.71777 17.315 4.71021 17.2656C4.70264 17.2161 4.68311 17.1692 4.65356 17.1288C3.49072 15.5399 2.87598 13.6625 2.87598 11.6995C2.87598 6.59219 7.06445 2.4371 12.2131 2.4371C17.3608 2.4371 21.5491 6.59219 21.5491 11.6995C21.5491 16.8061 17.3611 20.9606 12.2131 20.9606Z" fill="#307632" fill-opacity="1.000000" fill-rule="nonzero"/>
	</g>
</svg>
