<svg width="24.000000" height="24.000000" viewBox="0 0 24 24" fill="none" xmlns="http://www.w3.org/2000/svg" xmlns:xlink="http://www.w3.org/1999/xlink">
	
	<defs>
		<clipPath id="clip44_315">
			<rect id="whatsapp (2) 2" width="24.000000" height="24.000000" fill="white" fill-opacity="0"/>
		</clipPath>
	</defs>
	<rect id="whatsapp (2) 2" width="24.000000" height="24.000000" fill="#FFFFFF" fill-opacity="0"/>
	<g clip-path="url(#clip44_315)">
		<path id="Vector" d="M17.75 13.79C17.71 13.76 15.96 12.9 15.65 12.79C15.52 12.74 15.38 12.7 15.24 12.7C15 12.7 14.8 12.82 14.65 13.05C14.47 13.31 13.95 13.93 13.78 14.11C13.76 14.14 13.73 14.17 13.71 14.17C13.7 14.17 13.43 14.05 13.35 14.02C11.47 13.2 10.04 11.24 9.85 10.91C9.82 10.86 9.82 10.84 9.82 10.84C9.83 10.82 9.89 10.75 9.92 10.72C10.02 10.63 10.12 10.5 10.22 10.38C10.27 10.33 10.31 10.27 10.36 10.22C10.51 10.05 10.57 9.92 10.65 9.76L10.69 9.69C10.87 9.32 10.71 9.02 10.66 8.92C10.62 8.83 9.88 7.05 9.8 6.86C9.61 6.41 9.36 6.2 9.02 6.2C8.99 6.2 9.02 6.2 8.88 6.21C8.72 6.21 7.82 6.33 7.43 6.58C7.01 6.85 6.3 7.69 6.3 9.17C6.3 10.51 7.15 11.77 7.51 12.25C7.52 12.26 7.53 12.28 7.56 12.32C8.95 14.35 10.69 15.86 12.45 16.56C14.14 17.24 14.94 17.32 15.4 17.32L15.4 17.32C15.59 17.32 15.75 17.3 15.88 17.29L15.97 17.28C16.55 17.23 17.84 16.56 18.13 15.75C18.36 15.11 18.42 14.41 18.27 14.16C18.16 13.98 17.98 13.9 17.75 13.79Z" fill="#FFFFFF" fill-opacity="1.000000" fill-rule="nonzero"/>
		<path id="Vector" d="M12.21 0C5.71 0 0.42 5.24 0.42 11.69C0.42 13.78 0.98 15.82 2.04 17.61L0.01 23.58C-0.01 23.64 -0.01 23.7 0 23.75C0.02 23.81 0.04 23.86 0.08 23.9C0.12 23.94 0.18 23.97 0.23 23.99C0.29 24 0.35 24 0.4 23.98L6.63 22C8.33 22.91 10.26 23.39 12.21 23.39C18.71 23.39 23.99 18.14 23.99 11.69C23.99 5.24 18.71 0 12.21 0ZM12.21 20.96C10.37 20.96 8.6 20.43 7.07 19.42C7.03 19.4 6.99 19.38 6.94 19.38C6.9 19.37 6.85 19.37 6.8 19.39L3.69 20.38L4.69 17.41C4.71 17.36 4.71 17.31 4.7 17.26C4.7 17.21 4.68 17.16 4.65 17.12C3.49 15.53 2.87 13.66 2.87 11.69C2.87 6.59 7.06 2.43 12.21 2.43C17.36 2.43 21.54 6.59 21.54 11.69C21.54 16.8 17.36 20.96 12.21 20.96Z" fill="#FFFFFF" fill-opacity="1.000000" fill-rule="nonzero"/>
	</g>
</svg>
