<svg width="3293.345947" height="2062.565186" viewBox="0 0 3293.35 2062.57" fill="none" xmlns="http://www.w3.org/2000/svg" xmlns:xlink="http://www.w3.org/1999/xlink">
	<desc>
			Created with Pixso.
	</desc>
	<defs/>
	<path d="M1079.85 1866.71C888.13 1783.91 744.006 1666.86 589.767 1554.81C436.164 1443.23 269.6 1338.16 170.608 1206.2C65.5647 1066.17 -12.0771 915.1 1.55469 770.708C15.3401 624.691 103.457 487.929 247.95 386.995C387.201 289.722 619.238 276.16 801.195 212.125C990.697 145.434 1118.73 1.35474 1347.57 0.00878906C1483.08 -0.788086 1606.44 53.3621 1731.73 108.363C1817.42 145.978 1904.01 183.992 1996.02 205.097C2097.59 228.396 2209.04 232.218 2319.03 235.99C2492.32 241.933 2661.98 247.752 2783.62 329.422C2979.71 461.076 2844.53 666.055 2931.83 833.413C3017.77 998.163 3271.74 1135.42 3291.24 1302.5C3311.01 1472 3189.05 1625.44 3038.6 1748.37C2891.43 1868.61 2671.98 1940.32 2444.41 1994.4C2227.8 2045.88 1992.88 2077.96 1748.09 2055.05C1513.45 2033.09 1287.93 1956.57 1079.85 1866.71ZM661.565 1603.84Q615.052 1569.47 591.53 1552.39Q564.93 1533.06 510.796 1494.7Q446.521 1449.14 415.179 1426.13Q362.993 1387.82 324.167 1356.05Q227.351 1276.84 173.008 1204.4Q86.4304 1089 44.3435 988.928Q-4.96631 871.689 4.54126 770.99Q6.42407 751.044 10.0981 731.434Q26.4465 644.178 78.2607 563.568Q141.69 464.877 249.668 389.454Q307.697 348.923 403.274 318.761Q441.646 306.653 492.612 294.063Q523.249 286.497 585.844 272.358Q660.013 255.605 696.366 246.327Q757.046 230.844 802.191 214.954Q847.772 198.915 899.741 172.606Q930.821 156.873 990.79 123.014Q1043.93 93.0095 1070.99 79.0098Q1116.04 55.698 1154.5 40.7778Q1242.83 6.51343 1332.27 3.32642Q1339.93 3.05371 1347.59 3.00854Q1437.52 2.479 1542.57 36.1189Q1584.76 49.626 1636.77 70.8936Q1667.99 83.657 1730.52 111.11Q1816.54 148.866 1860.43 165.722Q1933.83 193.909 1995.35 208.022Q2063.24 223.595 2154.13 230.857Q2208.47 235.2 2318.93 238.988Q2405.36 241.955 2447.44 244.605Q2517.49 249.02 2570.23 257.272Q2701.33 277.784 2781.95 331.913Q2823.42 359.756 2848.78 394.783Q2850.36 396.964 2851.88 399.184Q2872.17 428.735 2882.59 465.062Q2891.97 497.771 2894.51 541.009Q2896.05 567.091 2895.43 620.554Q2895.01 656.781 2895.36 674.908Q2895.95 705.22 2898.68 729.198Q2905.54 789.49 2929.17 834.801Q2953.71 881.839 3003.37 937.36Q3033.06 970.557 3099.65 1035.3Q3144.38 1078.78 3165.45 1100.6Q3200.47 1136.85 3223.55 1166.37Q3280.88 1239.65 3288.26 1302.85Q3289.57 1314.13 3290.06 1325.45Q3294.66 1431.8 3226.21 1541.31Q3162.47 1643.29 3036.7 1746.05Q2934.9 1829.23 2770.57 1893.4Q2637.07 1945.53 2443.72 1991.48Q2265.72 2033.78 2106.52 2049.63Q1920.43 2068.16 1748.37 2052.06Q1584.62 2036.74 1404.86 1983.47Q1254.81 1939 1081.03 1863.95Q972.903 1817.26 858.979 1743.45Q813.356 1713.9 758.841 1674.92Q726.158 1651.55 661.565 1603.84Z" fill="#FFFFFF" fill-opacity="1.000000" fill-rule="evenodd"/>
</svg>
